<svg width="374" height="34" viewBox="0 0 374 34" fill="none" xmlns="http://www.w3.org/2000/svg">
<path d="M6.41602 19H4.77246V8.14551L1.50293 9.34961V7.88184L6.16113 6.13281H6.41602V19ZM19.582 19H11.1885V17.8398L15.3809 13.1729C15.9023 12.5986 16.3037 12.1123 16.585 11.7139C16.8721 11.3096 17.0713 10.9463 17.1826 10.624C17.2939 10.3018 17.3496 9.97363 17.3496 9.63965C17.3496 9.00684 17.1562 8.46777 16.7695 8.02246C16.3887 7.57129 15.8438 7.3457 15.1348 7.3457C14.5605 7.3457 14.083 7.45703 13.7021 7.67969C13.3271 7.90234 13.0459 8.20996 12.8584 8.60254C12.6768 8.99512 12.5859 9.44922 12.5859 9.96484H10.9424C10.9424 9.24414 11.1006 8.58496 11.417 7.9873C11.7334 7.38965 12.2021 6.91504 12.8232 6.56348C13.4502 6.20605 14.2207 6.02734 15.1348 6.02734C16.3418 6.02734 17.2852 6.34082 17.9648 6.96777C18.6504 7.59473 18.9932 8.4209 18.9932 9.44629C18.9932 9.9502 18.8848 10.457 18.668 10.9668C18.4512 11.4766 18.1611 11.9834 17.7979 12.4873C17.4346 12.9854 17.0332 13.4717 16.5938 13.9463L13.166 17.6816H19.582V19ZM27.9053 19H26.2002V6.20312H27.9053V19ZM33.2578 13.3398H27.5361V11.9688H33.2578V13.3398ZM34.1279 7.58301H27.5361V6.20312H34.1279V7.58301ZM39.8496 19.1758C38.9648 19.1758 38.1943 18.9795 37.5381 18.5869C36.8877 18.1885 36.3809 17.6436 36.0176 16.9521C35.6602 16.2607 35.4814 15.4697 35.4814 14.5791V14.2012C35.4814 13.1699 35.6777 12.291 36.0703 11.5645C36.4688 10.832 36.9844 10.2754 37.6172 9.89453C38.2559 9.50781 38.9297 9.31445 39.6387 9.31445C40.5527 9.31445 41.2969 9.51953 41.8711 9.92969C42.4512 10.334 42.876 10.8877 43.1455 11.5908C43.4209 12.2881 43.5586 13.0791 43.5586 13.9639V14.6934H36.457V13.375H41.915V13.252C41.8916 12.8301 41.8066 12.4199 41.6602 12.0215C41.5137 11.6172 41.2793 11.2861 40.957 11.0283C40.6348 10.7646 40.1953 10.6328 39.6387 10.6328C39.1465 10.6328 38.71 10.7734 38.3291 11.0547C37.9541 11.3301 37.6582 11.7344 37.4414 12.2676C37.2305 12.7949 37.125 13.4395 37.125 14.2012V14.5791C37.125 15.1826 37.2363 15.7334 37.459 16.2314C37.6816 16.7236 38.0039 17.1191 38.4258 17.418C38.8477 17.7109 39.3516 17.8574 39.9375 17.8574C40.5117 17.8574 40.998 17.7402 41.3965 17.5059C41.7949 17.2715 42.1436 16.958 42.4424 16.5654L43.4355 17.3389C43.1309 17.8076 42.6914 18.2324 42.1172 18.6133C41.5488 18.9883 40.793 19.1758 39.8496 19.1758ZM47.1006 5.5V17.1543L46.96 19H45.457V5.5H47.1006ZM53.5166 14.3506C53.5166 15.2764 53.373 16.1025 53.0859 16.8291C52.7988 17.5557 52.3799 18.1299 51.8291 18.5518C51.2783 18.9678 50.6104 19.1758 49.8252 19.1758C49.0166 19.1758 48.3428 18.9941 47.8037 18.6309C47.2646 18.2617 46.8457 17.7432 46.5469 17.0752C46.248 16.4014 46.0518 15.6045 45.958 14.6846V13.832C46.0518 12.9004 46.248 12.0977 46.5469 11.4238C46.8457 10.75 47.2617 10.2314 47.7949 9.86816C48.334 9.49902 49.0049 9.31445 49.8076 9.31445C50.6045 9.31445 51.2783 9.5166 51.8291 9.9209C52.3799 10.3252 52.7988 10.8936 53.0859 11.626C53.373 12.3525 53.5166 13.1992 53.5166 14.166V14.3506ZM51.873 14.166C51.873 13.5332 51.7939 12.9531 51.6357 12.4258C51.4775 11.8926 51.2168 11.4678 50.8535 11.1514C50.4961 10.835 50.0098 10.6768 49.3945 10.6768C48.9902 10.6768 48.6357 10.7471 48.3311 10.8877C48.0322 11.0283 47.7773 11.2188 47.5664 11.459C47.3555 11.6934 47.1826 11.9629 47.0479 12.2676C46.9189 12.5664 46.8223 12.877 46.7578 13.1992V15.335C46.8516 15.7451 47.0039 16.1406 47.2148 16.5215C47.4258 16.8965 47.71 17.2041 48.0674 17.4443C48.4307 17.6846 48.8789 17.8047 49.4121 17.8047C49.998 17.8047 50.4697 17.6494 50.8271 17.3389C51.1904 17.0225 51.4541 16.6035 51.6182 16.082C51.7881 15.5605 51.873 14.9834 51.873 14.3506V14.166ZM68.2559 19H59.8623V17.8398L64.0547 13.1729C64.5762 12.5986 64.9775 12.1123 65.2588 11.7139C65.5459 11.3096 65.7451 10.9463 65.8564 10.624C65.9678 10.3018 66.0234 9.97363 66.0234 9.63965C66.0234 9.00684 65.8301 8.46777 65.4434 8.02246C65.0625 7.57129 64.5176 7.3457 63.8086 7.3457C63.2344 7.3457 62.7568 7.45703 62.376 7.67969C62.001 7.90234 61.7197 8.20996 61.5322 8.60254C61.3506 8.99512 61.2598 9.44922 61.2598 9.96484H59.6162C59.6162 9.24414 59.7744 8.58496 60.0908 7.9873C60.4072 7.38965 60.876 6.91504 61.4971 6.56348C62.124 6.20605 62.8945 6.02734 63.8086 6.02734C65.0156 6.02734 65.959 6.34082 66.6387 6.96777C67.3242 7.59473 67.667 8.4209 67.667 9.44629C67.667 9.9502 67.5586 10.457 67.3418 10.9668C67.125 11.4766 66.835 11.9834 66.4717 12.4873C66.1084 12.9854 65.707 13.4717 65.2676 13.9463L61.8398 17.6816H68.2559V19ZM78.0205 13.542C78.0205 14.9307 77.8564 16.0381 77.5283 16.8643C77.2061 17.6846 76.7432 18.2764 76.1396 18.6396C75.5361 18.9971 74.8213 19.1758 73.9951 19.1758C73.1807 19.1758 72.4688 18.9971 71.8594 18.6396C71.25 18.2764 70.7754 17.6846 70.4355 16.8643C70.1016 16.0381 69.9346 14.9307 69.9346 13.542V11.582C69.9346 10.1875 70.0986 9.08594 70.4268 8.27734C70.7607 7.46875 71.2295 6.8916 71.833 6.5459C72.4424 6.2002 73.1572 6.02734 73.9775 6.02734C74.8037 6.02734 75.5186 6.2002 76.1221 6.5459C76.7256 6.8916 77.1914 7.46875 77.5195 8.27734C77.8535 9.08594 78.0205 10.1875 78.0205 11.582V13.542ZM76.377 11.3096C76.377 10.3486 76.2861 9.57812 76.1045 8.99805C75.9229 8.41797 75.6533 7.99902 75.2959 7.74121C74.9385 7.47754 74.499 7.3457 73.9775 7.3457C73.4619 7.3457 73.0254 7.47754 72.668 7.74121C72.3105 7.99902 72.0381 8.41797 71.8506 8.99805C71.6689 9.57812 71.5781 10.3486 71.5781 11.3096V13.7969C71.5781 14.752 71.6719 15.5283 71.8594 16.126C72.0469 16.7236 72.3193 17.1631 72.6768 17.4443C73.04 17.7197 73.4795 17.8574 73.9951 17.8574C74.5225 17.8574 74.9619 17.7197 75.3135 17.4443C75.665 17.1631 75.9287 16.7236 76.1045 16.126C76.2861 15.5283 76.377 14.752 76.377 13.7969V11.3096ZM88.5059 19H80.1123V17.8398L84.3047 13.1729C84.8262 12.5986 85.2275 12.1123 85.5088 11.7139C85.7959 11.3096 85.9951 10.9463 86.1064 10.624C86.2178 10.3018 86.2734 9.97363 86.2734 9.63965C86.2734 9.00684 86.0801 8.46777 85.6934 8.02246C85.3125 7.57129 84.7676 7.3457 84.0586 7.3457C83.4844 7.3457 83.0068 7.45703 82.626 7.67969C82.251 7.90234 81.9697 8.20996 81.7822 8.60254C81.6006 8.99512 81.5098 9.44922 81.5098 9.96484H79.8662C79.8662 9.24414 80.0244 8.58496 80.3408 7.9873C80.6572 7.38965 81.126 6.91504 81.7471 6.56348C82.374 6.20605 83.1445 6.02734 84.0586 6.02734C85.2656 6.02734 86.209 6.34082 86.8887 6.96777C87.5742 7.59473 87.917 8.4209 87.917 9.44629C87.917 9.9502 87.8086 10.457 87.5918 10.9668C87.375 11.4766 87.085 11.9834 86.7217 12.4873C86.3584 12.9854 85.957 13.4717 85.5176 13.9463L82.0898 17.6816H88.5059V19ZM98.2705 13.542C98.2705 14.9307 98.1064 16.0381 97.7783 16.8643C97.4561 17.6846 96.9932 18.2764 96.3896 18.6396C95.7861 18.9971 95.0713 19.1758 94.2451 19.1758C93.4307 19.1758 92.7188 18.9971 92.1094 18.6396C91.5 18.2764 91.0254 17.6846 90.6855 16.8643C90.3516 16.0381 90.1846 14.9307 90.1846 13.542V11.582C90.1846 10.1875 90.3486 9.08594 90.6768 8.27734C91.0107 7.46875 91.4795 6.8916 92.083 6.5459C92.6924 6.2002 93.4072 6.02734 94.2275 6.02734C95.0537 6.02734 95.7686 6.2002 96.3721 6.5459C96.9756 6.8916 97.4414 7.46875 97.7695 8.27734C98.1035 9.08594 98.2705 10.1875 98.2705 11.582V13.542ZM96.627 11.3096C96.627 10.3486 96.5361 9.57812 96.3545 8.99805C96.1729 8.41797 95.9033 7.99902 95.5459 7.74121C95.1885 7.47754 94.749 7.3457 94.2275 7.3457C93.7119 7.3457 93.2754 7.47754 92.918 7.74121C92.5605 7.99902 92.2881 8.41797 92.1006 8.99805C91.9189 9.57812 91.8281 10.3486 91.8281 11.3096V13.7969C91.8281 14.752 91.9219 15.5283 92.1094 16.126C92.2969 16.7236 92.5693 17.1631 92.9268 17.4443C93.29 17.7197 93.7295 17.8574 94.2451 17.8574C94.7725 17.8574 95.2119 17.7197 95.5635 17.4443C95.915 17.1631 96.1787 16.7236 96.3545 16.126C96.5361 15.5283 96.627 14.752 96.627 13.7969V11.3096Z" fill="#21243D"/>
</svg>
