<svg width="42" height="60" viewBox="0 0 42 60" fill="none" xmlns="http://www.w3.org/2000/svg">
<path d="M0.755859 36V33.8555L4.85156 29.6279C5.33789 29.0947 5.70117 28.6113 5.94141 28.1777C6.1875 27.7441 6.31055 27.3809 6.31055 27.0879C6.31055 26.5664 6.19922 26.1826 5.97656 25.9365C5.75977 25.6904 5.4375 25.5674 5.00977 25.5674C4.74609 25.5674 4.51172 25.6494 4.30664 25.8135C4.10156 25.9775 3.94043 26.2002 3.82324 26.4814C3.70605 26.7627 3.64746 27.0732 3.64746 27.4131H0.483398C0.483398 26.6162 0.679688 25.8838 1.07227 25.2158C1.4707 24.542 2.02148 24.0088 2.72461 23.6162C3.42773 23.2178 4.21875 23.0186 5.09766 23.0186C6.5332 23.0186 7.62012 23.3467 8.3584 24.0029C9.09668 24.6533 9.46582 25.5908 9.46582 26.8154C9.46582 27.4131 9.3457 27.9814 9.10547 28.5205C8.86523 29.0537 8.52832 29.584 8.09473 30.1113C7.66113 30.6387 7.06055 31.292 6.29297 32.0713L4.92188 33.4512H9.75586V36H0.755859ZM20.2412 30.8496C20.2412 31.9922 20.0508 32.9648 19.6699 33.7676C19.2949 34.5645 18.7676 35.165 18.0879 35.5693C17.4082 35.9736 16.623 36.1758 15.7324 36.1758C14.8301 36.1758 14.0361 35.9736 13.3506 35.5693C12.6709 35.165 12.1406 34.5645 11.7598 33.7676C11.3848 32.9707 11.1973 31.998 11.1973 30.8496V28.3799C11.1973 27.2314 11.3848 26.2559 11.7598 25.4531C12.1406 24.6504 12.668 24.0469 13.3418 23.6426C14.0215 23.2324 14.8125 23.0273 15.7148 23.0273C16.6055 23.0273 17.3906 23.2324 18.0703 23.6426C18.7559 24.0527 19.2891 24.6592 19.6699 25.4619C20.0508 26.2646 20.2412 27.2373 20.2412 28.3799V30.8496ZM17.0859 27.9844C17.0859 27.1289 16.9658 26.5137 16.7256 26.1387C16.4912 25.7637 16.1543 25.5762 15.7148 25.5762C15.2637 25.5762 14.9209 25.7637 14.6865 26.1387C14.458 26.5078 14.3438 27.123 14.3438 27.9844V31.2275C14.3438 32.1064 14.4609 32.7275 14.6953 33.0908C14.9297 33.4482 15.2754 33.627 15.7324 33.627C16.1719 33.627 16.5059 33.4453 16.7344 33.082C16.9688 32.7188 17.0859 32.1006 17.0859 31.2275V27.9844ZM25.2861 36V26.9209L22.4121 27.6768V25.2158L28.1602 23.2207H28.4326V36H25.2861ZM39.2607 29.4082C39.8701 29.707 40.3418 30.1172 40.6758 30.6387C41.0156 31.1602 41.1855 31.7666 41.1855 32.458C41.1855 33.2666 40.9951 33.9492 40.6143 34.5059C40.2334 35.0625 39.7031 35.4814 39.0234 35.7627C38.3496 36.0381 37.5703 36.1758 36.6855 36.1758C35.8008 36.1758 35.0156 36.0381 34.3301 35.7627C33.6445 35.4814 33.1055 35.0625 32.7129 34.5059C32.3262 33.9492 32.1328 33.2666 32.1328 32.458C32.1328 31.7666 32.3057 31.1602 32.6514 30.6387C32.9971 30.1172 33.4775 29.7041 34.0928 29.3994C33.5596 29.1064 33.1436 28.7256 32.8447 28.2568C32.5518 27.7822 32.4053 27.2461 32.4053 26.6484C32.4053 25.875 32.584 25.2158 32.9414 24.6709C33.3047 24.126 33.8057 23.7158 34.4443 23.4404C35.0889 23.1592 35.8271 23.0186 36.6592 23.0186C37.5029 23.0186 38.2441 23.1592 38.8828 23.4404C39.5273 23.7158 40.0283 24.126 40.3857 24.6709C40.749 25.2158 40.9307 25.875 40.9307 26.6484C40.9307 27.252 40.7842 27.791 40.4912 28.2656C40.2041 28.7344 39.7939 29.1152 39.2607 29.4082ZM36.6592 25.5674C36.3018 25.5674 36.0293 25.6787 35.8418 25.9014C35.6602 26.1182 35.5693 26.4316 35.5693 26.8418C35.5693 27.2578 35.6631 27.5859 35.8506 27.8262C36.0381 28.0664 36.3164 28.1865 36.6855 28.1865C37.0488 28.1865 37.3213 28.0664 37.5029 27.8262C37.6904 27.5859 37.7842 27.2578 37.7842 26.8418C37.7842 26.4316 37.6904 26.1182 37.5029 25.9014C37.3154 25.6787 37.0342 25.5674 36.6592 25.5674ZM36.6855 33.627C37.084 33.627 37.4062 33.4951 37.6523 33.2314C37.8984 32.9678 38.0215 32.6133 38.0215 32.168C38.0215 31.7051 37.8984 31.3506 37.6523 31.1045C37.4121 30.8584 37.084 30.7354 36.668 30.7354C36.252 30.7354 35.918 30.8584 35.666 31.1045C35.4199 31.3506 35.2969 31.7051 35.2969 32.168C35.2969 32.6133 35.4258 32.9678 35.6836 33.2314C35.9414 33.4951 36.2754 33.627 36.6855 33.627Z" fill="white"/>
</svg>
