<svg width="365" height="44" viewBox="0 0 365 44" fill="none" xmlns="http://www.w3.org/2000/svg">
<path d="M8.05664 18.3877C8.74023 18.3877 9.30664 18.2705 9.75586 18.0361C10.2051 17.8018 10.5371 17.4697 10.752 17.04C10.9766 16.6104 11.0889 16.1074 11.0889 15.5312C11.0889 15.0332 10.9863 14.5889 10.7812 14.1982C10.5859 13.8076 10.2832 13.5 9.87305 13.2754C9.46289 13.041 8.94531 12.9238 8.32031 12.9238C7.8418 12.9238 7.39258 13.0166 6.97266 13.2021C6.55273 13.3877 6.21582 13.6514 5.96191 13.9932C5.70801 14.3252 5.58105 14.7207 5.58105 15.1797H1.15723C1.15723 13.998 1.47461 12.9727 2.10938 12.1035C2.74414 11.2344 3.59375 10.5605 4.6582 10.082C5.73242 9.60352 6.91406 9.36426 8.20312 9.36426C9.6582 9.36426 10.9326 9.59863 12.0264 10.0674C13.1299 10.5264 13.9893 11.21 14.6045 12.1182C15.2197 13.0166 15.5273 14.1299 15.5273 15.458C15.5273 16.1514 15.3662 16.8154 15.0439 17.4502C14.7314 18.085 14.2822 18.6514 13.6963 19.1494C13.1104 19.6475 12.4023 20.043 11.5723 20.3359C10.7422 20.6289 9.80957 20.7754 8.77441 20.7754H5.77148V18.3877H8.05664ZM5.77148 19.501H8.77441C9.93652 19.501 10.957 19.6328 11.8359 19.8965C12.7148 20.1504 13.4521 20.5215 14.0479 21.0098C14.6436 21.4883 15.0928 22.0693 15.3955 22.7529C15.6982 23.4268 15.8496 24.1787 15.8496 25.0088C15.8496 26.3369 15.5127 27.4697 14.8389 28.4072C14.165 29.3447 13.252 30.0625 12.0996 30.5605C10.9473 31.0488 9.64844 31.293 8.20312 31.293C7.29492 31.293 6.40625 31.1709 5.53711 30.9268C4.66797 30.6729 3.88184 30.2969 3.17871 29.7988C2.48535 29.3008 1.92871 28.666 1.50879 27.8945C1.08887 27.1133 0.878906 26.1953 0.878906 25.1406H5.33203C5.33203 25.6289 5.45898 26.0684 5.71289 26.459C5.97656 26.8496 6.33301 27.1621 6.78223 27.3965C7.23145 27.6211 7.74414 27.7334 8.32031 27.7334C9.28711 27.7334 10.0439 27.4746 10.5908 26.957C11.1475 26.4297 11.4258 25.7559 11.4258 24.9355C11.4258 24.1934 11.2891 23.5977 11.0156 23.1484C10.7422 22.6895 10.3564 22.3574 9.8584 22.1523C9.36035 21.9473 8.75977 21.8447 8.05664 21.8447H5.77148V19.501ZM30.2637 9.42285V13.0703H30C28.9062 13.0703 27.9297 13.2217 27.0703 13.5244C26.2207 13.8271 25.498 14.2666 24.9023 14.8428C24.3164 15.4189 23.8721 16.1221 23.5693 16.9521C23.2666 17.7725 23.1152 18.7002 23.1152 19.7354V23.3682C23.1152 24.3447 23.2422 25.1553 23.4961 25.7998C23.75 26.4443 24.1064 26.9277 24.5654 27.25C25.0244 27.5625 25.5566 27.7188 26.1621 27.7188C26.7578 27.7188 27.2754 27.5576 27.7148 27.2354C28.1543 26.9131 28.4961 26.4688 28.7402 25.9023C28.9844 25.3359 29.1064 24.6963 29.1064 23.9834C29.1064 23.2412 28.9795 22.5918 28.7256 22.0352C28.4814 21.4688 28.1348 21.0293 27.6855 20.7168C27.2363 20.3945 26.6992 20.2334 26.0742 20.2334C25.4199 20.2334 24.8535 20.3799 24.375 20.6729C23.8965 20.9658 23.5254 21.3369 23.2617 21.7861C22.998 22.2354 22.8564 22.6992 22.8369 23.1777L21.5332 22.2109C21.5625 21.5176 21.7188 20.8438 22.002 20.1895C22.2852 19.5352 22.6807 18.9443 23.1885 18.417C23.7061 17.8896 24.3213 17.4697 25.0342 17.1572C25.7471 16.8447 26.5527 16.6885 27.4512 16.6885C28.7891 16.6885 29.9072 17.0205 30.8057 17.6846C31.7041 18.3389 32.3779 19.2178 32.8271 20.3213C33.2861 21.415 33.5156 22.6309 33.5156 23.9688C33.5156 25.3457 33.2129 26.5908 32.6074 27.7041C32.0117 28.8076 31.1719 29.6816 30.0879 30.3262C29.0039 30.9707 27.7295 31.293 26.2646 31.293C25.1221 31.293 24.0869 31.0879 23.1592 30.6777C22.2314 30.2676 21.4307 29.6914 20.7568 28.9492C20.0928 28.1973 19.5801 27.2988 19.2188 26.2539C18.8574 25.1992 18.6768 24.0322 18.6768 22.7529V21.0977C18.6768 19.3594 18.9307 17.7773 19.4385 16.3516C19.9463 14.916 20.6738 13.6855 21.6211 12.6602C22.5781 11.625 23.7305 10.8291 25.0781 10.2725C26.4258 9.70605 27.9395 9.42285 29.6191 9.42285H30.2637ZM45.835 31L45.8643 27.2939H50.4492C51.5723 27.2939 52.5146 27.0449 53.2764 26.5469C54.0479 26.0488 54.6289 25.3164 55.0195 24.3496C55.4102 23.3828 55.6055 22.1963 55.6055 20.79V19.8525C55.6055 18.4365 55.4102 17.25 55.0195 16.293C54.6289 15.3359 54.0527 14.6133 53.291 14.125C52.5293 13.6367 51.5918 13.3926 50.4785 13.3926H45.7471V9.67188H50.4785C52.4023 9.67188 54.0967 10.1016 55.5615 10.9609C57.0361 11.8203 58.1885 13.0166 59.0186 14.5498C59.8486 16.0732 60.2637 17.8506 60.2637 19.8818V20.79C60.2637 22.8213 59.8486 24.6035 59.0186 26.1367C58.1885 27.6699 57.0361 28.8662 55.5615 29.7256C54.0967 30.5752 52.3926 31 50.4492 31H45.835ZM48.457 31H43.8428V9.67188H48.457V31ZM71.5576 20.4385C71.5576 19.7256 71.3818 19.1592 71.0303 18.7393C70.6787 18.3193 70.1172 18.1094 69.3457 18.1094C68.9062 18.1094 68.5254 18.1826 68.2031 18.3291C67.8809 18.4756 67.6367 18.6855 67.4707 18.959C67.3047 19.2227 67.2217 19.5498 67.2217 19.9404H62.7979C62.7979 19.0029 63.0762 18.1533 63.6328 17.3916C64.1895 16.6201 64.9756 16.0049 65.9912 15.5459C67.0068 15.0869 68.2031 14.8574 69.5801 14.8574C70.8105 14.8574 71.9092 15.0674 72.876 15.4873C73.8428 15.8975 74.6045 16.5176 75.1611 17.3477C75.7178 18.1777 75.9961 19.2178 75.9961 20.4678V27.0889C75.9961 28.0264 76.0498 28.7686 76.1572 29.3154C76.2744 29.8623 76.4355 30.3408 76.6406 30.751V31H72.1875C71.9727 30.5508 71.8115 29.9893 71.7041 29.3154C71.6064 28.6416 71.5576 27.958 71.5576 27.2646V20.4385ZM72.1582 23.8516H69.9023C68.8281 23.8516 68.0518 24.0859 67.5732 24.5547C67.0947 25.0137 66.8555 25.5703 66.8555 26.2246C66.8555 26.7227 67.0312 27.1328 67.3828 27.4551C67.7344 27.7773 68.208 27.9385 68.8037 27.9385C69.4189 27.9385 69.9463 27.8213 70.3857 27.5869C70.835 27.3428 71.1768 27.0547 71.4111 26.7227C71.6553 26.3809 71.7725 26.0684 71.7627 25.7852L72.9053 27.6895C72.749 28.0801 72.5391 28.4854 72.2754 28.9053C72.0215 29.3252 71.6943 29.7158 71.2939 30.0771C70.8936 30.4385 70.4053 30.7314 69.8291 30.9561C69.2627 31.1807 68.5938 31.293 67.8223 31.293C66.8262 31.293 65.918 31.0928 65.0977 30.6924C64.2773 30.2822 63.6279 29.7207 63.1494 29.0078C62.6709 28.2852 62.4316 27.46 62.4316 26.5322C62.4316 24.8721 63.0469 23.5879 64.2773 22.6797C65.5078 21.7617 67.3389 21.3027 69.7705 21.3027H72.1289L72.1582 23.8516ZM87.9932 15.1504H92.7246L86.3965 33.373C86.2598 33.7637 86.0742 34.1885 85.8398 34.6475C85.6055 35.1162 85.293 35.5605 84.9023 35.9805C84.5215 36.4004 84.0332 36.7422 83.4375 37.0059C82.8516 37.2695 82.1338 37.4014 81.2842 37.4014C81.0107 37.4014 80.7715 37.3916 80.5664 37.3721C80.3711 37.3525 80.1807 37.3184 79.9951 37.2695C79.8096 37.2305 79.5996 37.1816 79.3652 37.123V33.7832C79.4727 33.7832 79.5801 33.7832 79.6875 33.7832C79.8047 33.793 79.9121 33.7979 80.0098 33.7979C80.8398 33.7979 81.4453 33.6709 81.8262 33.417C82.207 33.1631 82.4951 32.7578 82.6904 32.2012L83.8477 29.1689L87.9932 15.1504ZM85.6494 26.3564L86.25 31.2344L83.2617 31.4395L77.5928 15.1504H82.3535L85.6494 26.3564ZM102.832 26.5762C102.832 26.2832 102.744 26.0293 102.568 25.8145C102.402 25.5996 102.09 25.3994 101.631 25.2139C101.172 25.0283 100.508 24.8428 99.6387 24.6572C98.5742 24.4229 97.6123 24.1055 96.7529 23.7051C95.9033 23.3047 95.2344 22.7871 94.7461 22.1523C94.2578 21.5078 94.0137 20.7314 94.0137 19.8232C94.0137 18.9346 94.2676 18.1143 94.7754 17.3623C95.2832 16.6104 96.0107 16.0049 96.958 15.5459C97.915 15.0869 99.0576 14.8574 100.386 14.8574C101.772 14.8574 102.969 15.0771 103.975 15.5166C104.98 15.9561 105.752 16.5615 106.289 17.333C106.826 18.1045 107.095 18.9883 107.095 19.9844H102.671C102.671 19.3887 102.485 18.9053 102.114 18.5342C101.753 18.1533 101.172 17.9629 100.371 17.9629C99.9414 17.9629 99.5654 18.0361 99.2432 18.1826C98.9209 18.3291 98.6719 18.5244 98.4961 18.7686C98.3301 19.0029 98.2471 19.2812 98.2471 19.6035C98.2471 19.8965 98.3398 20.1553 98.5254 20.3799C98.7109 20.6045 99.0137 20.7998 99.4336 20.9658C99.8535 21.1318 100.415 21.2783 101.118 21.4053C102.241 21.6201 103.257 21.918 104.165 22.2988C105.073 22.6699 105.796 23.1826 106.333 23.8369C106.87 24.4814 107.139 25.3408 107.139 26.415C107.139 27.3525 106.86 28.1924 106.304 28.9346C105.757 29.667 104.976 30.2432 103.96 30.6631C102.954 31.083 101.768 31.293 100.4 31.293C98.9062 31.293 97.6465 31.0244 96.6211 30.4873C95.5957 29.9502 94.8193 29.2715 94.292 28.4512C93.7646 27.6211 93.501 26.7764 93.501 25.917H97.6904C97.7197 26.4443 97.8613 26.874 98.1152 27.2061C98.3789 27.5381 98.7158 27.7822 99.126 27.9385C99.5459 28.0947 100.005 28.1729 100.503 28.1729C101.011 28.1729 101.436 28.1094 101.777 27.9824C102.129 27.8457 102.393 27.6602 102.568 27.4258C102.744 27.1816 102.832 26.8984 102.832 26.5762ZM116.616 22.9287C116.616 21.3857 116.909 20.0088 117.495 18.7979C118.081 17.5771 118.936 16.6152 120.059 15.9121C121.182 15.209 122.544 14.8574 124.146 14.8574C125.767 14.8574 127.139 15.209 128.262 15.9121C129.395 16.6152 130.249 17.5771 130.825 18.7979C131.411 20.0088 131.704 21.3857 131.704 22.9287V23.2363C131.704 24.7695 131.411 26.1465 130.825 27.3672C130.249 28.5879 129.399 29.5498 128.276 30.2529C127.153 30.9463 125.786 31.293 124.175 31.293C122.563 31.293 121.191 30.9463 120.059 30.2529C118.936 29.5498 118.081 28.5879 117.495 27.3672C116.909 26.1465 116.616 24.7695 116.616 23.2363V22.9287ZM121.055 23.2363C121.055 24.0664 121.152 24.8232 121.348 25.5068C121.553 26.1904 121.88 26.7324 122.329 27.1328C122.788 27.5332 123.403 27.7334 124.175 27.7334C124.937 27.7334 125.542 27.5332 125.991 27.1328C126.45 26.7324 126.777 26.1904 126.973 25.5068C127.178 24.8232 127.28 24.0664 127.28 23.2363V22.9287C127.28 22.1182 127.178 21.3711 126.973 20.6875C126.777 19.9941 126.45 19.4424 125.991 19.0322C125.542 18.6221 124.927 18.417 124.146 18.417C123.384 18.417 122.773 18.6221 122.314 19.0322C121.865 19.4424 121.543 19.9941 121.348 20.6875C121.152 21.3711 121.055 22.1182 121.055 22.9287V23.2363ZM135.366 31V13.8027C135.366 11.9863 135.894 10.5996 136.948 9.64258C138.013 8.67578 139.448 8.19238 141.255 8.19238C141.655 8.19238 142.036 8.22168 142.397 8.28027C142.769 8.3291 143.125 8.39746 143.467 8.48535L143.438 11.8984C143.252 11.8594 143.052 11.8301 142.837 11.8105C142.632 11.791 142.402 11.7812 142.148 11.7812C141.406 11.7812 140.83 11.957 140.42 12.3086C140.01 12.6504 139.805 13.1484 139.805 13.8027V31H135.366ZM142.925 18.373H133.037V15.1504H142.925V18.373ZM158.818 9.67188L164.106 24.8916L169.38 9.67188H173.262L165.659 31H162.524L154.937 9.67188H158.818ZM156.694 9.67188L157.412 25.4775V31H152.798V9.67188H156.694ZM175.4 9.67188V31H170.786V25.4775L171.489 9.67188H175.4ZM187.339 20.4385C187.339 19.7256 187.163 19.1592 186.812 18.7393C186.46 18.3193 185.898 18.1094 185.127 18.1094C184.688 18.1094 184.307 18.1826 183.984 18.3291C183.662 18.4756 183.418 18.6855 183.252 18.959C183.086 19.2227 183.003 19.5498 183.003 19.9404H178.579C178.579 19.0029 178.857 18.1533 179.414 17.3916C179.971 16.6201 180.757 16.0049 181.772 15.5459C182.788 15.0869 183.984 14.8574 185.361 14.8574C186.592 14.8574 187.69 15.0674 188.657 15.4873C189.624 15.8975 190.386 16.5176 190.942 17.3477C191.499 18.1777 191.777 19.2178 191.777 20.4678V27.0889C191.777 28.0264 191.831 28.7686 191.938 29.3154C192.056 29.8623 192.217 30.3408 192.422 30.751V31H187.969C187.754 30.5508 187.593 29.9893 187.485 29.3154C187.388 28.6416 187.339 27.958 187.339 27.2646V20.4385ZM187.939 23.8516H185.684C184.609 23.8516 183.833 24.0859 183.354 24.5547C182.876 25.0137 182.637 25.5703 182.637 26.2246C182.637 26.7227 182.812 27.1328 183.164 27.4551C183.516 27.7773 183.989 27.9385 184.585 27.9385C185.2 27.9385 185.728 27.8213 186.167 27.5869C186.616 27.3428 186.958 27.0547 187.192 26.7227C187.437 26.3809 187.554 26.0684 187.544 25.7852L188.687 27.6895C188.53 28.0801 188.32 28.4854 188.057 28.9053C187.803 29.3252 187.476 29.7158 187.075 30.0771C186.675 30.4385 186.187 30.7314 185.61 30.9561C185.044 31.1807 184.375 31.293 183.604 31.293C182.607 31.293 181.699 31.0928 180.879 30.6924C180.059 30.2822 179.409 29.7207 178.931 29.0078C178.452 28.2852 178.213 27.46 178.213 26.5322C178.213 24.8721 178.828 23.5879 180.059 22.6797C181.289 21.7617 183.12 21.3027 185.552 21.3027H187.91L187.939 23.8516ZM199.6 31H195.161V8.5H199.6V31ZM211.479 20.4385C211.479 19.7256 211.304 19.1592 210.952 18.7393C210.601 18.3193 210.039 18.1094 209.268 18.1094C208.828 18.1094 208.447 18.1826 208.125 18.3291C207.803 18.4756 207.559 18.6855 207.393 18.959C207.227 19.2227 207.144 19.5498 207.144 19.9404H202.72C202.72 19.0029 202.998 18.1533 203.555 17.3916C204.111 16.6201 204.897 16.0049 205.913 15.5459C206.929 15.0869 208.125 14.8574 209.502 14.8574C210.732 14.8574 211.831 15.0674 212.798 15.4873C213.765 15.8975 214.526 16.5176 215.083 17.3477C215.64 18.1777 215.918 19.2178 215.918 20.4678V27.0889C215.918 28.0264 215.972 28.7686 216.079 29.3154C216.196 29.8623 216.357 30.3408 216.562 30.751V31H212.109C211.895 30.5508 211.733 29.9893 211.626 29.3154C211.528 28.6416 211.479 27.958 211.479 27.2646V20.4385ZM212.08 23.8516H209.824C208.75 23.8516 207.974 24.0859 207.495 24.5547C207.017 25.0137 206.777 25.5703 206.777 26.2246C206.777 26.7227 206.953 27.1328 207.305 27.4551C207.656 27.7773 208.13 27.9385 208.726 27.9385C209.341 27.9385 209.868 27.8213 210.308 27.5869C210.757 27.3428 211.099 27.0547 211.333 26.7227C211.577 26.3809 211.694 26.0684 211.685 25.7852L212.827 27.6895C212.671 28.0801 212.461 28.4854 212.197 28.9053C211.943 29.3252 211.616 29.7158 211.216 30.0771C210.815 30.4385 210.327 30.7314 209.751 30.9561C209.185 31.1807 208.516 31.293 207.744 31.293C206.748 31.293 205.84 31.0928 205.02 30.6924C204.199 30.2822 203.55 29.7207 203.071 29.0078C202.593 28.2852 202.354 27.46 202.354 26.5322C202.354 24.8721 202.969 23.5879 204.199 22.6797C205.43 21.7617 207.261 21.3027 209.692 21.3027H212.051L212.08 23.8516ZM227.915 15.1504H232.646L226.318 33.373C226.182 33.7637 225.996 34.1885 225.762 34.6475C225.527 35.1162 225.215 35.5605 224.824 35.9805C224.443 36.4004 223.955 36.7422 223.359 37.0059C222.773 37.2695 222.056 37.4014 221.206 37.4014C220.933 37.4014 220.693 37.3916 220.488 37.3721C220.293 37.3525 220.103 37.3184 219.917 37.2695C219.731 37.2305 219.521 37.1816 219.287 37.123V33.7832C219.395 33.7832 219.502 33.7832 219.609 33.7832C219.727 33.793 219.834 33.7979 219.932 33.7979C220.762 33.7979 221.367 33.6709 221.748 33.417C222.129 33.1631 222.417 32.7578 222.612 32.2012L223.77 29.1689L227.915 15.1504ZM225.571 26.3564L226.172 31.2344L223.184 31.4395L217.515 15.1504H222.275L225.571 26.3564ZM242.739 20.4385C242.739 19.7256 242.563 19.1592 242.212 18.7393C241.86 18.3193 241.299 18.1094 240.527 18.1094C240.088 18.1094 239.707 18.1826 239.385 18.3291C239.062 18.4756 238.818 18.6855 238.652 18.959C238.486 19.2227 238.403 19.5498 238.403 19.9404H233.979C233.979 19.0029 234.258 18.1533 234.814 17.3916C235.371 16.6201 236.157 16.0049 237.173 15.5459C238.188 15.0869 239.385 14.8574 240.762 14.8574C241.992 14.8574 243.091 15.0674 244.058 15.4873C245.024 15.8975 245.786 16.5176 246.343 17.3477C246.899 18.1777 247.178 19.2178 247.178 20.4678V27.0889C247.178 28.0264 247.231 28.7686 247.339 29.3154C247.456 29.8623 247.617 30.3408 247.822 30.751V31H243.369C243.154 30.5508 242.993 29.9893 242.886 29.3154C242.788 28.6416 242.739 27.958 242.739 27.2646V20.4385ZM243.34 23.8516H241.084C240.01 23.8516 239.233 24.0859 238.755 24.5547C238.276 25.0137 238.037 25.5703 238.037 26.2246C238.037 26.7227 238.213 27.1328 238.564 27.4551C238.916 27.7773 239.39 27.9385 239.985 27.9385C240.601 27.9385 241.128 27.8213 241.567 27.5869C242.017 27.3428 242.358 27.0547 242.593 26.7227C242.837 26.3809 242.954 26.0684 242.944 25.7852L244.087 27.6895C243.931 28.0801 243.721 28.4854 243.457 28.9053C243.203 29.3252 242.876 29.7158 242.476 30.0771C242.075 30.4385 241.587 30.7314 241.011 30.9561C240.444 31.1807 239.775 31.293 239.004 31.293C238.008 31.293 237.1 31.0928 236.279 30.6924C235.459 30.2822 234.81 29.7207 234.331 29.0078C233.853 28.2852 233.613 27.46 233.613 26.5322C233.613 24.8721 234.229 23.5879 235.459 22.6797C236.689 21.7617 238.521 21.3027 240.952 21.3027H243.311L243.34 23.8516ZM255 31H250.562V8.5H255V31ZM266.88 20.4385C266.88 19.7256 266.704 19.1592 266.353 18.7393C266.001 18.3193 265.439 18.1094 264.668 18.1094C264.229 18.1094 263.848 18.1826 263.525 18.3291C263.203 18.4756 262.959 18.6855 262.793 18.959C262.627 19.2227 262.544 19.5498 262.544 19.9404H258.12C258.12 19.0029 258.398 18.1533 258.955 17.3916C259.512 16.6201 260.298 16.0049 261.313 15.5459C262.329 15.0869 263.525 14.8574 264.902 14.8574C266.133 14.8574 267.231 15.0674 268.198 15.4873C269.165 15.8975 269.927 16.5176 270.483 17.3477C271.04 18.1777 271.318 19.2178 271.318 20.4678V27.0889C271.318 28.0264 271.372 28.7686 271.479 29.3154C271.597 29.8623 271.758 30.3408 271.963 30.751V31H267.51C267.295 30.5508 267.134 29.9893 267.026 29.3154C266.929 28.6416 266.88 27.958 266.88 27.2646V20.4385ZM267.48 23.8516H265.225C264.15 23.8516 263.374 24.0859 262.896 24.5547C262.417 25.0137 262.178 25.5703 262.178 26.2246C262.178 26.7227 262.354 27.1328 262.705 27.4551C263.057 27.7773 263.53 27.9385 264.126 27.9385C264.741 27.9385 265.269 27.8213 265.708 27.5869C266.157 27.3428 266.499 27.0547 266.733 26.7227C266.978 26.3809 267.095 26.0684 267.085 25.7852L268.228 27.6895C268.071 28.0801 267.861 28.4854 267.598 28.9053C267.344 29.3252 267.017 29.7158 266.616 30.0771C266.216 30.4385 265.728 30.7314 265.151 30.9561C264.585 31.1807 263.916 31.293 263.145 31.293C262.148 31.293 261.24 31.0928 260.42 30.6924C259.6 30.2822 258.95 29.7207 258.472 29.0078C257.993 28.2852 257.754 27.46 257.754 26.5322C257.754 24.8721 258.369 23.5879 259.6 22.6797C260.83 21.7617 262.661 21.3027 265.093 21.3027H267.451L267.48 23.8516ZM278.906 31H274.482V15.1504H278.643L278.906 18.4609V31ZM277.075 22.6064C277.075 21.1025 277.31 19.7695 277.778 18.6074C278.247 17.4453 278.94 16.5322 279.858 15.8682C280.786 15.1943 281.934 14.8574 283.301 14.8574C284.707 14.8574 285.854 15.292 286.743 16.1611C287.632 17.0205 288.076 18.4414 288.076 20.4238V31H283.652V20.9658C283.652 20.292 283.56 19.7744 283.374 19.4131C283.198 19.042 282.939 18.7881 282.598 18.6514C282.256 18.5146 281.846 18.4463 281.367 18.4463C280.85 18.4463 280.396 18.5488 280.005 18.7539C279.614 18.9492 279.292 19.2324 279.038 19.6035C278.784 19.9746 278.594 20.4141 278.467 20.9219C278.35 21.4199 278.291 21.9619 278.291 22.5479L277.075 22.6064ZM286.099 22.4307C286.089 20.9951 286.309 19.7061 286.758 18.5635C287.217 17.4209 287.9 16.5176 288.809 15.8535C289.717 15.1895 290.845 14.8574 292.192 14.8574C293.208 14.8574 294.097 15.0527 294.858 15.4434C295.62 15.834 296.211 16.4736 296.631 17.3623C297.051 18.251 297.261 19.4424 297.261 20.9365V31H292.808V20.9219C292.808 20.2383 292.715 19.7207 292.529 19.3691C292.354 19.0176 292.095 18.7783 291.753 18.6514C291.421 18.5146 291.021 18.4463 290.552 18.4463C290.063 18.4463 289.639 18.5391 289.277 18.7246C288.926 18.9102 288.628 19.1787 288.384 19.5303C288.149 19.8721 287.969 20.2773 287.842 20.7461C287.725 21.2051 287.666 21.708 287.666 22.2549L286.099 22.4307ZM315.835 18.373H306.475V15.1504H315.835V18.373ZM313.154 11.2393V26.0488C313.154 26.4785 313.208 26.8105 313.315 27.0449C313.433 27.2793 313.613 27.4404 313.857 27.5283C314.102 27.6162 314.404 27.6602 314.766 27.6602C315.029 27.6602 315.264 27.6504 315.469 27.6309C315.674 27.6113 315.85 27.5869 315.996 27.5576L315.981 30.8975C315.62 31.0244 315.225 31.1221 314.795 31.1904C314.375 31.2588 313.901 31.293 313.374 31.293C312.427 31.293 311.602 31.1367 310.898 30.8242C310.205 30.502 309.668 29.9941 309.287 29.3008C308.916 28.5977 308.73 27.6797 308.73 26.5469V11.2393H313.154ZM326.938 15.1504H331.67L325.342 33.373C325.205 33.7637 325.02 34.1885 324.785 34.6475C324.551 35.1162 324.238 35.5605 323.848 35.9805C323.467 36.4004 322.979 36.7422 322.383 37.0059C321.797 37.2695 321.079 37.4014 320.229 37.4014C319.956 37.4014 319.717 37.3916 319.512 37.3721C319.316 37.3525 319.126 37.3184 318.94 37.2695C318.755 37.2305 318.545 37.1816 318.311 37.123V33.7832C318.418 33.7832 318.525 33.7832 318.633 33.7832C318.75 33.793 318.857 33.7979 318.955 33.7979C319.785 33.7979 320.391 33.6709 320.771 33.417C321.152 33.1631 321.44 32.7578 321.636 32.2012L322.793 29.1689L326.938 15.1504ZM324.595 26.3564L325.195 31.2344L322.207 31.4395L316.538 15.1504H321.299L324.595 26.3564ZM337.705 37.0938H333.281V15.1504H337.383L337.705 18.1973V37.0938ZM347.666 23.207C347.666 24.7402 347.427 26.1172 346.948 27.3379C346.479 28.5586 345.786 29.5254 344.868 30.2383C343.96 30.9414 342.837 31.293 341.499 31.293C340.2 31.293 339.131 30.9414 338.291 30.2383C337.461 29.5254 336.816 28.5684 336.357 27.3672C335.898 26.166 335.566 24.8379 335.361 23.3828V22.9287C335.557 21.376 335.884 19.9941 336.343 18.7832C336.812 17.5625 337.461 16.6055 338.291 15.9121C339.131 15.209 340.195 14.8574 341.484 14.8574C342.822 14.8574 343.95 15.1943 344.868 15.8682C345.786 16.5322 346.479 17.4697 346.948 18.6807C347.427 19.8818 347.666 21.2881 347.666 22.8994V23.207ZM343.242 22.8994C343.242 22.04 343.145 21.2783 342.949 20.6143C342.764 19.9404 342.456 19.4131 342.026 19.0322C341.597 18.6416 341.025 18.4463 340.312 18.4463C339.766 18.4463 339.297 18.5342 338.906 18.71C338.525 18.876 338.208 19.125 337.954 19.457C337.71 19.7891 337.524 20.1992 337.397 20.6875C337.28 21.166 337.212 21.7227 337.192 22.3574V23.9688C337.231 24.6914 337.354 25.3359 337.559 25.9023C337.773 26.4688 338.105 26.918 338.555 27.25C339.004 27.5723 339.6 27.7334 340.342 27.7334C341.064 27.7334 341.636 27.5283 342.056 27.1182C342.476 26.708 342.778 26.1611 342.964 25.4775C343.149 24.7842 343.242 24.0273 343.242 23.207V22.8994ZM357.583 31.293C355.913 31.293 354.482 30.9463 353.291 30.2529C352.109 29.5596 351.201 28.6318 350.566 27.4697C349.941 26.3076 349.629 25.0234 349.629 23.6172V23.0459C349.629 21.4639 349.927 20.0576 350.522 18.8271C351.128 17.5869 351.987 16.6152 353.101 15.9121C354.214 15.209 355.542 14.8574 357.085 14.8574C358.618 14.8574 359.907 15.1797 360.952 15.8242C361.997 16.4688 362.788 17.377 363.325 18.5488C363.862 19.7109 364.131 21.0781 364.131 22.6504V24.5254H351.489V21.5518H359.78V21.2002C359.78 20.6533 359.683 20.1699 359.487 19.75C359.292 19.3301 358.994 19.0029 358.594 18.7686C358.203 18.5342 357.69 18.417 357.056 18.417C356.333 18.417 355.752 18.6221 355.312 19.0322C354.873 19.4424 354.551 19.9941 354.346 20.6875C354.15 21.3809 354.053 22.167 354.053 23.0459V23.6172C354.053 24.4277 354.204 25.1406 354.507 25.7559C354.81 26.3711 355.244 26.8545 355.811 27.2061C356.377 27.5479 357.061 27.7188 357.861 27.7188C358.613 27.7188 359.316 27.582 359.971 27.3086C360.625 27.0254 361.182 26.5859 361.641 25.9902L363.779 28.4365C363.281 29.1494 362.51 29.8037 361.465 30.3994C360.43 30.9951 359.136 31.293 357.583 31.293Z" fill="#21243D"/>
</svg>
