<svg width="106" height="43" viewBox="0 0 106 43" fill="none" xmlns="http://www.w3.org/2000/svg">
<path d="M74.7012 13.5977C75.4889 13.806 76.0846 14.2064 76.4883 14.7988C76.8919 15.3848 77.0938 16.0651 77.0938 16.8398C77.0938 18.1875 76.6608 19.2194 75.7949 19.9355C74.929 20.6452 73.7116 21 72.1426 21H67.8555H66.8984V6.78125H71.7812C73.3828 6.78125 74.6133 7.10026 75.4727 7.73828C76.332 8.36979 76.7617 9.33333 76.7617 10.6289C76.7617 11.293 76.5827 11.8854 76.2246 12.4062C75.873 12.9271 75.3652 13.3242 74.7012 13.5977ZM69.4277 8.82227V12.7578H71.8008C72.5755 12.7578 73.1745 12.5853 73.5977 12.2402C74.0273 11.8952 74.2422 11.4102 74.2422 10.7852C74.2422 10.0951 74.0436 9.59701 73.6465 9.29102C73.2493 8.97852 72.6276 8.82227 71.7812 8.82227H69.4277ZM72.1426 18.9688C72.9238 18.9688 73.5228 18.7767 73.9395 18.3926C74.3626 18.002 74.5742 17.4844 74.5742 16.8398C74.5742 15.3555 73.7995 14.6133 72.25 14.6133H69.4277V18.9688H72.1426ZM79.4863 21V6H81.918V21H79.4863ZM84.0273 15.6191C84.0273 14.5905 84.2227 13.6693 84.6133 12.8555C85.0104 12.0417 85.5801 11.4036 86.3223 10.9414C87.0645 10.4727 87.9368 10.2383 88.9395 10.2383C89.9551 10.2383 90.834 10.4727 91.5762 10.9414C92.3249 11.4036 92.8945 12.0417 93.2852 12.8555C93.6823 13.6693 93.8809 14.5905 93.8809 15.6191V15.8242C93.8809 16.8529 93.6823 17.7741 93.2852 18.5879C92.8945 19.4017 92.3281 20.0397 91.5859 20.502C90.8438 20.9642 89.9681 21.1953 88.959 21.1953C87.9499 21.1953 87.071 20.9642 86.3223 20.502C85.5801 20.0397 85.0104 19.4017 84.6133 18.5879C84.2227 17.7741 84.0273 16.8529 84.0273 15.8242V15.6191ZM86.459 15.8242C86.459 16.8268 86.6673 17.6471 87.084 18.2852C87.5007 18.9232 88.1257 19.2422 88.959 19.2422C89.5124 19.2422 89.9746 19.0924 90.3457 18.793C90.7233 18.487 91 18.0768 91.1758 17.5625C91.3581 17.0482 91.4492 16.4688 91.4492 15.8242V15.6191C91.4492 14.9811 91.3581 14.4049 91.1758 13.8906C91 13.3698 90.7233 12.9564 90.3457 12.6504C89.9681 12.3444 89.4993 12.1914 88.9395 12.1914C88.3861 12.1914 87.9238 12.3444 87.5527 12.6504C87.1816 12.9564 86.9049 13.3698 86.7227 13.8906C86.5469 14.4049 86.459 14.9811 86.459 15.6191V15.8242ZM104.809 10.4336V20.6973C104.809 21.6348 104.607 22.4388 104.203 23.1094C103.799 23.7799 103.233 24.2878 102.504 24.6328C101.775 24.9844 100.932 25.1602 99.9746 25.1602C99.5449 25.1602 99.0827 25.0983 98.5879 24.9746C98.0931 24.8574 97.6146 24.6686 97.1523 24.4082C96.6966 24.1478 96.3223 23.819 96.0293 23.4219L97.1621 21.9668C97.5332 22.3965 97.9466 22.7155 98.4023 22.9238C98.8581 23.1387 99.3366 23.2461 99.8379 23.2461C100.632 23.2461 101.254 23.028 101.703 22.5918C102.152 22.1621 102.377 21.5469 102.377 20.7461V20.043C101.693 20.8112 100.788 21.1953 99.6621 21.1953C98.8158 21.1953 98.0736 20.9642 97.4355 20.502C96.7975 20.0397 96.3027 19.4017 95.9512 18.5879C95.6061 17.7741 95.4336 16.8561 95.4336 15.834V15.6289C95.4336 14.5612 95.6061 13.6204 95.9512 12.8066C96.2962 11.9928 96.7878 11.3613 97.4258 10.9121C98.0703 10.4629 98.8223 10.2383 99.6816 10.2383C100.893 10.2383 101.833 10.6517 102.504 11.4785L102.602 10.4336H104.809ZM100.277 19.2031C101.241 19.2031 101.941 18.8027 102.377 18.002V13.4023C101.941 12.6146 101.247 12.2207 100.297 12.2207C99.7565 12.2207 99.304 12.3704 98.9395 12.6699C98.5749 12.9694 98.3047 13.3763 98.1289 13.8906C97.9531 14.4049 97.8652 14.9844 97.8652 15.6289V15.834C97.8652 16.8301 98.0671 17.6406 98.4707 18.2656C98.8743 18.8906 99.4766 19.2031 100.277 19.2031Z" fill="black"/>
</svg>
