<svg width="71" height="43" viewBox="0 0 71 43" fill="none" xmlns="http://www.w3.org/2000/svg">
<path d="M13.0801 16.3516C12.9954 17.3021 12.7285 18.1419 12.2793 18.8711C11.8366 19.6003 11.2116 20.1699 10.4043 20.5801C9.59701 20.9902 8.62695 21.1953 7.49414 21.1953C6.32878 21.1953 5.31315 20.9219 4.44727 20.375C3.58138 19.8216 2.91406 19.0371 2.44531 18.0215C1.97656 17.0059 1.74219 15.8177 1.74219 14.457V13.334C1.74219 11.9733 1.97982 10.7852 2.45508 9.76953C2.93685 8.75391 3.61719 7.9694 4.49609 7.41602C5.38151 6.86263 6.41341 6.58594 7.5918 6.58594C8.70508 6.58594 9.6556 6.79427 10.4434 7.21094C11.2311 7.62109 11.8431 8.19727 12.2793 8.93945C12.722 9.67513 12.9922 10.528 13.0898 11.498H10.5703C10.4596 10.5475 10.1764 9.83464 9.7207 9.35938C9.27148 8.8776 8.56185 8.63672 7.5918 8.63672C6.50456 8.63672 5.68099 9.04036 5.12109 9.84766C4.56771 10.6484 4.29102 11.804 4.29102 13.3145V14.457C4.29102 15.9414 4.54818 17.0938 5.0625 17.9141C5.58333 18.7344 6.39388 19.1445 7.49414 19.1445C8.17122 19.1445 8.72135 19.0404 9.14453 18.832C9.57422 18.6172 9.89648 18.3079 10.1113 17.9043C10.3327 17.4941 10.4824 16.9766 10.5605 16.3516H13.0801ZM14.5938 15.6191C14.5938 14.5905 14.7891 13.6693 15.1797 12.8555C15.5768 12.0417 16.1465 11.4036 16.8887 10.9414C17.6309 10.4727 18.5033 10.2383 19.5059 10.2383C20.5215 10.2383 21.4004 10.4727 22.1426 10.9414C22.8913 11.4036 23.4609 12.0417 23.8516 12.8555C24.2487 13.6693 24.4473 14.5905 24.4473 15.6191V15.8242C24.4473 16.8529 24.2487 17.7741 23.8516 18.5879C23.4609 19.4017 22.8945 20.0397 22.1523 20.502C21.4102 20.9642 20.5345 21.1953 19.5254 21.1953C18.5163 21.1953 17.6374 20.9642 16.8887 20.502C16.1465 20.0397 15.5768 19.4017 15.1797 18.5879C14.7891 17.7741 14.5938 16.8529 14.5938 15.8242V15.6191ZM17.0254 15.8242C17.0254 16.8268 17.2337 17.6471 17.6504 18.2852C18.0671 18.9232 18.6921 19.2422 19.5254 19.2422C20.0788 19.2422 20.541 19.0924 20.9121 18.793C21.2897 18.487 21.5664 18.0768 21.7422 17.5625C21.9245 17.0482 22.0156 16.4688 22.0156 15.8242V15.6191C22.0156 14.9811 21.9245 14.4049 21.7422 13.8906C21.5664 13.3698 21.2897 12.9564 20.9121 12.6504C20.5345 12.3444 20.0658 12.1914 19.5059 12.1914C18.9525 12.1914 18.4902 12.3444 18.1191 12.6504C17.748 12.9564 17.4714 13.3698 17.2891 13.8906C17.1133 14.4049 17.0254 14.9811 17.0254 15.6191V15.8242ZM31.8203 10.2383C32.8945 10.2383 33.7214 10.5508 34.3008 11.1758C34.8867 11.7943 35.1797 12.7969 35.1797 14.1836V21H32.748V14.1641C32.748 13.4609 32.5951 12.9629 32.2891 12.6699C31.9896 12.3704 31.5273 12.2207 30.9023 12.2207C30.4466 12.2207 30.0397 12.3314 29.6816 12.5527C29.3236 12.7741 29.0371 13.0833 28.8223 13.4805V21H26.3906V10.4336H28.6758L28.7539 11.6543C29.1315 11.1986 29.5807 10.8503 30.1016 10.6094C30.6224 10.362 31.1953 10.2383 31.8203 10.2383ZM41.6738 19.1836C41.9342 19.1836 42.2109 19.151 42.5039 19.0859V20.9609C42.0352 21.1172 41.5078 21.1953 40.9219 21.1953C40.0625 21.1953 39.3854 20.9577 38.8906 20.4824C38.3958 20.0072 38.1484 19.2487 38.1484 18.207V12.2305H36.4297V10.4336H38.1484V7.85547H40.5801V10.4336H42.4355V12.2305H40.5801V18.041C40.5801 18.4837 40.6712 18.7865 40.8535 18.9492C41.0358 19.1055 41.3092 19.1836 41.6738 19.1836ZM52.6016 18.5391C52.6016 19.5026 52.735 20.2676 53.002 20.834V21H50.5215C50.4173 20.7721 50.3262 20.4434 50.248 20.0137C49.916 20.3717 49.5189 20.6582 49.0566 20.873C48.5944 21.0879 48.0703 21.1953 47.4844 21.1953C46.7943 21.1953 46.1758 21.0586 45.6289 20.7852C45.082 20.5117 44.6556 20.1341 44.3496 19.6523C44.0436 19.1706 43.8906 18.6302 43.8906 18.0312C43.8906 16.9049 44.3073 16.0423 45.1406 15.4434C45.9805 14.8444 47.1686 14.5449 48.7051 14.5449H50.1699V13.8613C50.1699 13.3014 50.0169 12.8652 49.7109 12.5527C49.4049 12.2337 48.9525 12.0742 48.3535 12.0742C47.9954 12.0742 47.6797 12.1361 47.4062 12.2598C47.1328 12.3835 46.9212 12.5527 46.7715 12.7676C46.6217 12.9824 46.5469 13.2233 46.5469 13.4902H44.1152C44.1152 12.9238 44.2943 12.3932 44.6523 11.8984C45.0169 11.3971 45.5312 10.9967 46.1953 10.6973C46.8659 10.3913 47.6309 10.2383 48.4902 10.2383C49.2975 10.2383 50.0104 10.375 50.6289 10.6484C51.2474 10.9219 51.7292 11.332 52.0742 11.8789C52.4258 12.4258 52.6016 13.0931 52.6016 13.8809V18.5391ZM47.9531 19.252C48.4609 19.252 48.9102 19.1315 49.3008 18.8906C49.6979 18.6497 49.9876 18.36 50.1699 18.0215V16.0488H48.9004C48.054 16.0488 47.4128 16.2018 46.9766 16.5078C46.5404 16.8138 46.3223 17.2435 46.3223 17.7969C46.3223 18.2266 46.4655 18.5781 46.752 18.8516C47.0384 19.1185 47.4388 19.252 47.9531 19.252ZM63.7539 17.4844C63.7344 18.1615 63.5293 18.7832 63.1387 19.3496C62.748 19.916 62.2272 20.3652 61.5762 20.6973C60.9251 21.0293 60.2122 21.1953 59.4375 21.1953C58.3893 21.1953 57.5007 20.9609 56.7715 20.4922C56.0488 20.0234 55.5085 19.3887 55.1504 18.5879C54.7923 17.7806 54.6133 16.8789 54.6133 15.8828V15.5508C54.6133 14.5547 54.7923 13.6562 55.1504 12.8555C55.515 12.0482 56.0586 11.4102 56.7812 10.9414C57.5039 10.4727 58.3861 10.2383 59.4277 10.2383C60.2676 10.2383 61.0098 10.4076 61.6543 10.7461C62.3053 11.0781 62.8132 11.5469 63.1777 12.1523C63.5423 12.7578 63.7344 13.4512 63.7539 14.2324H61.459C61.4395 13.8548 61.3451 13.513 61.1758 13.207C61.0065 12.8945 60.7689 12.6471 60.4629 12.4648C60.1634 12.2826 59.8086 12.1914 59.3984 12.1914C58.5326 12.1914 57.9238 12.5072 57.5723 13.1387C57.2207 13.7702 57.0449 14.5742 57.0449 15.5508V15.8828C57.0449 18.1224 57.8327 19.2422 59.4082 19.2422C59.7793 19.2422 60.1178 19.1673 60.4238 19.0176C60.7298 18.8678 60.974 18.6595 61.1562 18.3926C61.3385 18.1257 61.4395 17.8229 61.459 17.4844H63.7539ZM69.6426 19.1836C69.903 19.1836 70.1797 19.151 70.4727 19.0859V20.9609C70.0039 21.1172 69.4766 21.1953 68.8906 21.1953C68.0312 21.1953 67.3542 20.9577 66.8594 20.4824C66.3646 20.0072 66.1172 19.2487 66.1172 18.207V12.2305H64.3984V10.4336H66.1172V7.85547H68.5488V10.4336H70.4043V12.2305H68.5488V18.041C68.5488 18.4837 68.64 18.7865 68.8223 18.9492C69.0046 19.1055 69.278 19.1836 69.6426 19.1836Z" fill="black"/>
</svg>
