<svg width="374" height="85" viewBox="0 0 374 85" fill="none" xmlns="http://www.w3.org/2000/svg">
<path d="M16.2246 20.8047C16.1484 22.0573 15.8057 23.1702 15.1963 24.1436C14.5869 25.1169 13.7363 25.8786 12.6445 26.4287C11.5612 26.9788 10.2578 27.2539 8.73438 27.2539C7.14323 27.2539 5.77214 26.8942 4.62109 26.1748C3.47005 25.4469 2.58561 24.4144 1.96777 23.0771C1.34993 21.7399 1.04102 20.1572 1.04102 18.3291V17.1992C1.04102 15.3626 1.3584 13.7757 1.99316 12.4385C2.63639 11.1012 3.53353 10.0687 4.68457 9.34082C5.83561 8.61296 7.19401 8.24902 8.75977 8.24902C10.3171 8.24902 11.6289 8.53678 12.6953 9.1123C13.7702 9.67936 14.5996 10.458 15.1836 11.4482C15.776 12.4385 16.1315 13.5684 16.25 14.8379H12.2637C12.1875 13.7546 11.8913 12.9336 11.375 12.375C10.8672 11.8079 9.99544 11.5244 8.75977 11.5244C7.9388 11.5244 7.25749 11.7233 6.71582 12.1211C6.17415 12.5189 5.7679 13.1367 5.49707 13.9746C5.22624 14.804 5.09082 15.8704 5.09082 17.1738V18.3291C5.09082 19.6071 5.20931 20.665 5.44629 21.5029C5.69173 22.3408 6.08105 22.9671 6.61426 23.3818C7.14746 23.7881 7.85417 23.9912 8.73438 23.9912C9.50456 23.9912 10.1393 23.877 10.6387 23.6484C11.138 23.4115 11.5189 23.056 11.7812 22.582C12.0436 22.1081 12.2002 21.5156 12.251 20.8047H16.2246ZM22.2422 27H18.4082V13.2637H22.0137L22.2422 16.4248V27ZM26.2539 16.8691C26.0677 16.8438 25.8477 16.8226 25.5938 16.8057C25.3398 16.7803 25.1113 16.7676 24.9082 16.7676C24.2396 16.7676 23.6895 16.8734 23.2578 17.085C22.8262 17.2881 22.5046 17.5928 22.293 17.999C22.0814 18.4053 21.9671 18.9089 21.9502 19.5098L21.2012 19.1797C21.2012 17.9863 21.3535 16.9242 21.6582 15.9932C21.9629 15.0622 22.4115 14.3343 23.0039 13.8096C23.5964 13.2764 24.3158 13.0098 25.1621 13.0098C25.3568 13.0098 25.5599 13.0225 25.7715 13.0479C25.9915 13.0732 26.1693 13.1156 26.3047 13.1748L26.2539 16.8691ZM34.3916 27.2539C32.9443 27.2539 31.7044 26.9535 30.6719 26.3525C29.6478 25.7516 28.8607 24.9476 28.3105 23.9404C27.7689 22.9333 27.498 21.8203 27.498 20.6016V20.1064C27.498 18.7354 27.7562 17.5166 28.2725 16.4502C28.7972 15.3753 29.542 14.5332 30.5068 13.9238C31.4717 13.3145 32.6227 13.0098 33.96 13.0098C35.2887 13.0098 36.4059 13.2891 37.3115 13.8477C38.2171 14.4062 38.9027 15.1934 39.3682 16.209C39.8337 17.2161 40.0664 18.401 40.0664 19.7637V21.3887H29.1104V18.8115H36.2959V18.5068C36.2959 18.0329 36.2113 17.6139 36.042 17.25C35.8727 16.8861 35.6146 16.6025 35.2676 16.3994C34.929 16.1963 34.4847 16.0947 33.9346 16.0947C33.3083 16.0947 32.8047 16.2725 32.4238 16.6279C32.043 16.9834 31.7637 17.4616 31.5859 18.0625C31.4167 18.6634 31.332 19.3447 31.332 20.1064V20.6016C31.332 21.304 31.4632 21.9219 31.7256 22.4551C31.988 22.9883 32.3646 23.4072 32.8555 23.7119C33.3464 24.0081 33.9388 24.1562 34.6328 24.1562C35.2845 24.1562 35.8939 24.0378 36.4609 23.8008C37.028 23.5553 37.5104 23.1745 37.9082 22.6582L39.7617 24.7783C39.3301 25.3962 38.6615 25.9632 37.7559 26.4795C36.8587 26.9958 35.7373 27.2539 34.3916 27.2539ZM49.4229 17.8467C49.4229 17.2288 49.2705 16.738 48.9658 16.374C48.6611 16.0101 48.1745 15.8281 47.5059 15.8281C47.125 15.8281 46.7949 15.8916 46.5156 16.0186C46.2363 16.1455 46.0247 16.3275 45.8809 16.5645C45.737 16.793 45.665 17.0765 45.665 17.415H41.8311C41.8311 16.6025 42.0723 15.8662 42.5547 15.2061C43.0371 14.5374 43.7184 14.0042 44.5986 13.6064C45.4788 13.2087 46.5156 13.0098 47.709 13.0098C48.7754 13.0098 49.7275 13.1917 50.5654 13.5557C51.4033 13.9111 52.0635 14.4486 52.5459 15.168C53.0283 15.8874 53.2695 16.7887 53.2695 17.8721V23.6104C53.2695 24.4229 53.3161 25.0661 53.4092 25.54C53.5107 26.014 53.6504 26.4287 53.8281 26.7842V27H49.9688C49.7826 26.6107 49.6429 26.124 49.5498 25.54C49.4652 24.9561 49.4229 24.3636 49.4229 23.7627V17.8467ZM49.9434 20.8047H47.9883C47.0573 20.8047 46.3844 21.0078 45.9697 21.4141C45.555 21.8118 45.3477 22.2943 45.3477 22.8613C45.3477 23.293 45.5 23.6484 45.8047 23.9277C46.1094 24.207 46.5199 24.3467 47.0361 24.3467C47.5693 24.3467 48.0264 24.2451 48.4072 24.042C48.7965 23.8304 49.0928 23.5807 49.2959 23.293C49.5075 22.9967 49.609 22.7259 49.6006 22.4805L50.5908 24.1309C50.4554 24.4694 50.2734 24.8206 50.0449 25.1846C49.8249 25.5485 49.5413 25.887 49.1943 26.2002C48.8473 26.5133 48.4242 26.7673 47.9248 26.9619C47.4339 27.1566 46.8542 27.2539 46.1855 27.2539C45.3223 27.2539 44.5352 27.0804 43.8242 26.7334C43.1133 26.3779 42.5505 25.8913 42.1357 25.2734C41.721 24.6471 41.5137 23.932 41.5137 23.1279C41.5137 21.6891 42.0469 20.5762 43.1133 19.7891C44.1797 18.9935 45.7666 18.5957 47.874 18.5957H49.918L49.9434 20.8047ZM62.8799 16.0566H54.7676V13.2637H62.8799V16.0566ZM60.5566 9.87402V22.709C60.5566 23.0814 60.6032 23.3691 60.6963 23.5723C60.7979 23.7754 60.9544 23.915 61.166 23.9912C61.3776 24.0674 61.64 24.1055 61.9531 24.1055C62.1816 24.1055 62.3848 24.097 62.5625 24.0801C62.7402 24.0632 62.8926 24.042 63.0195 24.0166L63.0068 26.9111C62.6937 27.0212 62.3509 27.1058 61.9785 27.165C61.6146 27.2243 61.2041 27.2539 60.7471 27.2539C59.9261 27.2539 59.2109 27.1185 58.6016 26.8477C58.0007 26.5684 57.5352 26.1283 57.2051 25.5273C56.8835 24.918 56.7227 24.1224 56.7227 23.1406V9.87402H60.5566ZM68.8848 27H65.0381V13.2637H68.8848V27ZM64.8096 9.72168C64.8096 9.14616 65.0042 8.67643 65.3936 8.3125C65.7829 7.9401 66.3034 7.75391 66.9551 7.75391C67.6068 7.75391 68.123 7.9401 68.5039 8.3125C68.8932 8.67643 69.0879 9.14616 69.0879 9.72168C69.0879 10.2887 68.8932 10.7585 68.5039 11.1309C68.123 11.5033 67.6068 11.6895 66.9551 11.6895C66.3034 11.6895 65.7829 11.5033 65.3936 11.1309C65.0042 10.7585 64.8096 10.2887 64.8096 9.72168ZM75.5752 27H71.7412V13.2637H75.3467L75.5752 16.1963V27ZM74.001 19.7256C74.001 18.3376 74.2253 17.1442 74.6738 16.1455C75.1224 15.1383 75.7529 14.3639 76.5654 13.8223C77.3779 13.2806 78.3216 13.0098 79.3965 13.0098C80.2598 13.0098 81.013 13.179 81.6562 13.5176C82.3079 13.8561 82.8158 14.4105 83.1797 15.1807C83.5521 15.9424 83.7383 16.9792 83.7383 18.291V27H79.8916V18.2656C79.8916 17.6986 79.807 17.2627 79.6377 16.958C79.4769 16.6449 79.2399 16.429 78.9268 16.3105C78.6136 16.1836 78.2285 16.1201 77.7715 16.1201C77.306 16.1201 76.8997 16.209 76.5527 16.3867C76.2142 16.556 75.9307 16.8014 75.7021 17.123C75.4821 17.4447 75.3171 17.8255 75.207 18.2656C75.097 18.6973 75.042 19.167 75.042 19.6748L74.001 19.7256ZM98.5791 13.2637V26.5049C98.5791 27.766 98.2956 28.8366 97.7285 29.7168C97.1699 30.597 96.387 31.2656 95.3799 31.7227C94.3727 32.1797 93.2048 32.4082 91.876 32.4082C91.3089 32.4082 90.7038 32.332 90.0605 32.1797C89.4173 32.0273 88.7995 31.7946 88.207 31.4814C87.623 31.1683 87.1364 30.7705 86.7471 30.2881L88.4229 27.9395C88.8291 28.3965 89.3115 28.7562 89.8701 29.0186C90.4287 29.2894 91.0423 29.4248 91.7109 29.4248C92.6673 29.4248 93.4079 29.1709 93.9326 28.6631C94.4658 28.1637 94.7324 27.4443 94.7324 26.5049V16.4756L95.1006 13.2637H98.5791ZM85.8838 20.0303C85.8838 18.6338 86.1081 17.4108 86.5566 16.3613C87.0137 15.3034 87.6611 14.4824 88.499 13.8984C89.3369 13.306 90.3314 13.0098 91.4824 13.0098C92.4049 13.0098 93.1751 13.1875 93.793 13.543C94.4193 13.89 94.9271 14.3809 95.3164 15.0156C95.7057 15.6504 96.0104 16.3994 96.2305 17.2627C96.4505 18.1175 96.6283 19.0485 96.7637 20.0557V20.373C96.5859 21.651 96.2982 22.8105 95.9004 23.8516C95.5026 24.8926 94.944 25.722 94.2246 26.3398C93.5052 26.9492 92.5827 27.2539 91.457 27.2539C90.3145 27.2539 89.3242 26.9535 88.4863 26.3525C87.6569 25.7432 87.0137 24.9137 86.5566 23.8643C86.1081 22.8148 85.8838 21.6257 85.8838 20.2969V20.0303ZM89.7305 20.2969C89.7305 21.0078 89.8278 21.6553 90.0225 22.2393C90.2171 22.8232 90.5133 23.2887 90.9111 23.6357C91.3089 23.9743 91.8167 24.1436 92.4346 24.1436C93.0863 24.1436 93.611 24.0081 94.0088 23.7373C94.415 23.458 94.7197 23.0729 94.9229 22.582C95.1344 22.0911 95.2529 21.5241 95.2783 20.8809V19.5605C95.2614 19.0104 95.1937 18.5238 95.0752 18.1006C94.9567 17.6689 94.7832 17.3092 94.5547 17.0215C94.3262 16.7253 94.0384 16.501 93.6914 16.3486C93.3529 16.1963 92.9424 16.1201 92.46 16.1201C91.8506 16.1201 91.3428 16.2936 90.9365 16.6406C90.5303 16.9792 90.2256 17.4447 90.0225 18.0371C89.8278 18.6211 89.7305 19.2855 89.7305 20.0303V20.2969ZM111.643 32.2812H107.809V13.2637H111.363L111.643 15.9043V32.2812ZM120.275 20.2461C120.275 21.5749 120.068 22.7682 119.653 23.8262C119.247 24.8841 118.646 25.722 117.851 26.3398C117.063 26.9492 116.09 27.2539 114.931 27.2539C113.805 27.2539 112.878 26.9492 112.15 26.3398C111.431 25.722 110.872 24.8926 110.475 23.8516C110.077 22.8105 109.789 21.6595 109.611 20.3984V20.0049C109.781 18.6592 110.064 17.4616 110.462 16.4121C110.868 15.3542 111.431 14.5247 112.15 13.9238C112.878 13.3145 113.801 13.0098 114.918 13.0098C116.077 13.0098 117.055 13.3018 117.851 13.8857C118.646 14.4613 119.247 15.2738 119.653 16.3232C120.068 17.3643 120.275 18.583 120.275 19.9795V20.2461ZM116.441 19.9795C116.441 19.2347 116.357 18.5745 116.188 17.999C116.027 17.415 115.76 16.958 115.388 16.6279C115.015 16.2894 114.52 16.1201 113.902 16.1201C113.428 16.1201 113.022 16.1963 112.684 16.3486C112.354 16.4925 112.078 16.7083 111.858 16.9961C111.647 17.2839 111.486 17.6393 111.376 18.0625C111.274 18.4772 111.215 18.9596 111.198 19.5098V20.9062C111.232 21.5326 111.338 22.0911 111.516 22.582C111.702 23.0729 111.99 23.4622 112.379 23.75C112.768 24.0293 113.285 24.1689 113.928 24.1689C114.554 24.1689 115.049 23.9912 115.413 23.6357C115.777 23.2803 116.039 22.8063 116.2 22.2139C116.361 21.613 116.441 20.957 116.441 20.2461V19.9795ZM126.496 27H122.649V13.2637H126.496V27ZM122.421 9.72168C122.421 9.14616 122.616 8.67643 123.005 8.3125C123.394 7.9401 123.915 7.75391 124.566 7.75391C125.218 7.75391 125.734 7.9401 126.115 8.3125C126.505 8.67643 126.699 9.14616 126.699 9.72168C126.699 10.2887 126.505 10.7585 126.115 11.1309C125.734 11.5033 125.218 11.6895 124.566 11.6895C123.915 11.6895 123.394 11.5033 123.005 11.1309C122.616 10.7585 122.421 10.2887 122.421 9.72168ZM134.748 17.2373L136.957 13.2637H141.032L137.198 19.9795L141.197 27H137.109L134.748 22.7852L132.425 27H128.312L132.323 19.9795L128.489 13.2637H132.59L134.748 17.2373ZM149.132 27.2539C147.685 27.2539 146.445 26.9535 145.412 26.3525C144.388 25.7516 143.601 24.9476 143.051 23.9404C142.509 22.9333 142.238 21.8203 142.238 20.6016V20.1064C142.238 18.7354 142.496 17.5166 143.013 16.4502C143.537 15.3753 144.282 14.5332 145.247 13.9238C146.212 13.3145 147.363 13.0098 148.7 13.0098C150.029 13.0098 151.146 13.2891 152.052 13.8477C152.957 14.4062 153.643 15.1934 154.108 16.209C154.574 17.2161 154.807 18.401 154.807 19.7637V21.3887H143.851V18.8115H151.036V18.5068C151.036 18.0329 150.951 17.6139 150.782 17.25C150.613 16.8861 150.355 16.6025 150.008 16.3994C149.669 16.1963 149.225 16.0947 148.675 16.0947C148.049 16.0947 147.545 16.2725 147.164 16.6279C146.783 16.9834 146.504 17.4616 146.326 18.0625C146.157 18.6634 146.072 19.3447 146.072 20.1064V20.6016C146.072 21.304 146.203 21.9219 146.466 22.4551C146.728 22.9883 147.105 23.4072 147.596 23.7119C148.087 24.0081 148.679 24.1562 149.373 24.1562C150.025 24.1562 150.634 24.0378 151.201 23.8008C151.768 23.5553 152.251 23.1745 152.648 22.6582L154.502 24.7783C154.07 25.3962 153.402 25.9632 152.496 26.4795C151.599 26.9958 150.478 27.2539 149.132 27.2539ZM160.85 27H157.003V7.5H160.85V27ZM174.129 32.2812H170.295V13.2637H173.85L174.129 15.9043V32.2812ZM182.762 20.2461C182.762 21.5749 182.554 22.7682 182.14 23.8262C181.733 24.8841 181.132 25.722 180.337 26.3398C179.55 26.9492 178.576 27.2539 177.417 27.2539C176.291 27.2539 175.365 26.9492 174.637 26.3398C173.917 25.722 173.359 24.8926 172.961 23.8516C172.563 22.8105 172.275 21.6595 172.098 20.3984V20.0049C172.267 18.6592 172.55 17.4616 172.948 16.4121C173.354 15.3542 173.917 14.5247 174.637 13.9238C175.365 13.3145 176.287 13.0098 177.404 13.0098C178.564 13.0098 179.541 13.3018 180.337 13.8857C181.132 14.4613 181.733 15.2738 182.14 16.3232C182.554 17.3643 182.762 18.583 182.762 19.9795V20.2461ZM178.928 19.9795C178.928 19.2347 178.843 18.5745 178.674 17.999C178.513 17.415 178.246 16.958 177.874 16.6279C177.502 16.2894 177.007 16.1201 176.389 16.1201C175.915 16.1201 175.508 16.1963 175.17 16.3486C174.84 16.4925 174.565 16.7083 174.345 16.9961C174.133 17.2839 173.972 17.6393 173.862 18.0625C173.761 18.4772 173.701 18.9596 173.685 19.5098V20.9062C173.718 21.5326 173.824 22.0911 174.002 22.582C174.188 23.0729 174.476 23.4622 174.865 23.75C175.255 24.0293 175.771 24.1689 176.414 24.1689C177.04 24.1689 177.535 23.9912 177.899 23.6357C178.263 23.2803 178.526 22.8063 178.687 22.2139C178.847 21.613 178.928 20.957 178.928 20.2461V19.9795ZM191.356 27.2539C189.909 27.2539 188.669 26.9535 187.637 26.3525C186.613 25.7516 185.826 24.9476 185.275 23.9404C184.734 22.9333 184.463 21.8203 184.463 20.6016V20.1064C184.463 18.7354 184.721 17.5166 185.237 16.4502C185.762 15.3753 186.507 14.5332 187.472 13.9238C188.437 13.3145 189.588 13.0098 190.925 13.0098C192.254 13.0098 193.371 13.2891 194.276 13.8477C195.182 14.4062 195.868 15.1934 196.333 16.209C196.799 17.2161 197.031 18.401 197.031 19.7637V21.3887H186.075V18.8115H193.261V18.5068C193.261 18.0329 193.176 17.6139 193.007 17.25C192.838 16.8861 192.579 16.6025 192.232 16.3994C191.894 16.1963 191.45 16.0947 190.899 16.0947C190.273 16.0947 189.77 16.2725 189.389 16.6279C189.008 16.9834 188.729 17.4616 188.551 18.0625C188.382 18.6634 188.297 19.3447 188.297 20.1064V20.6016C188.297 21.304 188.428 21.9219 188.69 22.4551C188.953 22.9883 189.329 23.4072 189.82 23.7119C190.311 24.0081 190.904 24.1562 191.598 24.1562C192.249 24.1562 192.859 24.0378 193.426 23.8008C193.993 23.5553 194.475 23.1745 194.873 22.6582L196.727 24.7783C196.295 25.3962 195.626 25.9632 194.721 26.4795C193.824 26.9958 192.702 27.2539 191.356 27.2539ZM202.871 27H199.037V13.2637H202.643L202.871 16.4248V27ZM206.883 16.8691C206.697 16.8438 206.477 16.8226 206.223 16.8057C205.969 16.7803 205.74 16.7676 205.537 16.7676C204.868 16.7676 204.318 16.8734 203.887 17.085C203.455 17.2881 203.133 17.5928 202.922 17.999C202.71 18.4053 202.596 18.9089 202.579 19.5098L201.83 19.1797C201.83 17.9863 201.982 16.9242 202.287 15.9932C202.592 15.0622 203.04 14.3343 203.633 13.8096C204.225 13.2764 204.945 13.0098 205.791 13.0098C205.986 13.0098 206.189 13.0225 206.4 13.0479C206.62 13.0732 206.798 13.1156 206.934 13.1748L206.883 16.8691ZM209.942 27V12.0957C209.942 10.5215 210.399 9.31966 211.313 8.49023C212.236 7.65234 213.48 7.2334 215.046 7.2334C215.393 7.2334 215.723 7.25879 216.036 7.30957C216.358 7.35189 216.667 7.41113 216.963 7.4873L216.938 10.4453C216.777 10.4115 216.603 10.3861 216.417 10.3691C216.239 10.3522 216.04 10.3438 215.82 10.3438C215.177 10.3438 214.678 10.4961 214.322 10.8008C213.967 11.097 213.789 11.5286 213.789 12.0957V27H209.942ZM216.493 16.0566H207.924V13.2637H216.493V16.0566ZM224.745 27.2539C223.298 27.2539 222.058 26.9535 221.025 26.3525C220.001 25.7516 219.214 24.9476 218.664 23.9404C218.122 22.9333 217.852 21.8203 217.852 20.6016V20.1064C217.852 18.7354 218.11 17.5166 218.626 16.4502C219.151 15.3753 219.896 14.5332 220.86 13.9238C221.825 13.3145 222.976 13.0098 224.313 13.0098C225.642 13.0098 226.759 13.2891 227.665 13.8477C228.571 14.4062 229.256 15.1934 229.722 16.209C230.187 17.2161 230.42 18.401 230.42 19.7637V21.3887H219.464V18.8115H226.649V18.5068C226.649 18.0329 226.565 17.6139 226.396 17.25C226.226 16.8861 225.968 16.6025 225.621 16.3994C225.283 16.1963 224.838 16.0947 224.288 16.0947C223.662 16.0947 223.158 16.2725 222.777 16.6279C222.396 16.9834 222.117 17.4616 221.939 18.0625C221.77 18.6634 221.686 19.3447 221.686 20.1064V20.6016C221.686 21.304 221.817 21.9219 222.079 22.4551C222.341 22.9883 222.718 23.4072 223.209 23.7119C223.7 24.0081 224.292 24.1562 224.986 24.1562C225.638 24.1562 226.247 24.0378 226.814 23.8008C227.382 23.5553 227.864 23.1745 228.262 22.6582L230.115 24.7783C229.684 25.3962 229.015 25.9632 228.109 26.4795C227.212 26.9958 226.091 27.2539 224.745 27.2539ZM238.164 24.1689C238.596 24.1689 238.977 24.0885 239.307 23.9277C239.637 23.7669 239.891 23.5384 240.068 23.2422C240.255 22.946 240.352 22.5947 240.36 22.1885H243.966C243.957 23.1787 243.699 24.0547 243.191 24.8164C242.684 25.5781 241.998 26.1748 241.135 26.6064C240.271 27.0381 239.302 27.2539 238.228 27.2539C236.806 27.2539 235.621 26.945 234.673 26.3271C233.733 25.7093 233.027 24.8757 232.553 23.8262C232.087 22.7767 231.854 21.6045 231.854 20.3096V19.9668C231.854 18.6634 232.087 17.487 232.553 16.4375C233.027 15.388 233.733 14.5544 234.673 13.9365C235.621 13.3187 236.801 13.0098 238.215 13.0098C239.349 13.0098 240.343 13.2298 241.198 13.6699C242.062 14.1016 242.734 14.7236 243.217 15.5361C243.708 16.3402 243.957 17.305 243.966 18.4307H240.36C240.352 17.999 240.263 17.6097 240.094 17.2627C239.933 16.9072 239.688 16.6237 239.357 16.4121C239.027 16.2005 238.621 16.0947 238.139 16.0947C237.462 16.0947 236.945 16.2767 236.59 16.6406C236.243 17.0046 236.006 17.4827 235.879 18.0752C235.752 18.6592 235.688 19.2897 235.688 19.9668V20.3096C235.688 20.9951 235.748 21.6341 235.866 22.2266C235.993 22.8105 236.234 23.2803 236.59 23.6357C236.954 23.9912 237.479 24.1689 238.164 24.1689ZM252.878 16.0566H244.766V13.2637H252.878V16.0566ZM250.555 9.87402V22.709C250.555 23.0814 250.601 23.3691 250.694 23.5723C250.796 23.7754 250.952 23.915 251.164 23.9912C251.376 24.0674 251.638 24.1055 251.951 24.1055C252.18 24.1055 252.383 24.097 252.561 24.0801C252.738 24.0632 252.891 24.042 253.018 24.0166L253.005 26.9111C252.692 27.0212 252.349 27.1058 251.977 27.165C251.613 27.2243 251.202 27.2539 250.745 27.2539C249.924 27.2539 249.209 27.1185 248.6 26.8477C247.999 26.5684 247.533 26.1283 247.203 25.5273C246.882 24.918 246.721 24.1224 246.721 23.1406V9.87402H250.555ZM265.383 27H261.536V13.2637H265.383V27ZM261.308 9.72168C261.308 9.14616 261.502 8.67643 261.892 8.3125C262.281 7.9401 262.801 7.75391 263.453 7.75391C264.105 7.75391 264.621 7.9401 265.002 8.3125C265.391 8.67643 265.586 9.14616 265.586 9.72168C265.586 10.2887 265.391 10.7585 265.002 11.1309C264.621 11.5033 264.105 11.6895 263.453 11.6895C262.801 11.6895 262.281 11.5033 261.892 11.1309C261.502 10.7585 261.308 10.2887 261.308 9.72168ZM274.066 24.1689C274.498 24.1689 274.879 24.0885 275.209 23.9277C275.539 23.7669 275.793 23.5384 275.971 23.2422C276.157 22.946 276.254 22.5947 276.263 22.1885H279.868C279.86 23.1787 279.602 24.0547 279.094 24.8164C278.586 25.5781 277.9 26.1748 277.037 26.6064C276.174 27.0381 275.205 27.2539 274.13 27.2539C272.708 27.2539 271.523 26.945 270.575 26.3271C269.636 25.7093 268.929 24.8757 268.455 23.8262C267.99 22.7767 267.757 21.6045 267.757 20.3096V19.9668C267.757 18.6634 267.99 17.487 268.455 16.4375C268.929 15.388 269.636 14.5544 270.575 13.9365C271.523 13.3187 272.704 13.0098 274.117 13.0098C275.251 13.0098 276.246 13.2298 277.101 13.6699C277.964 14.1016 278.637 14.7236 279.119 15.5361C279.61 16.3402 279.86 17.305 279.868 18.4307H276.263C276.254 17.999 276.165 17.6097 275.996 17.2627C275.835 16.9072 275.59 16.6237 275.26 16.4121C274.93 16.2005 274.523 16.0947 274.041 16.0947C273.364 16.0947 272.848 16.2767 272.492 16.6406C272.145 17.0046 271.908 17.4827 271.781 18.0752C271.654 18.6592 271.591 19.2897 271.591 19.9668V20.3096C271.591 20.9951 271.65 21.6341 271.769 22.2266C271.896 22.8105 272.137 23.2803 272.492 23.6357C272.856 23.9912 273.381 24.1689 274.066 24.1689ZM281.341 20.0049C281.341 18.6676 281.595 17.4743 282.103 16.4248C282.61 15.3669 283.351 14.5332 284.324 13.9238C285.298 13.3145 286.478 13.0098 287.866 13.0098C289.271 13.0098 290.46 13.3145 291.434 13.9238C292.415 14.5332 293.156 15.3669 293.655 16.4248C294.163 17.4743 294.417 18.6676 294.417 20.0049V20.2715C294.417 21.6003 294.163 22.7936 293.655 23.8516C293.156 24.9095 292.42 25.7432 291.446 26.3525C290.473 26.9535 289.288 27.2539 287.892 27.2539C286.495 27.2539 285.306 26.9535 284.324 26.3525C283.351 25.7432 282.61 24.9095 282.103 23.8516C281.595 22.7936 281.341 21.6003 281.341 20.2715V20.0049ZM285.188 20.2715C285.188 20.9909 285.272 21.6468 285.441 22.2393C285.619 22.8317 285.903 23.3014 286.292 23.6484C286.69 23.9954 287.223 24.1689 287.892 24.1689C288.552 24.1689 289.076 23.9954 289.466 23.6484C289.864 23.3014 290.147 22.8317 290.316 22.2393C290.494 21.6468 290.583 20.9909 290.583 20.2715V20.0049C290.583 19.3024 290.494 18.6549 290.316 18.0625C290.147 17.4616 289.864 16.9834 289.466 16.6279C289.076 16.2725 288.543 16.0947 287.866 16.0947C287.206 16.0947 286.677 16.2725 286.279 16.6279C285.89 16.9834 285.611 17.4616 285.441 18.0625C285.272 18.6549 285.188 19.3024 285.188 20.0049V20.2715ZM300.358 27H296.524V13.2637H300.13L300.358 16.1963V27ZM298.784 19.7256C298.784 18.3376 299.008 17.1442 299.457 16.1455C299.906 15.1383 300.536 14.3639 301.349 13.8223C302.161 13.2806 303.105 13.0098 304.18 13.0098C305.043 13.0098 305.796 13.179 306.439 13.5176C307.091 13.8561 307.599 14.4105 307.963 15.1807C308.335 15.9424 308.521 16.9792 308.521 18.291V27H304.675V18.2656C304.675 17.6986 304.59 17.2627 304.421 16.958C304.26 16.6449 304.023 16.429 303.71 16.3105C303.397 16.1836 303.012 16.1201 302.555 16.1201C302.089 16.1201 301.683 16.209 301.336 16.3867C300.997 16.556 300.714 16.8014 300.485 17.123C300.265 17.4447 300.1 17.8255 299.99 18.2656C299.88 18.6973 299.825 19.167 299.825 19.6748L298.784 19.7256ZM318.576 23.166C318.576 22.9121 318.5 22.6921 318.348 22.5059C318.204 22.3197 317.933 22.1462 317.535 21.9854C317.137 21.8245 316.562 21.6637 315.809 21.5029C314.886 21.2998 314.052 21.0247 313.308 20.6777C312.571 20.3307 311.992 19.8822 311.568 19.332C311.145 18.7734 310.934 18.1006 310.934 17.3135C310.934 16.5433 311.154 15.8324 311.594 15.1807C312.034 14.529 312.664 14.0042 313.485 13.6064C314.315 13.2087 315.305 13.0098 316.456 13.0098C317.658 13.0098 318.695 13.2002 319.566 13.5811C320.438 13.9619 321.107 14.4867 321.572 15.1553C322.038 15.8239 322.271 16.5898 322.271 17.4531H318.437C318.437 16.9368 318.276 16.5179 317.954 16.1963C317.641 15.8662 317.137 15.7012 316.443 15.7012C316.071 15.7012 315.745 15.7646 315.466 15.8916C315.187 16.0186 314.971 16.1878 314.818 16.3994C314.674 16.6025 314.603 16.8438 314.603 17.123C314.603 17.377 314.683 17.6012 314.844 17.7959C315.005 17.9906 315.267 18.1598 315.631 18.3037C315.995 18.4476 316.481 18.5745 317.091 18.6846C318.064 18.8708 318.944 19.1289 319.731 19.459C320.519 19.7806 321.145 20.2249 321.61 20.792C322.076 21.3506 322.309 22.0954 322.309 23.0264C322.309 23.8389 322.067 24.5667 321.585 25.21C321.111 25.8447 320.434 26.3441 319.554 26.708C318.682 27.0719 317.654 27.2539 316.469 27.2539C315.174 27.2539 314.082 27.0212 313.193 26.5557C312.305 26.0902 311.632 25.502 311.175 24.791C310.718 24.0716 310.489 23.3395 310.489 22.5947H314.12C314.146 23.0518 314.268 23.4242 314.488 23.7119C314.717 23.9997 315.009 24.2113 315.364 24.3467C315.728 24.4821 316.126 24.5498 316.558 24.5498C316.998 24.5498 317.366 24.4948 317.662 24.3848C317.967 24.2663 318.195 24.1055 318.348 23.9023C318.5 23.6908 318.576 23.4453 318.576 23.166ZM335.131 27H331.284V13.2637H335.131V27ZM331.056 9.72168C331.056 9.14616 331.25 8.67643 331.64 8.3125C332.029 7.9401 332.549 7.75391 333.201 7.75391C333.853 7.75391 334.369 7.9401 334.75 8.3125C335.139 8.67643 335.334 9.14616 335.334 9.72168C335.334 10.2887 335.139 10.7585 334.75 11.1309C334.369 11.5033 333.853 11.6895 333.201 11.6895C332.549 11.6895 332.029 11.5033 331.64 11.1309C331.25 10.7585 331.056 10.2887 331.056 9.72168ZM341.821 27H337.987V13.2637H341.593L341.821 16.1963V27ZM340.247 19.7256C340.247 18.3376 340.471 17.1442 340.92 16.1455C341.368 15.1383 341.999 14.3639 342.812 13.8223C343.624 13.2806 344.568 13.0098 345.643 13.0098C346.506 13.0098 347.259 13.179 347.902 13.5176C348.554 13.8561 349.062 14.4105 349.426 15.1807C349.798 15.9424 349.984 16.9792 349.984 18.291V27H346.138V18.2656C346.138 17.6986 346.053 17.2627 345.884 16.958C345.723 16.6449 345.486 16.429 345.173 16.3105C344.86 16.1836 344.475 16.1201 344.018 16.1201C343.552 16.1201 343.146 16.209 342.799 16.3867C342.46 16.556 342.177 16.8014 341.948 17.123C341.728 17.4447 341.563 17.8255 341.453 18.2656C341.343 18.6973 341.288 19.167 341.288 19.6748L340.247 19.7256ZM5.58594 65H1.58691V46.5156H5.58594V65ZM12.835 57.5225H4.51953V54.3105H12.835V57.5225ZM13.7109 49.7402H4.51953V46.5156H13.7109V49.7402ZM19.6523 65H15.8057V51.2637H19.6523V65ZM15.5771 47.7217C15.5771 47.1462 15.7718 46.6764 16.1611 46.3125C16.5505 45.9401 17.071 45.7539 17.7227 45.7539C18.3743 45.7539 18.8906 45.9401 19.2715 46.3125C19.6608 46.6764 19.8555 47.1462 19.8555 47.7217C19.8555 48.2887 19.6608 48.7585 19.2715 49.1309C18.8906 49.5033 18.3743 49.6895 17.7227 49.6895C17.071 49.6895 16.5505 49.5033 16.1611 49.1309C15.7718 48.7585 15.5771 48.2887 15.5771 47.7217ZM34.7471 51.2637V64.5049C34.7471 65.766 34.4635 66.8366 33.8965 67.7168C33.3379 68.597 32.555 69.2656 31.5479 69.7227C30.5407 70.1797 29.3727 70.4082 28.0439 70.4082C27.4769 70.4082 26.8717 70.332 26.2285 70.1797C25.5853 70.0273 24.9674 69.7946 24.375 69.4814C23.791 69.1683 23.3044 68.7705 22.915 68.2881L24.5908 65.9395C24.9971 66.3965 25.4795 66.7562 26.0381 67.0186C26.5967 67.2894 27.2103 67.4248 27.8789 67.4248C28.8353 67.4248 29.5758 67.1709 30.1006 66.6631C30.6338 66.1637 30.9004 65.4443 30.9004 64.5049V54.4756L31.2686 51.2637H34.7471ZM22.0518 58.0303C22.0518 56.6338 22.276 55.4108 22.7246 54.3613C23.1816 53.3034 23.8291 52.4824 24.667 51.8984C25.5049 51.306 26.4993 51.0098 27.6504 51.0098C28.5729 51.0098 29.3431 51.1875 29.9609 51.543C30.5872 51.89 31.0951 52.3809 31.4844 53.0156C31.8737 53.6504 32.1784 54.3994 32.3984 55.2627C32.6185 56.1175 32.7962 57.0485 32.9316 58.0557V58.373C32.7539 59.651 32.4661 60.8105 32.0684 61.8516C31.6706 62.8926 31.112 63.722 30.3926 64.3398C29.6732 64.9492 28.7507 65.2539 27.625 65.2539C26.4824 65.2539 25.4922 64.9535 24.6543 64.3525C23.8249 63.7432 23.1816 62.9137 22.7246 61.8643C22.276 60.8148 22.0518 59.6257 22.0518 58.2969V58.0303ZM25.8984 58.2969C25.8984 59.0078 25.9958 59.6553 26.1904 60.2393C26.3851 60.8232 26.6813 61.2887 27.0791 61.6357C27.4769 61.9743 27.9847 62.1436 28.6025 62.1436C29.2542 62.1436 29.779 62.0081 30.1768 61.7373C30.583 61.458 30.8877 61.0729 31.0908 60.582C31.3024 60.0911 31.4209 59.5241 31.4463 58.8809V57.5605C31.4294 57.0104 31.3617 56.5238 31.2432 56.1006C31.1247 55.6689 30.9512 55.3092 30.7227 55.0215C30.4941 54.7253 30.2064 54.501 29.8594 54.3486C29.5208 54.1963 29.1104 54.1201 28.6279 54.1201C28.0186 54.1201 27.5107 54.2936 27.1045 54.6406C26.6982 54.9792 26.3936 55.4447 26.1904 56.0371C25.9958 56.6211 25.8984 57.2855 25.8984 58.0303V58.2969ZM41.3105 65H37.4766V51.2637H41.082L41.3105 54.1328V65ZM39.7236 57.7256C39.7236 56.4222 39.9268 55.2669 40.333 54.2598C40.7393 53.2526 41.3402 52.4613 42.1357 51.8857C42.9398 51.3018 43.9342 51.0098 45.1191 51.0098C46.3379 51.0098 47.3324 51.3864 48.1025 52.1396C48.8727 52.8844 49.2578 54.1159 49.2578 55.834V65H45.4238V56.3037C45.4238 55.7197 45.3434 55.2712 45.1826 54.958C45.0303 54.6364 44.806 54.4163 44.5098 54.2979C44.2135 54.1794 43.8581 54.1201 43.4434 54.1201C42.9948 54.1201 42.6012 54.209 42.2627 54.3867C41.9242 54.556 41.6449 54.8014 41.4248 55.123C41.2048 55.4447 41.0397 55.8255 40.9297 56.2656C40.8281 56.6973 40.7773 57.167 40.7773 57.6748L39.7236 57.7256ZM47.5439 57.5732C47.5355 56.3291 47.7259 55.2119 48.1152 54.2217C48.513 53.2314 49.1055 52.4486 49.8926 51.873C50.6797 51.2975 51.6572 51.0098 52.8252 51.0098C53.7054 51.0098 54.4756 51.179 55.1357 51.5176C55.7959 51.8561 56.3079 52.4105 56.6719 53.1807C57.0358 53.9508 57.2178 54.9834 57.2178 56.2783V65H53.3584V56.2656C53.3584 55.6732 53.278 55.2246 53.1172 54.9199C52.9648 54.6152 52.7406 54.4079 52.4443 54.2979C52.1566 54.1794 51.8096 54.1201 51.4033 54.1201C50.9801 54.1201 50.612 54.2005 50.2988 54.3613C49.9941 54.5221 49.736 54.7549 49.5244 55.0596C49.3213 55.3558 49.1647 55.707 49.0547 56.1133C48.9531 56.5111 48.9023 56.9469 48.9023 57.4209L47.5439 57.5732ZM67.2979 55.8467C67.2979 55.2288 67.1455 54.738 66.8408 54.374C66.5361 54.0101 66.0495 53.8281 65.3809 53.8281C65 53.8281 64.6699 53.8916 64.3906 54.0186C64.1113 54.1455 63.8997 54.3275 63.7559 54.5645C63.612 54.793 63.54 55.0765 63.54 55.415H59.7061C59.7061 54.6025 59.9473 53.8662 60.4297 53.2061C60.9121 52.5374 61.5934 52.0042 62.4736 51.6064C63.3538 51.2087 64.3906 51.0098 65.584 51.0098C66.6504 51.0098 67.6025 51.1917 68.4404 51.5557C69.2783 51.9111 69.9385 52.4486 70.4209 53.168C70.9033 53.8874 71.1445 54.7887 71.1445 55.8721V61.6104C71.1445 62.4229 71.1911 63.0661 71.2842 63.54C71.3857 64.014 71.5254 64.4287 71.7031 64.7842V65H67.8438C67.6576 64.6107 67.5179 64.124 67.4248 63.54C67.3402 62.9561 67.2979 62.3636 67.2979 61.7627V55.8467ZM67.8184 58.8047H65.8633C64.9323 58.8047 64.2594 59.0078 63.8447 59.4141C63.43 59.8118 63.2227 60.2943 63.2227 60.8613C63.2227 61.293 63.375 61.6484 63.6797 61.9277C63.9844 62.207 64.3949 62.3467 64.9111 62.3467C65.4443 62.3467 65.9014 62.2451 66.2822 62.042C66.6715 61.8304 66.9678 61.5807 67.1709 61.293C67.3825 60.9967 67.484 60.7259 67.4756 60.4805L68.4658 62.1309C68.3304 62.4694 68.1484 62.8206 67.9199 63.1846C67.6999 63.5485 67.4163 63.887 67.0693 64.2002C66.7223 64.5133 66.2992 64.7673 65.7998 64.9619C65.3089 65.1566 64.7292 65.2539 64.0605 65.2539C63.1973 65.2539 62.4102 65.0804 61.6992 64.7334C60.9883 64.3779 60.4255 63.8913 60.0107 63.2734C59.596 62.6471 59.3887 61.932 59.3887 61.1279C59.3887 59.6891 59.9219 58.5762 60.9883 57.7891C62.0547 56.9935 63.6416 56.5957 65.749 56.5957H67.793L67.8184 58.8047Z" fill="#21243D"/>
</svg>
