<svg width="374" height="34" viewBox="0 0 374 34" fill="none" xmlns="http://www.w3.org/2000/svg">
<path d="M2.5293 21L2.54883 19.4766H5.49805C6.50716 19.4766 7.35026 19.265 8.02734 18.8418C8.70443 18.4121 9.21224 17.8132 9.55078 17.0449C9.89583 16.2702 10.0684 15.362 10.0684 14.3203V13.4414C10.0684 12.3542 9.89583 11.4297 9.55078 10.668C9.21224 9.90625 8.71419 9.32357 8.05664 8.91992C7.39909 8.51628 6.60156 8.31445 5.66406 8.31445H2.4707V6.78125H5.66406C6.91406 6.78125 8.00781 7.05469 8.94531 7.60156C9.88932 8.14193 10.625 8.91341 11.1523 9.91602C11.6797 10.9121 11.9434 12.0938 11.9434 13.4609V14.3203C11.9434 15.694 11.6797 16.8789 11.1523 17.875C10.625 18.8711 9.87956 19.6426 8.91602 20.1895C7.95247 20.7298 6.81315 21 5.49805 21H2.5293ZM3.54492 21H1.65039V6.78125H3.54492V21ZM20.7227 13.7539C20.7227 13.1224 20.5339 12.6211 20.1562 12.25C19.7852 11.8724 19.235 11.6836 18.5059 11.6836C18.0566 11.6836 17.6595 11.7617 17.3145 11.918C16.9759 12.0742 16.7122 12.2793 16.5234 12.5332C16.3346 12.7871 16.2402 13.0638 16.2402 13.3633H14.4141C14.4141 12.8555 14.5866 12.3639 14.9316 11.8887C15.2767 11.4069 15.7617 11.013 16.3867 10.707C17.0182 10.3945 17.7604 10.2383 18.6133 10.2383C19.3815 10.2383 20.0618 10.3685 20.6543 10.6289C21.2467 10.8893 21.709 11.2832 22.041 11.8105C22.3796 12.3314 22.5488 12.9857 22.5488 13.7734V18.6953C22.5488 19.0469 22.5781 19.4212 22.6367 19.8184C22.7018 20.2155 22.7962 20.5573 22.9199 20.8438V21H21.0156C20.9245 20.7917 20.8529 20.515 20.8008 20.1699C20.7487 19.8184 20.7227 19.4928 20.7227 19.1934V13.7539ZM21.0547 15.8633H19.2383C18.2096 15.8633 17.4154 16.026 16.8555 16.3516C16.2956 16.6771 16.0156 17.1654 16.0156 17.8164C16.0156 18.3242 16.1849 18.7539 16.5234 19.1055C16.8685 19.457 17.3698 19.6328 18.0273 19.6328C18.5807 19.6328 19.069 19.5156 19.4922 19.2812C19.9154 19.0469 20.2507 18.7572 20.498 18.4121C20.7454 18.0671 20.8789 17.735 20.8984 17.416L21.6797 18.2852C21.6341 18.5586 21.5104 18.8613 21.3086 19.1934C21.1068 19.5254 20.8366 19.8444 20.498 20.1504C20.166 20.4499 19.7689 20.7005 19.3066 20.9023C18.8509 21.0977 18.3366 21.1953 17.7637 21.1953C17.0475 21.1953 16.4193 21.0586 15.8789 20.7852C15.3451 20.5052 14.9284 20.1276 14.6289 19.6523C14.3359 19.1771 14.1895 18.6497 14.1895 18.0703C14.1895 16.931 14.6191 16.0684 15.4785 15.4824C16.3379 14.89 17.4935 14.5938 18.9453 14.5938H21.0352L21.0547 15.8633ZM31.543 18.1973C31.543 17.9368 31.4844 17.696 31.3672 17.4746C31.2565 17.2467 31.0286 17.0417 30.6836 16.8594C30.3385 16.6706 29.8177 16.5046 29.1211 16.3613C28.3398 16.1986 27.6628 15.9935 27.0898 15.7461C26.5234 15.4922 26.084 15.1699 25.7715 14.7793C25.4655 14.3887 25.3125 13.9036 25.3125 13.3242C25.3125 12.7643 25.472 12.2533 25.791 11.791C26.1165 11.3223 26.5723 10.9479 27.1582 10.668C27.7507 10.3815 28.4408 10.2383 29.2285 10.2383C30.0749 10.2383 30.7975 10.388 31.3965 10.6875C32.002 10.9805 32.4642 11.3776 32.7832 11.8789C33.1022 12.3737 33.2617 12.9238 33.2617 13.5293H31.4355C31.4355 13.0931 31.2435 12.6797 30.8594 12.2891C30.4818 11.8984 29.9382 11.7031 29.2285 11.7031C28.7337 11.7031 28.3301 11.7812 28.0176 11.9375C27.7116 12.0872 27.487 12.2826 27.3438 12.5234C27.207 12.7578 27.1387 13.0052 27.1387 13.2656C27.1387 13.526 27.2038 13.7539 27.334 13.9492C27.4642 14.138 27.7018 14.3073 28.0469 14.457C28.3984 14.6068 28.9062 14.7565 29.5703 14.9062C30.4362 15.1016 31.1491 15.3359 31.709 15.6094C32.2689 15.8828 32.6855 16.2181 32.959 16.6152C33.2324 17.0124 33.3691 17.4974 33.3691 18.0703C33.3691 18.6823 33.1999 19.2259 32.8613 19.7012C32.5228 20.1699 32.0475 20.5378 31.4355 20.8047C30.8236 21.0651 30.1042 21.1953 29.2773 21.1953C28.3464 21.1953 27.5586 21.0293 26.9141 20.6973C26.2695 20.3652 25.7812 19.9388 25.4492 19.418C25.1172 18.8906 24.9512 18.334 24.9512 17.748H26.7773C26.8099 18.2428 26.9531 18.6367 27.207 18.9297C27.4674 19.2161 27.7832 19.4212 28.1543 19.5449C28.5319 19.6686 28.9062 19.7305 29.2773 19.7305C29.7721 19.7305 30.1855 19.6654 30.5176 19.5352C30.8561 19.3984 31.11 19.2161 31.2793 18.9883C31.4551 18.7539 31.543 18.4902 31.543 18.1973ZM37.5488 21H35.7227V6H37.5488V21ZM36.3574 15.2773C36.3704 14.3138 36.556 13.4544 36.9141 12.6992C37.2721 11.9375 37.7702 11.3385 38.4082 10.9023C39.0527 10.4596 39.8014 10.2383 40.6543 10.2383C41.3509 10.2383 41.9499 10.3685 42.4512 10.6289C42.959 10.8828 43.3496 11.2897 43.623 11.8496C43.903 12.4095 44.043 13.1517 44.043 14.0762V21H42.2168V14.0566C42.2168 13.5033 42.1354 13.0573 41.9727 12.7188C41.8164 12.3802 41.582 12.1361 41.2695 11.9863C40.957 11.8301 40.5729 11.752 40.1172 11.752C39.668 11.752 39.2611 11.8464 38.8965 12.0352C38.5319 12.224 38.2161 12.4844 37.9492 12.8164C37.6823 13.1484 37.4772 13.5293 37.334 13.959C37.1908 14.3822 37.1191 14.8314 37.1191 15.3066L36.3574 15.2773ZM48.5645 6V18.9492L48.4082 21H46.7383V6H48.5645ZM55.6934 15.834C55.6934 16.8626 55.5339 17.7806 55.2148 18.5879C54.8958 19.3952 54.4303 20.0332 53.8184 20.502C53.2064 20.9642 52.4642 21.1953 51.5918 21.1953C50.6934 21.1953 49.9447 20.9935 49.3457 20.5898C48.7467 20.1797 48.2812 19.6035 47.9492 18.8613C47.6172 18.1126 47.3991 17.2272 47.2949 16.2051V15.2578C47.3991 14.2227 47.6172 13.3307 47.9492 12.582C48.2812 11.8333 48.7435 11.2572 49.3359 10.8535C49.9349 10.4434 50.6803 10.2383 51.5723 10.2383C52.4577 10.2383 53.2064 10.4629 53.8184 10.9121C54.4303 11.3613 54.8958 11.9928 55.2148 12.8066C55.5339 13.6139 55.6934 14.5547 55.6934 15.6289V15.834ZM53.8672 15.6289C53.8672 14.9258 53.7793 14.2812 53.6035 13.6953C53.4277 13.1029 53.138 12.6309 52.7344 12.2793C52.3372 11.9277 51.7969 11.752 51.1133 11.752C50.6641 11.752 50.2702 11.8301 49.9316 11.9863C49.5996 12.1426 49.3164 12.3542 49.082 12.6211C48.8477 12.8815 48.6556 13.181 48.5059 13.5195C48.3626 13.8516 48.2552 14.1966 48.1836 14.5547V16.9277C48.2878 17.3835 48.457 17.8229 48.6914 18.2461C48.9258 18.6628 49.2415 19.0046 49.6387 19.2715C50.0423 19.5384 50.5404 19.6719 51.1328 19.6719C51.7839 19.6719 52.3079 19.4993 52.7051 19.1543C53.1087 18.8027 53.4017 18.3372 53.584 17.7578C53.7728 17.1784 53.8672 16.5371 53.8672 15.834V15.6289ZM57.5 15.6094C57.5 14.5872 57.6953 13.6725 58.0859 12.8652C58.4766 12.0579 59.0299 11.4199 59.7461 10.9512C60.4622 10.4759 61.3118 10.2383 62.2949 10.2383C63.291 10.2383 64.1504 10.4759 64.873 10.9512C65.5957 11.4199 66.1491 12.0579 66.5332 12.8652C66.9238 13.6725 67.1191 14.5872 67.1191 15.6094V15.834C67.1191 16.8496 66.9238 17.7643 66.5332 18.5781C66.1491 19.3854 65.5957 20.0234 64.873 20.4922C64.1569 20.9609 63.304 21.1953 62.3145 21.1953C61.3249 21.1953 60.4688 20.9609 59.7461 20.4922C59.0299 20.0234 58.4766 19.3854 58.0859 18.5781C57.6953 17.7643 57.5 16.8496 57.5 15.834V15.6094ZM59.3262 15.834C59.3262 16.5306 59.4368 17.1751 59.6582 17.7676C59.8796 18.36 60.2083 18.8353 60.6445 19.1934C61.0872 19.5514 61.6439 19.7305 62.3145 19.7305C62.9785 19.7305 63.5286 19.5514 63.9648 19.1934C64.4076 18.8353 64.7396 18.36 64.9609 17.7676C65.1823 17.1751 65.293 16.5306 65.293 15.834V15.6094C65.293 14.9128 65.1823 14.2682 64.9609 13.6758C64.7396 13.0833 64.4076 12.6081 63.9648 12.25C63.5221 11.8854 62.9655 11.7031 62.2949 11.7031C61.6374 11.7031 61.0872 11.8854 60.6445 12.25C60.2018 12.6081 59.8698 13.0833 59.6484 13.6758C59.4336 14.2682 59.3262 14.9128 59.3262 15.6094V15.834ZM75.625 13.7539C75.625 13.1224 75.4362 12.6211 75.0586 12.25C74.6875 11.8724 74.1374 11.6836 73.4082 11.6836C72.959 11.6836 72.5618 11.7617 72.2168 11.918C71.8783 12.0742 71.6146 12.2793 71.4258 12.5332C71.237 12.7871 71.1426 13.0638 71.1426 13.3633H69.3164C69.3164 12.8555 69.4889 12.3639 69.834 11.8887C70.179 11.4069 70.6641 11.013 71.2891 10.707C71.9206 10.3945 72.6628 10.2383 73.5156 10.2383C74.2839 10.2383 74.9642 10.3685 75.5566 10.6289C76.1491 10.8893 76.6113 11.2832 76.9434 11.8105C77.2819 12.3314 77.4512 12.9857 77.4512 13.7734V18.6953C77.4512 19.0469 77.4805 19.4212 77.5391 19.8184C77.6042 20.2155 77.6986 20.5573 77.8223 20.8438V21H75.918C75.8268 20.7917 75.7552 20.515 75.7031 20.1699C75.651 19.8184 75.625 19.4928 75.625 19.1934V13.7539ZM75.957 15.8633H74.1406C73.112 15.8633 72.3177 16.026 71.7578 16.3516C71.1979 16.6771 70.918 17.1654 70.918 17.8164C70.918 18.3242 71.0872 18.7539 71.4258 19.1055C71.7708 19.457 72.2721 19.6328 72.9297 19.6328C73.4831 19.6328 73.9714 19.5156 74.3945 19.2812C74.8177 19.0469 75.153 18.7572 75.4004 18.4121C75.6478 18.0671 75.7812 17.735 75.8008 17.416L76.582 18.2852C76.5365 18.5586 76.4128 18.8613 76.2109 19.1934C76.0091 19.5254 75.7389 19.8444 75.4004 20.1504C75.0684 20.4499 74.6712 20.7005 74.209 20.9023C73.7533 21.0977 73.2389 21.1953 72.666 21.1953C71.9499 21.1953 71.3216 21.0586 70.7812 20.7852C70.2474 20.5052 69.8307 20.1276 69.5312 19.6523C69.2383 19.1771 69.0918 18.6497 69.0918 18.0703C69.0918 16.931 69.5215 16.0684 70.3809 15.4824C71.2402 14.89 72.3958 14.5938 73.8477 14.5938H75.9375L75.957 15.8633ZM82.1191 21H80.293V10.4336H82.0703L82.1191 12.0938V21ZM85.4102 12.0449C85.2539 12.0124 85.1074 11.9928 84.9707 11.9863C84.8405 11.9733 84.6908 11.9668 84.5215 11.9668C83.9681 11.9668 83.4993 12.0807 83.1152 12.3086C82.7376 12.5365 82.4447 12.8522 82.2363 13.2559C82.028 13.653 81.8978 14.1087 81.8457 14.623L81.3281 14.916C81.3281 14.0632 81.4421 13.2852 81.6699 12.582C81.8978 11.8724 82.2526 11.306 82.7344 10.8828C83.2227 10.4531 83.8477 10.2383 84.6094 10.2383C84.7331 10.2383 84.8796 10.2546 85.0488 10.2871C85.2246 10.3132 85.3451 10.3424 85.4102 10.375V12.0449ZM93.7305 6H95.5566V21H93.8867L93.7305 18.9492V6ZM86.6309 15.6289C86.6309 14.5547 86.8034 13.6139 87.1484 12.8066C87.5 11.9928 87.9883 11.3613 88.6133 10.9121C89.2383 10.4629 89.9707 10.2383 90.8105 10.2383C91.696 10.2383 92.4349 10.4434 93.0273 10.8535C93.6198 11.2572 94.082 11.8333 94.4141 12.582C94.7526 13.3307 94.9707 14.2227 95.0684 15.2578V16.2051C94.9707 17.2272 94.7559 18.1126 94.4238 18.8613C94.0918 19.6035 93.6263 20.1797 93.0273 20.5898C92.4349 20.9935 91.6895 21.1953 90.791 21.1953C89.9642 21.1953 89.2383 20.9642 88.6133 20.502C87.9883 20.0332 87.5 19.3952 87.1484 18.5879C86.8034 17.7806 86.6309 16.8626 86.6309 15.834V15.6289ZM88.457 15.834C88.457 16.5371 88.5514 17.1784 88.7402 17.7578C88.9355 18.3372 89.2383 18.8027 89.6484 19.1543C90.0586 19.4993 90.5892 19.6719 91.2402 19.6719C91.8392 19.6719 92.3307 19.5449 92.7148 19.291C93.1055 19.0371 93.418 18.7018 93.6523 18.2852C93.8867 17.8685 94.069 17.416 94.1992 16.9277V14.5547C94.1211 14.1966 94.0072 13.8516 93.8574 13.5195C93.7142 13.181 93.5254 12.8815 93.291 12.6211C93.0632 12.3542 92.7799 12.1426 92.4414 11.9863C92.1094 11.8301 91.7155 11.752 91.2598 11.752C90.6022 11.752 90.0651 11.9277 89.6484 12.2793C89.2383 12.6309 88.9355 13.1029 88.7402 13.6953C88.5514 14.2812 88.457 14.9258 88.457 15.6289V15.834Z" fill="#8695A4"/>
</svg>
