<svg width="239" height="34" viewBox="0 0 239 34" fill="none" xmlns="http://www.w3.org/2000/svg">
<path d="M2.27637 19L2.29395 17.6289H4.94824C5.85645 17.6289 6.61523 17.4385 7.22461 17.0576C7.83398 16.6709 8.29102 16.1318 8.5957 15.4404C8.90625 14.7432 9.06152 13.9258 9.06152 12.9883V12.1973C9.06152 11.2188 8.90625 10.3867 8.5957 9.70117C8.29102 9.01562 7.84277 8.49121 7.25098 8.12793C6.65918 7.76465 5.94141 7.58301 5.09766 7.58301H2.22363V6.20312H5.09766C6.22266 6.20312 7.20703 6.44922 8.05078 6.94141C8.90039 7.42773 9.5625 8.12207 10.0371 9.02441C10.5117 9.9209 10.749 10.9844 10.749 12.2148V12.9883C10.749 14.2246 10.5117 15.291 10.0371 16.1875C9.5625 17.084 8.8916 17.7783 8.02441 18.2705C7.15723 18.7568 6.13184 19 4.94824 19H2.27637ZM3.19043 19H1.48535V6.20312H3.19043V19ZM16.998 19.1758C16.1133 19.1758 15.3428 18.9795 14.6865 18.5869C14.0361 18.1885 13.5293 17.6436 13.166 16.9521C12.8086 16.2607 12.6299 15.4697 12.6299 14.5791V14.2012C12.6299 13.1699 12.8262 12.291 13.2188 11.5645C13.6172 10.832 14.1328 10.2754 14.7656 9.89453C15.4043 9.50781 16.0781 9.31445 16.7871 9.31445C17.7012 9.31445 18.4453 9.51953 19.0195 9.92969C19.5996 10.334 20.0244 10.8877 20.2939 11.5908C20.5693 12.2881 20.707 13.0791 20.707 13.9639V14.6934H13.6055V13.375H19.0635V13.252C19.04 12.8301 18.9551 12.4199 18.8086 12.0215C18.6621 11.6172 18.4277 11.2861 18.1055 11.0283C17.7832 10.7646 17.3438 10.6328 16.7871 10.6328C16.2949 10.6328 15.8584 10.7734 15.4775 11.0547C15.1025 11.3301 14.8066 11.7344 14.5898 12.2676C14.3789 12.7949 14.2734 13.4395 14.2734 14.2012V14.5791C14.2734 15.1826 14.3848 15.7334 14.6074 16.2314C14.8301 16.7236 15.1523 17.1191 15.5742 17.418C15.9961 17.7109 16.5 17.8574 17.0859 17.8574C17.6602 17.8574 18.1465 17.7402 18.5449 17.5059C18.9434 17.2715 19.292 16.958 19.5908 16.5654L20.584 17.3389C20.2793 17.8076 19.8398 18.2324 19.2656 18.6133C18.6973 18.9883 17.9414 19.1758 16.998 19.1758ZM28.1426 16.4775C28.1426 16.2432 28.0898 16.0264 27.9844 15.8271C27.8848 15.6221 27.6797 15.4375 27.3691 15.2734C27.0586 15.1035 26.5898 14.9541 25.9629 14.8252C25.2598 14.6787 24.6504 14.4941 24.1348 14.2715C23.625 14.043 23.2295 13.7529 22.9482 13.4014C22.6729 13.0498 22.5352 12.6133 22.5352 12.0918C22.5352 11.5879 22.6787 11.1279 22.9658 10.7119C23.2588 10.29 23.6689 9.95312 24.1963 9.70117C24.7295 9.44336 25.3506 9.31445 26.0596 9.31445C26.8213 9.31445 27.4717 9.44922 28.0107 9.71875C28.5557 9.98242 28.9717 10.3398 29.2588 10.791C29.5459 11.2363 29.6895 11.7314 29.6895 12.2764H28.0459C28.0459 11.8838 27.873 11.5117 27.5273 11.1602C27.1875 10.8086 26.6982 10.6328 26.0596 10.6328C25.6143 10.6328 25.251 10.7031 24.9697 10.8438C24.6943 10.9785 24.4922 11.1543 24.3633 11.3711C24.2402 11.582 24.1787 11.8047 24.1787 12.0391C24.1787 12.2734 24.2373 12.4785 24.3545 12.6543C24.4717 12.8242 24.6855 12.9766 24.9961 13.1113C25.3125 13.2461 25.7695 13.3809 26.3672 13.5156C27.1465 13.6914 27.7881 13.9023 28.292 14.1484C28.7959 14.3945 29.1709 14.6963 29.417 15.0537C29.6631 15.4111 29.7861 15.8477 29.7861 16.3633C29.7861 16.9141 29.6338 17.4033 29.3291 17.8311C29.0244 18.2529 28.5967 18.584 28.0459 18.8242C27.4951 19.0586 26.8477 19.1758 26.1035 19.1758C25.2656 19.1758 24.5566 19.0264 23.9766 18.7275C23.3965 18.4287 22.957 18.0449 22.6582 17.5762C22.3594 17.1016 22.21 16.6006 22.21 16.0732H23.8535C23.8828 16.5186 24.0117 16.873 24.2402 17.1367C24.4746 17.3945 24.7588 17.5791 25.0928 17.6904C25.4326 17.8018 25.7695 17.8574 26.1035 17.8574C26.5488 17.8574 26.9209 17.7988 27.2197 17.6816C27.5244 17.5586 27.7529 17.3945 27.9053 17.1895C28.0635 16.9785 28.1426 16.7412 28.1426 16.4775ZM33.6885 19H32.0449V9.49023H33.6885V19ZM31.9219 6.95898C31.9219 6.70117 32.001 6.48145 32.1592 6.2998C32.3232 6.11816 32.5635 6.02734 32.8799 6.02734C33.1963 6.02734 33.4365 6.11816 33.6006 6.2998C33.7705 6.48145 33.8555 6.70117 33.8555 6.95898C33.8555 7.21094 33.7705 7.42773 33.6006 7.60938C33.4365 7.78516 33.1963 7.87305 32.8799 7.87305C32.5635 7.87305 32.3232 7.78516 32.1592 7.60938C32.001 7.42773 31.9219 7.21094 31.9219 6.95898ZM43.9365 9.49023V18.7979C43.9365 19.6357 43.7637 20.3506 43.418 20.9424C43.0781 21.5342 42.6035 21.9824 41.9941 22.2871C41.3906 22.5977 40.6934 22.7529 39.9023 22.7529C39.5742 22.7529 39.1875 22.7002 38.7422 22.5947C38.3027 22.4951 37.8691 22.3223 37.4414 22.0762C37.0195 21.8359 36.665 21.5107 36.3779 21.1006L37.2305 20.1426C37.6289 20.623 38.0449 20.957 38.4785 21.1445C38.918 21.3379 39.3516 21.4346 39.7793 21.4346C40.5469 21.4346 41.1562 21.2148 41.6074 20.7754C42.0645 20.3418 42.293 19.709 42.293 18.877V11.582L42.4424 9.49023H43.9365ZM35.8945 14.166C35.8945 13.1992 36.0469 12.3525 36.3516 11.626C36.6562 10.8936 37.0898 10.3252 37.6523 9.9209C38.2148 9.5166 38.8828 9.31445 39.6562 9.31445C40.2539 9.31445 40.7754 9.41992 41.2207 9.63086C41.6719 9.83594 42.0527 10.1348 42.3633 10.5273C42.6797 10.9199 42.9287 11.3945 43.1104 11.9512C43.2979 12.5078 43.4268 13.1348 43.4971 13.832V14.6846C43.4092 15.6045 43.2129 16.4014 42.9082 17.0752C42.6094 17.7432 42.1904 18.2617 41.6514 18.6309C41.1123 18.9941 40.4414 19.1758 39.6387 19.1758C38.877 19.1758 38.2148 18.9678 37.6523 18.5518C37.0957 18.1299 36.6621 17.5557 36.3516 16.8291C36.0469 16.1025 35.8945 15.2764 35.8945 14.3506V14.166ZM37.5381 14.3506C37.5381 14.9834 37.623 15.5605 37.793 16.082C37.9688 16.6035 38.2412 17.0225 38.6104 17.3389C38.9795 17.6494 39.457 17.8047 40.043 17.8047C40.582 17.8047 41.0244 17.6904 41.3701 17.4619C41.7158 17.2334 41.9941 16.9316 42.2051 16.5566C42.416 16.1816 42.5801 15.7744 42.6973 15.335V13.1992C42.627 12.877 42.5273 12.5664 42.3984 12.2676C42.2695 11.9629 42.0996 11.6934 41.8887 11.459C41.6777 11.2188 41.4199 11.0283 41.1152 10.8877C40.8164 10.7471 40.4648 10.6768 40.0605 10.6768C39.4688 10.6768 38.9854 10.835 38.6104 11.1514C38.2412 11.4678 37.9688 11.8926 37.793 12.4258C37.623 12.9531 37.5381 13.5332 37.5381 14.166V14.3506ZM48.0322 19H46.3887V9.49023H47.9443L48.0322 11.5205V19ZM46.96 13.8496C46.9717 12.9824 47.1387 12.209 47.4609 11.5293C47.7832 10.8438 48.2314 10.3047 48.8057 9.91211C49.3857 9.51367 50.0596 9.31445 50.8271 9.31445C51.4541 9.31445 51.9932 9.43164 52.4443 9.66602C52.9014 9.89453 53.2529 10.2607 53.499 10.7646C53.751 11.2686 53.877 11.9365 53.877 12.7686V19H52.2334V12.751C52.2334 12.2529 52.1602 11.8516 52.0137 11.5469C51.873 11.2422 51.6621 11.0225 51.3809 10.8877C51.0996 10.7471 50.7539 10.6768 50.3438 10.6768C49.9395 10.6768 49.5732 10.7617 49.2451 10.9316C48.917 11.1016 48.6328 11.3359 48.3926 11.6348C48.1523 11.9336 47.9678 12.2764 47.8389 12.6631C47.71 13.0439 47.6455 13.4482 47.6455 13.876L46.96 13.8496ZM57.832 18.376C57.832 18.9092 57.6973 19.4717 57.4277 20.0635C57.1582 20.6553 56.7773 21.1504 56.2852 21.5488L55.3535 20.916C55.541 20.6582 55.6992 20.3975 55.8281 20.1338C55.957 19.8701 56.0537 19.5947 56.1182 19.3076C56.1885 19.0205 56.2236 18.7188 56.2236 18.4023V17.0752H57.832V18.376ZM65.9268 13.9814V12.6104H69.3369C69.999 12.6104 70.5322 12.5049 70.9365 12.2939C71.3467 12.0771 71.6455 11.7812 71.833 11.4062C72.0264 11.0312 72.123 10.6035 72.123 10.123C72.123 9.68359 72.0264 9.27051 71.833 8.88379C71.6455 8.49707 71.3467 8.18359 70.9365 7.94336C70.5322 7.70313 69.999 7.58301 69.3369 7.58301H66.3135V19H64.6084V6.20312H69.3369C70.3037 6.20312 71.1211 6.37012 71.7891 6.7041C72.457 7.03809 72.9639 7.49805 73.3096 8.08398C73.6553 8.66992 73.8281 9.34375 73.8281 10.1055C73.8281 10.9258 73.6553 11.626 73.3096 12.2061C72.9639 12.7861 72.457 13.2285 71.7891 13.5332C71.1211 13.832 70.3037 13.9814 69.3369 13.9814H65.9268ZM81.2285 12.4785C81.2285 11.9102 81.0586 11.459 80.7188 11.125C80.3848 10.7852 79.8896 10.6152 79.2334 10.6152C78.8291 10.6152 78.4717 10.6855 78.1611 10.8262C77.8564 10.9668 77.6191 11.1514 77.4492 11.3799C77.2793 11.6084 77.1943 11.8574 77.1943 12.127H75.5508C75.5508 11.6699 75.7061 11.2275 76.0166 10.7998C76.3271 10.3662 76.7637 10.0117 77.3262 9.73633C77.8945 9.45508 78.5625 9.31445 79.3301 9.31445C80.0215 9.31445 80.6338 9.43164 81.167 9.66602C81.7002 9.90039 82.1162 10.2549 82.415 10.7295C82.7197 11.1982 82.8721 11.7871 82.8721 12.4961V16.9258C82.8721 17.2422 82.8984 17.5791 82.9512 17.9365C83.0098 18.2939 83.0947 18.6016 83.2061 18.8594V19H81.4922C81.4102 18.8125 81.3457 18.5635 81.2988 18.2529C81.252 17.9365 81.2285 17.6436 81.2285 17.374V12.4785ZM81.5273 14.377H79.8926C78.9668 14.377 78.252 14.5234 77.748 14.8164C77.2441 15.1094 76.9922 15.5488 76.9922 16.1348C76.9922 16.5918 77.1445 16.9785 77.4492 17.2949C77.7598 17.6113 78.2109 17.7695 78.8027 17.7695C79.3008 17.7695 79.7402 17.6641 80.1211 17.4531C80.502 17.2422 80.8037 16.9814 81.0264 16.6709C81.249 16.3604 81.3691 16.0615 81.3867 15.7744L82.0898 16.5566C82.0488 16.8027 81.9375 17.0752 81.7559 17.374C81.5742 17.6729 81.3311 17.96 81.0264 18.2354C80.7275 18.5049 80.3701 18.7305 79.9541 18.9121C79.5439 19.0879 79.0811 19.1758 78.5654 19.1758C77.9209 19.1758 77.3555 19.0527 76.8691 18.8066C76.3887 18.5547 76.0137 18.2148 75.7441 17.7871C75.4805 17.3594 75.3486 16.8848 75.3486 16.3633C75.3486 15.3379 75.7354 14.5615 76.5088 14.0342C77.2822 13.501 78.3223 13.2344 79.6289 13.2344H81.5098L81.5273 14.377ZM89.4287 10.7295H84.2783V9.49023H89.4287V10.7295ZM87.6533 7.17871V16.6445C87.6533 16.9727 87.7031 17.2188 87.8027 17.3828C87.9023 17.5469 88.0312 17.6553 88.1895 17.708C88.3477 17.7607 88.5176 17.7871 88.6992 17.7871C88.834 17.7871 88.9746 17.7754 89.1211 17.752C89.2734 17.7285 89.3848 17.708 89.4551 17.6904L89.4639 19C89.335 19.041 89.165 19.0791 88.9541 19.1143C88.749 19.1553 88.5 19.1758 88.207 19.1758C87.8086 19.1758 87.4424 19.0967 87.1084 18.9385C86.7744 18.7803 86.5078 18.5166 86.3086 18.1475C86.1094 17.7725 86.0098 17.2686 86.0098 16.6357V7.17871H87.6533ZM95.3174 10.7295H90.167V9.49023H95.3174V10.7295ZM93.542 7.17871V16.6445C93.542 16.9727 93.5918 17.2188 93.6914 17.3828C93.791 17.5469 93.9199 17.6553 94.0781 17.708C94.2363 17.7607 94.4062 17.7871 94.5879 17.7871C94.7227 17.7871 94.8633 17.7754 95.0098 17.752C95.1621 17.7285 95.2734 17.708 95.3438 17.6904L95.3525 19C95.2236 19.041 95.0537 19.0791 94.8428 19.1143C94.6377 19.1553 94.3887 19.1758 94.0957 19.1758C93.6973 19.1758 93.3311 19.0967 92.9971 18.9385C92.6631 18.7803 92.3965 18.5166 92.1973 18.1475C91.998 17.7725 91.8984 17.2686 91.8984 16.6357V7.17871H93.542ZM101.162 19.1758C100.277 19.1758 99.5068 18.9795 98.8506 18.5869C98.2002 18.1885 97.6934 17.6436 97.3301 16.9521C96.9727 16.2607 96.7939 15.4697 96.7939 14.5791V14.2012C96.7939 13.1699 96.9902 12.291 97.3828 11.5645C97.7812 10.832 98.2969 10.2754 98.9297 9.89453C99.5684 9.50781 100.242 9.31445 100.951 9.31445C101.865 9.31445 102.609 9.51953 103.184 9.92969C103.764 10.334 104.188 10.8877 104.458 11.5908C104.733 12.2881 104.871 13.0791 104.871 13.9639V14.6934H97.7695V13.375H103.228V13.252C103.204 12.8301 103.119 12.4199 102.973 12.0215C102.826 11.6172 102.592 11.2861 102.27 11.0283C101.947 10.7646 101.508 10.6328 100.951 10.6328C100.459 10.6328 100.022 10.7734 99.6416 11.0547C99.2666 11.3301 98.9707 11.7344 98.7539 12.2676C98.543 12.7949 98.4375 13.4395 98.4375 14.2012V14.5791C98.4375 15.1826 98.5488 15.7334 98.7715 16.2314C98.9941 16.7236 99.3164 17.1191 99.7383 17.418C100.16 17.7109 100.664 17.8574 101.25 17.8574C101.824 17.8574 102.311 17.7402 102.709 17.5059C103.107 17.2715 103.456 16.958 103.755 16.5654L104.748 17.3389C104.443 17.8076 104.004 18.2324 103.43 18.6133C102.861 18.9883 102.105 19.1758 101.162 19.1758ZM108.413 19H106.77V9.49023H108.369L108.413 10.9844V19ZM111.375 10.9404C111.234 10.9111 111.103 10.8936 110.979 10.8877C110.862 10.876 110.728 10.8701 110.575 10.8701C110.077 10.8701 109.655 10.9727 109.31 11.1777C108.97 11.3828 108.706 11.667 108.519 12.0303C108.331 12.3877 108.214 12.7979 108.167 13.2607L107.701 13.5244C107.701 12.7568 107.804 12.0566 108.009 11.4238C108.214 10.7852 108.533 10.2754 108.967 9.89453C109.406 9.50781 109.969 9.31445 110.654 9.31445C110.766 9.31445 110.897 9.3291 111.05 9.3584C111.208 9.38184 111.316 9.4082 111.375 9.4375V10.9404ZM114.513 19H112.869V9.49023H114.425L114.513 11.5205V19ZM113.44 13.8496C113.452 12.9824 113.619 12.209 113.941 11.5293C114.264 10.8438 114.712 10.3047 115.286 9.91211C115.866 9.51367 116.54 9.31445 117.308 9.31445C117.935 9.31445 118.474 9.43164 118.925 9.66602C119.382 9.89453 119.733 10.2607 119.979 10.7646C120.231 11.2686 120.357 11.9365 120.357 12.7686V19H118.714V12.751C118.714 12.2529 118.641 11.8516 118.494 11.5469C118.354 11.2422 118.143 11.0225 117.861 10.8877C117.58 10.7471 117.234 10.6768 116.824 10.6768C116.42 10.6768 116.054 10.7617 115.726 10.9316C115.397 11.1016 115.113 11.3359 114.873 11.6348C114.633 11.9336 114.448 12.2764 114.319 12.6631C114.19 13.0439 114.126 13.4482 114.126 13.876L113.44 13.8496Z" fill="#21243D"/>
</svg>
