<svg width="305" height="44" viewBox="0 0 305 44" fill="none" xmlns="http://www.w3.org/2000/svg">
<path d="M3.82324 31L3.85254 27.2939H8.4375C9.56055 27.2939 10.5029 27.0449 11.2646 26.5469C12.0361 26.0488 12.6172 25.3164 13.0078 24.3496C13.3984 23.3828 13.5938 22.1963 13.5938 20.79V19.8525C13.5938 18.4365 13.3984 17.25 13.0078 16.293C12.6172 15.3359 12.041 14.6133 11.2793 14.125C10.5176 13.6367 9.58008 13.3926 8.4668 13.3926H3.73535V9.67188H8.4668C10.3906 9.67188 12.085 10.1016 13.5498 10.9609C15.0244 11.8203 16.1768 13.0166 17.0068 14.5498C17.8369 16.0732 18.252 17.8506 18.252 19.8818V20.79C18.252 22.8213 17.8369 24.6035 17.0068 26.1367C16.1768 27.6699 15.0244 28.8662 13.5498 29.7256C12.085 30.5752 10.3809 31 8.4375 31H3.82324ZM6.44531 31H1.83105V9.67188H6.44531V31ZM28.4619 31.293C26.792 31.293 25.3613 30.9463 24.1699 30.2529C22.9883 29.5596 22.0801 28.6318 21.4453 27.4697C20.8203 26.3076 20.5078 25.0234 20.5078 23.6172V23.0459C20.5078 21.4639 20.8057 20.0576 21.4014 18.8271C22.0068 17.5869 22.8662 16.6152 23.9795 15.9121C25.0928 15.209 26.4209 14.8574 27.9639 14.8574C29.4971 14.8574 30.7861 15.1797 31.8311 15.8242C32.876 16.4688 33.667 17.377 34.2041 18.5488C34.7412 19.7109 35.0098 21.0781 35.0098 22.6504V24.5254H22.3682V21.5518H30.6592V21.2002C30.6592 20.6533 30.5615 20.1699 30.3662 19.75C30.1709 19.3301 29.873 19.0029 29.4727 18.7686C29.082 18.5342 28.5693 18.417 27.9346 18.417C27.2119 18.417 26.6309 18.6221 26.1914 19.0322C25.752 19.4424 25.4297 19.9941 25.2246 20.6875C25.0293 21.3809 24.9316 22.167 24.9316 23.0459V23.6172C24.9316 24.4277 25.083 25.1406 25.3857 25.7559C25.6885 26.3711 26.123 26.8545 26.6895 27.2061C27.2559 27.5479 27.9395 27.7188 28.7402 27.7188C29.4922 27.7188 30.1953 27.582 30.8496 27.3086C31.5039 27.0254 32.0605 26.5859 32.5195 25.9902L34.6582 28.4365C34.1602 29.1494 33.3887 29.8037 32.3438 30.3994C31.3086 30.9951 30.0146 31.293 28.4619 31.293ZM45.8203 26.5762C45.8203 26.2832 45.7324 26.0293 45.5566 25.8145C45.3906 25.5996 45.0781 25.3994 44.6191 25.2139C44.1602 25.0283 43.4961 24.8428 42.627 24.6572C41.5625 24.4229 40.6006 24.1055 39.7412 23.7051C38.8916 23.3047 38.2227 22.7871 37.7344 22.1523C37.2461 21.5078 37.002 20.7314 37.002 19.8232C37.002 18.9346 37.2559 18.1143 37.7637 17.3623C38.2715 16.6104 38.999 16.0049 39.9463 15.5459C40.9033 15.0869 42.0459 14.8574 43.374 14.8574C44.7607 14.8574 45.957 15.0771 46.9629 15.5166C47.9688 15.9561 48.7402 16.5615 49.2773 17.333C49.8145 18.1045 50.083 18.9883 50.083 19.9844H45.6592C45.6592 19.3887 45.4736 18.9053 45.1025 18.5342C44.7412 18.1533 44.1602 17.9629 43.3594 17.9629C42.9297 17.9629 42.5537 18.0361 42.2314 18.1826C41.9092 18.3291 41.6602 18.5244 41.4844 18.7686C41.3184 19.0029 41.2354 19.2812 41.2354 19.6035C41.2354 19.8965 41.3281 20.1553 41.5137 20.3799C41.6992 20.6045 42.002 20.7998 42.4219 20.9658C42.8418 21.1318 43.4033 21.2783 44.1064 21.4053C45.2295 21.6201 46.2451 21.918 47.1533 22.2988C48.0615 22.6699 48.7842 23.1826 49.3213 23.8369C49.8584 24.4814 50.127 25.3408 50.127 26.415C50.127 27.3525 49.8486 28.1924 49.292 28.9346C48.7451 29.667 47.9639 30.2432 46.9482 30.6631C45.9424 31.083 44.7559 31.293 43.3887 31.293C41.8945 31.293 40.6348 31.0244 39.6094 30.4873C38.584 29.9502 37.8076 29.2715 37.2803 28.4512C36.7529 27.6211 36.4893 26.7764 36.4893 25.917H40.6787C40.708 26.4443 40.8496 26.874 41.1035 27.2061C41.3672 27.5381 41.7041 27.7822 42.1143 27.9385C42.5342 28.0947 42.9932 28.1729 43.4912 28.1729C43.999 28.1729 44.4238 28.1094 44.7656 27.9824C45.1172 27.8457 45.3809 27.6602 45.5566 27.4258C45.7324 27.1816 45.8203 26.8984 45.8203 26.5762ZM57.4219 31H52.9834V15.1504H57.4219V31ZM52.7197 11.0635C52.7197 10.3994 52.9443 9.85742 53.3936 9.4375C53.8428 9.00781 54.4434 8.79297 55.1953 8.79297C55.9473 8.79297 56.543 9.00781 56.9824 9.4375C57.4316 9.85742 57.6562 10.3994 57.6562 11.0635C57.6562 11.7178 57.4316 12.2598 56.9824 12.6895C56.543 13.1191 55.9473 13.334 55.1953 13.334C54.4434 13.334 53.8428 13.1191 53.3936 12.6895C52.9443 12.2598 52.7197 11.7178 52.7197 11.0635ZM74.8389 15.1504V30.4287C74.8389 31.8838 74.5117 33.1191 73.8574 34.1348C73.2129 35.1504 72.3096 35.9219 71.1475 36.4492C69.9854 36.9766 68.6377 37.2402 67.1045 37.2402C66.4502 37.2402 65.752 37.1523 65.0098 36.9766C64.2676 36.8008 63.5547 36.5322 62.8711 36.1709C62.1973 35.8096 61.6357 35.3506 61.1865 34.7939L63.1201 32.084C63.5889 32.6113 64.1455 33.0264 64.79 33.3291C65.4346 33.6416 66.1426 33.7979 66.9141 33.7979C68.0176 33.7979 68.8721 33.5049 69.4775 32.9189C70.0928 32.3428 70.4004 31.5127 70.4004 30.4287V18.8564L70.8252 15.1504H74.8389ZM60.1904 22.958C60.1904 21.3467 60.4492 19.9355 60.9668 18.7246C61.4941 17.5039 62.2412 16.5566 63.208 15.8828C64.1748 15.1992 65.3223 14.8574 66.6504 14.8574C67.7148 14.8574 68.6035 15.0625 69.3164 15.4727C70.0391 15.873 70.625 16.4395 71.0742 17.1719C71.5234 17.9043 71.875 18.7686 72.1289 19.7646C72.3828 20.751 72.5879 21.8252 72.7441 22.9873V23.3535C72.5391 24.8281 72.207 26.166 71.748 27.3672C71.2891 28.5684 70.6445 29.5254 69.8145 30.2383C68.9844 30.9414 67.9199 31.293 66.6211 31.293C65.3027 31.293 64.1602 30.9463 63.1934 30.2529C62.2363 29.5498 61.4941 28.5928 60.9668 27.3818C60.4492 26.1709 60.1904 24.7988 60.1904 23.2656V22.958ZM64.6289 23.2656C64.6289 24.0859 64.7412 24.833 64.9658 25.5068C65.1904 26.1807 65.5322 26.7178 65.9912 27.1182C66.4502 27.5088 67.0361 27.7041 67.749 27.7041C68.501 27.7041 69.1064 27.5479 69.5654 27.2354C70.0342 26.9131 70.3857 26.4688 70.6201 25.9023C70.8643 25.3359 71.001 24.6816 71.0303 23.9395V22.416C71.0107 21.7812 70.9326 21.2197 70.7959 20.7314C70.6592 20.2334 70.459 19.8184 70.1953 19.4863C69.9316 19.1445 69.5996 18.8857 69.1992 18.71C68.8086 18.5342 68.335 18.4463 67.7783 18.4463C67.0752 18.4463 66.4893 18.6465 66.0205 19.0469C65.5518 19.4375 65.2002 19.9746 64.9658 20.6582C64.7412 21.332 64.6289 22.0986 64.6289 22.958V23.2656ZM82.3096 31H77.8857V15.1504H82.0459L82.3096 18.5342V31ZM80.4932 22.6064C80.4932 21.0049 80.752 19.6279 81.2695 18.4756C81.7871 17.3135 82.5146 16.4199 83.4521 15.7949C84.3896 15.1699 85.4785 14.8574 86.7188 14.8574C87.7148 14.8574 88.584 15.0527 89.3262 15.4434C90.0781 15.834 90.6641 16.4736 91.084 17.3623C91.5137 18.2412 91.7285 19.4375 91.7285 20.9512V31H87.29V20.9219C87.29 20.2676 87.1924 19.7646 86.9971 19.4131C86.8115 19.0518 86.5381 18.8027 86.1768 18.666C85.8154 18.5195 85.3711 18.4463 84.8438 18.4463C84.3066 18.4463 83.8379 18.5488 83.4375 18.7539C83.0469 18.9492 82.7197 19.2324 82.4561 19.6035C82.2021 19.9746 82.0117 20.4141 81.8848 20.9219C81.7578 21.4199 81.6943 21.9619 81.6943 22.5479L80.4932 22.6064ZM99.4922 31H95.0537V15.1504H99.4922V31ZM94.79 11.0635C94.79 10.3994 95.0146 9.85742 95.4639 9.4375C95.9131 9.00781 96.5137 8.79297 97.2656 8.79297C98.0176 8.79297 98.6133 9.00781 99.0527 9.4375C99.502 9.85742 99.7266 10.3994 99.7266 11.0635C99.7266 11.7178 99.502 12.2598 99.0527 12.6895C98.6133 13.1191 98.0176 13.334 97.2656 13.334C96.5137 13.334 95.9131 13.1191 95.4639 12.6895C95.0146 12.2598 94.79 11.7178 94.79 11.0635ZM107.212 31H102.788V15.1504H106.948L107.212 18.5342V31ZM105.396 22.6064C105.396 21.0049 105.654 19.6279 106.172 18.4756C106.689 17.3135 107.417 16.4199 108.354 15.7949C109.292 15.1699 110.381 14.8574 111.621 14.8574C112.617 14.8574 113.486 15.0527 114.229 15.4434C114.98 15.834 115.566 16.4736 115.986 17.3623C116.416 18.2412 116.631 19.4375 116.631 20.9512V31H112.192V20.9219C112.192 20.2676 112.095 19.7646 111.899 19.4131C111.714 19.0518 111.44 18.8027 111.079 18.666C110.718 18.5195 110.273 18.4463 109.746 18.4463C109.209 18.4463 108.74 18.5488 108.34 18.7539C107.949 18.9492 107.622 19.2324 107.358 19.6035C107.104 19.9746 106.914 20.4141 106.787 20.9219C106.66 21.4199 106.597 21.9619 106.597 22.5479L105.396 22.6064ZM133.755 15.1504V30.4287C133.755 31.8838 133.428 33.1191 132.773 34.1348C132.129 35.1504 131.226 35.9219 130.063 36.4492C128.901 36.9766 127.554 37.2402 126.021 37.2402C125.366 37.2402 124.668 37.1523 123.926 36.9766C123.184 36.8008 122.471 36.5322 121.787 36.1709C121.113 35.8096 120.552 35.3506 120.103 34.7939L122.036 32.084C122.505 32.6113 123.062 33.0264 123.706 33.3291C124.351 33.6416 125.059 33.7979 125.83 33.7979C126.934 33.7979 127.788 33.5049 128.394 32.9189C129.009 32.3428 129.316 31.5127 129.316 30.4287V18.8564L129.741 15.1504H133.755ZM119.106 22.958C119.106 21.3467 119.365 19.9355 119.883 18.7246C120.41 17.5039 121.157 16.5566 122.124 15.8828C123.091 15.1992 124.238 14.8574 125.566 14.8574C126.631 14.8574 127.52 15.0625 128.232 15.4727C128.955 15.873 129.541 16.4395 129.99 17.1719C130.439 17.9043 130.791 18.7686 131.045 19.7646C131.299 20.751 131.504 21.8252 131.66 22.9873V23.3535C131.455 24.8281 131.123 26.166 130.664 27.3672C130.205 28.5684 129.561 29.5254 128.73 30.2383C127.9 30.9414 126.836 31.293 125.537 31.293C124.219 31.293 123.076 30.9463 122.109 30.2529C121.152 29.5498 120.41 28.5928 119.883 27.3818C119.365 26.1709 119.106 24.7988 119.106 23.2656V22.958ZM123.545 23.2656C123.545 24.0859 123.657 24.833 123.882 25.5068C124.106 26.1807 124.448 26.7178 124.907 27.1182C125.366 27.5088 125.952 27.7041 126.665 27.7041C127.417 27.7041 128.022 27.5479 128.481 27.2354C128.95 26.9131 129.302 26.4688 129.536 25.9023C129.78 25.3359 129.917 24.6816 129.946 23.9395V22.416C129.927 21.7812 129.849 21.2197 129.712 20.7314C129.575 20.2334 129.375 19.8184 129.111 19.4863C128.848 19.1445 128.516 18.8857 128.115 18.71C127.725 18.5342 127.251 18.4463 126.694 18.4463C125.991 18.4463 125.405 18.6465 124.937 19.0469C124.468 19.4375 124.116 19.9746 123.882 20.6582C123.657 21.332 123.545 22.0986 123.545 22.958V23.2656ZM146.646 31L146.675 27.2939H151.26C152.383 27.2939 153.325 27.0449 154.087 26.5469C154.858 26.0488 155.439 25.3164 155.83 24.3496C156.221 23.3828 156.416 22.1963 156.416 20.79V19.8525C156.416 18.4365 156.221 17.25 155.83 16.293C155.439 15.3359 154.863 14.6133 154.102 14.125C153.34 13.6367 152.402 13.3926 151.289 13.3926H146.558V9.67188H151.289C153.213 9.67188 154.907 10.1016 156.372 10.9609C157.847 11.8203 158.999 13.0166 159.829 14.5498C160.659 16.0732 161.074 17.8506 161.074 19.8818V20.79C161.074 22.8213 160.659 24.6035 159.829 26.1367C158.999 27.6699 157.847 28.8662 156.372 29.7256C154.907 30.5752 153.203 31 151.26 31H146.646ZM149.268 31H144.653V9.67188H149.268V31ZM172.368 20.4385C172.368 19.7256 172.192 19.1592 171.841 18.7393C171.489 18.3193 170.928 18.1094 170.156 18.1094C169.717 18.1094 169.336 18.1826 169.014 18.3291C168.691 18.4756 168.447 18.6855 168.281 18.959C168.115 19.2227 168.032 19.5498 168.032 19.9404H163.608C163.608 19.0029 163.887 18.1533 164.443 17.3916C165 16.6201 165.786 16.0049 166.802 15.5459C167.817 15.0869 169.014 14.8574 170.391 14.8574C171.621 14.8574 172.72 15.0674 173.687 15.4873C174.653 15.8975 175.415 16.5176 175.972 17.3477C176.528 18.1777 176.807 19.2178 176.807 20.4678V27.0889C176.807 28.0264 176.86 28.7686 176.968 29.3154C177.085 29.8623 177.246 30.3408 177.451 30.751V31H172.998C172.783 30.5508 172.622 29.9893 172.515 29.3154C172.417 28.6416 172.368 27.958 172.368 27.2646V20.4385ZM172.969 23.8516H170.713C169.639 23.8516 168.862 24.0859 168.384 24.5547C167.905 25.0137 167.666 25.5703 167.666 26.2246C167.666 26.7227 167.842 27.1328 168.193 27.4551C168.545 27.7773 169.019 27.9385 169.614 27.9385C170.229 27.9385 170.757 27.8213 171.196 27.5869C171.646 27.3428 171.987 27.0547 172.222 26.7227C172.466 26.3809 172.583 26.0684 172.573 25.7852L173.716 27.6895C173.56 28.0801 173.35 28.4854 173.086 28.9053C172.832 29.3252 172.505 29.7158 172.104 30.0771C171.704 30.4385 171.216 30.7314 170.64 30.9561C170.073 31.1807 169.404 31.293 168.633 31.293C167.637 31.293 166.729 31.0928 165.908 30.6924C165.088 30.2822 164.438 29.7207 163.96 29.0078C163.481 28.2852 163.242 27.46 163.242 26.5322C163.242 24.8721 163.857 23.5879 165.088 22.6797C166.318 21.7617 168.149 21.3027 170.581 21.3027H172.939L172.969 23.8516ZM188.467 26.5762C188.467 26.2832 188.379 26.0293 188.203 25.8145C188.037 25.5996 187.725 25.3994 187.266 25.2139C186.807 25.0283 186.143 24.8428 185.273 24.6572C184.209 24.4229 183.247 24.1055 182.388 23.7051C181.538 23.3047 180.869 22.7871 180.381 22.1523C179.893 21.5078 179.648 20.7314 179.648 19.8232C179.648 18.9346 179.902 18.1143 180.41 17.3623C180.918 16.6104 181.646 16.0049 182.593 15.5459C183.55 15.0869 184.692 14.8574 186.021 14.8574C187.407 14.8574 188.604 15.0771 189.609 15.5166C190.615 15.9561 191.387 16.5615 191.924 17.333C192.461 18.1045 192.729 18.9883 192.729 19.9844H188.306C188.306 19.3887 188.12 18.9053 187.749 18.5342C187.388 18.1533 186.807 17.9629 186.006 17.9629C185.576 17.9629 185.2 18.0361 184.878 18.1826C184.556 18.3291 184.307 18.5244 184.131 18.7686C183.965 19.0029 183.882 19.2812 183.882 19.6035C183.882 19.8965 183.975 20.1553 184.16 20.3799C184.346 20.6045 184.648 20.7998 185.068 20.9658C185.488 21.1318 186.05 21.2783 186.753 21.4053C187.876 21.6201 188.892 21.918 189.8 22.2988C190.708 22.6699 191.431 23.1826 191.968 23.8369C192.505 24.4814 192.773 25.3408 192.773 26.415C192.773 27.3525 192.495 28.1924 191.938 28.9346C191.392 29.667 190.61 30.2432 189.595 30.6631C188.589 31.083 187.402 31.293 186.035 31.293C184.541 31.293 183.281 31.0244 182.256 30.4873C181.23 29.9502 180.454 29.2715 179.927 28.4512C179.399 27.6211 179.136 26.7764 179.136 25.917H183.325C183.354 26.4443 183.496 26.874 183.75 27.2061C184.014 27.5381 184.351 27.7822 184.761 27.9385C185.181 28.0947 185.64 28.1729 186.138 28.1729C186.646 28.1729 187.07 28.1094 187.412 27.9824C187.764 27.8457 188.027 27.6602 188.203 27.4258C188.379 27.1816 188.467 26.8984 188.467 26.5762ZM199.731 31H195.293V8.5H199.731V31ZM197.915 22.6064C197.915 21.1025 198.159 19.7695 198.647 18.6074C199.146 17.4453 199.844 16.5322 200.742 15.8682C201.641 15.1943 202.69 14.8574 203.892 14.8574C204.937 14.8574 205.85 15.0625 206.631 15.4727C207.422 15.873 208.037 16.5273 208.477 17.4355C208.926 18.334 209.15 19.54 209.15 21.0537V31H204.712V21.0244C204.712 20.3604 204.614 19.8428 204.419 19.4717C204.233 19.0908 203.955 18.8271 203.584 18.6807C203.223 18.5244 202.778 18.4463 202.251 18.4463C201.665 18.4463 201.172 18.5488 200.771 18.7539C200.371 18.9492 200.044 19.2324 199.79 19.6035C199.546 19.9746 199.37 20.4141 199.263 20.9219C199.155 21.4199 199.102 21.9619 199.102 22.5479L197.915 22.6064ZM216.68 8.5V27.25L216.226 31H212.256V8.5H216.68ZM226.641 23.207C226.641 24.7891 226.416 26.1904 225.967 27.4111C225.518 28.6318 224.839 29.584 223.931 30.2676C223.022 30.9512 221.875 31.293 220.488 31.293C219.18 31.293 218.11 30.9414 217.28 30.2383C216.46 29.5254 215.82 28.5635 215.361 27.3525C214.902 26.1318 214.575 24.7598 214.38 23.2363V22.8848C214.575 21.3711 214.897 20.0088 215.347 18.7979C215.806 17.5869 216.445 16.6299 217.266 15.9268C218.096 15.2139 219.16 14.8574 220.459 14.8574C221.855 14.8574 223.008 15.2041 223.916 15.8975C224.834 16.5908 225.518 17.543 225.967 18.7539C226.416 19.9648 226.641 21.3467 226.641 22.8994V23.207ZM222.217 22.8994C222.217 22.0986 222.139 21.3613 221.982 20.6875C221.826 20.0039 221.538 19.4619 221.118 19.0615C220.708 18.6514 220.112 18.4463 219.331 18.4463C218.784 18.4463 218.315 18.5342 217.925 18.71C217.534 18.8857 217.212 19.1445 216.958 19.4863C216.714 19.8184 216.528 20.2236 216.401 20.7021C216.284 21.1807 216.221 21.7129 216.211 22.2988V23.8369C216.23 24.6182 216.348 25.3018 216.562 25.8877C216.777 26.4639 217.109 26.9131 217.559 27.2354C218.018 27.5576 218.618 27.7188 219.36 27.7188C220.142 27.7188 220.737 27.5283 221.147 27.1475C221.558 26.7568 221.836 26.2246 221.982 25.5508C222.139 24.8672 222.217 24.0859 222.217 23.207V22.8994ZM228.501 22.9287C228.501 21.3857 228.794 20.0088 229.38 18.7979C229.966 17.5771 230.82 16.6152 231.943 15.9121C233.066 15.209 234.429 14.8574 236.03 14.8574C237.651 14.8574 239.023 15.209 240.146 15.9121C241.279 16.6152 242.134 17.5771 242.71 18.7979C243.296 20.0088 243.589 21.3857 243.589 22.9287V23.2363C243.589 24.7695 243.296 26.1465 242.71 27.3672C242.134 28.5879 241.284 29.5498 240.161 30.2529C239.038 30.9463 237.671 31.293 236.06 31.293C234.448 31.293 233.076 30.9463 231.943 30.2529C230.82 29.5498 229.966 28.5879 229.38 27.3672C228.794 26.1465 228.501 24.7695 228.501 23.2363V22.9287ZM232.939 23.2363C232.939 24.0664 233.037 24.8232 233.232 25.5068C233.438 26.1904 233.765 26.7324 234.214 27.1328C234.673 27.5332 235.288 27.7334 236.06 27.7334C236.821 27.7334 237.427 27.5332 237.876 27.1328C238.335 26.7324 238.662 26.1904 238.857 25.5068C239.062 24.8232 239.165 24.0664 239.165 23.2363V22.9287C239.165 22.1182 239.062 21.3711 238.857 20.6875C238.662 19.9941 238.335 19.4424 237.876 19.0322C237.427 18.6221 236.812 18.417 236.03 18.417C235.269 18.417 234.658 18.6221 234.199 19.0322C233.75 19.4424 233.428 19.9941 233.232 20.6875C233.037 21.3711 232.939 22.1182 232.939 22.9287V23.2363ZM254.604 20.4385C254.604 19.7256 254.429 19.1592 254.077 18.7393C253.726 18.3193 253.164 18.1094 252.393 18.1094C251.953 18.1094 251.572 18.1826 251.25 18.3291C250.928 18.4756 250.684 18.6855 250.518 18.959C250.352 19.2227 250.269 19.5498 250.269 19.9404H245.845C245.845 19.0029 246.123 18.1533 246.68 17.3916C247.236 16.6201 248.022 16.0049 249.038 15.5459C250.054 15.0869 251.25 14.8574 252.627 14.8574C253.857 14.8574 254.956 15.0674 255.923 15.4873C256.89 15.8975 257.651 16.5176 258.208 17.3477C258.765 18.1777 259.043 19.2178 259.043 20.4678V27.0889C259.043 28.0264 259.097 28.7686 259.204 29.3154C259.321 29.8623 259.482 30.3408 259.688 30.751V31H255.234C255.02 30.5508 254.858 29.9893 254.751 29.3154C254.653 28.6416 254.604 27.958 254.604 27.2646V20.4385ZM255.205 23.8516H252.949C251.875 23.8516 251.099 24.0859 250.62 24.5547C250.142 25.0137 249.902 25.5703 249.902 26.2246C249.902 26.7227 250.078 27.1328 250.43 27.4551C250.781 27.7773 251.255 27.9385 251.851 27.9385C252.466 27.9385 252.993 27.8213 253.433 27.5869C253.882 27.3428 254.224 27.0547 254.458 26.7227C254.702 26.3809 254.819 26.0684 254.81 25.7852L255.952 27.6895C255.796 28.0801 255.586 28.4854 255.322 28.9053C255.068 29.3252 254.741 29.7158 254.341 30.0771C253.94 30.4385 253.452 30.7314 252.876 30.9561C252.31 31.1807 251.641 31.293 250.869 31.293C249.873 31.293 248.965 31.0928 248.145 30.6924C247.324 30.2822 246.675 29.7207 246.196 29.0078C245.718 28.2852 245.479 27.46 245.479 26.5322C245.479 24.8721 246.094 23.5879 247.324 22.6797C248.555 21.7617 250.386 21.3027 252.817 21.3027H255.176L255.205 23.8516ZM266.631 31H262.207V15.1504H266.367L266.631 18.7979V31ZM271.26 19.3105C271.045 19.2812 270.791 19.2568 270.498 19.2373C270.205 19.208 269.941 19.1934 269.707 19.1934C268.936 19.1934 268.301 19.3154 267.803 19.5596C267.305 19.7939 266.934 20.1455 266.689 20.6143C266.445 21.083 266.313 21.6641 266.294 22.3574L265.43 21.9766C265.43 20.5996 265.605 19.374 265.957 18.2998C266.309 17.2256 266.826 16.3857 267.51 15.7803C268.193 15.165 269.023 14.8574 270 14.8574C270.225 14.8574 270.459 14.8721 270.703 14.9014C270.957 14.9307 271.162 14.9795 271.318 15.0479L271.26 19.3105ZM282.539 8.5H286.992V31H282.993L282.539 27.4697V8.5ZM272.593 22.958C272.593 21.3467 272.832 19.9355 273.311 18.7246C273.799 17.5039 274.502 16.5566 275.42 15.8828C276.348 15.1992 277.476 14.8574 278.804 14.8574C280.044 14.8574 281.079 15.2139 281.909 15.9268C282.749 16.6299 283.408 17.5967 283.887 18.8271C284.375 20.0479 284.712 21.4346 284.897 22.9873V23.3535C284.712 24.8281 284.375 26.166 283.887 27.3672C283.408 28.5684 282.749 29.5254 281.909 30.2383C281.079 30.9414 280.034 31.293 278.774 31.293C277.466 31.293 276.348 30.9463 275.42 30.2529C274.502 29.5498 273.799 28.5928 273.311 27.3818C272.832 26.1709 272.593 24.7988 272.593 23.2656V22.958ZM277.017 23.2656C277.017 24.0859 277.109 24.833 277.295 25.5068C277.48 26.1807 277.783 26.7178 278.203 27.1182C278.623 27.5088 279.189 27.7041 279.902 27.7041C280.605 27.7041 281.182 27.5479 281.631 27.2354C282.08 26.9131 282.422 26.4688 282.656 25.9023C282.891 25.3359 283.027 24.6816 283.066 23.9395V22.416C283.047 21.7812 282.964 21.2197 282.817 20.7314C282.681 20.2334 282.485 19.8184 282.231 19.4863C281.987 19.1445 281.67 18.8857 281.279 18.71C280.898 18.5342 280.449 18.4463 279.932 18.4463C279.229 18.4463 278.662 18.6465 278.232 19.0469C277.803 19.4375 277.49 19.9746 277.295 20.6582C277.109 21.332 277.017 22.0986 277.017 22.958V23.2656ZM298.682 26.5762C298.682 26.2832 298.594 26.0293 298.418 25.8145C298.252 25.5996 297.939 25.3994 297.48 25.2139C297.021 25.0283 296.357 24.8428 295.488 24.6572C294.424 24.4229 293.462 24.1055 292.603 23.7051C291.753 23.3047 291.084 22.7871 290.596 22.1523C290.107 21.5078 289.863 20.7314 289.863 19.8232C289.863 18.9346 290.117 18.1143 290.625 17.3623C291.133 16.6104 291.86 16.0049 292.808 15.5459C293.765 15.0869 294.907 14.8574 296.235 14.8574C297.622 14.8574 298.818 15.0771 299.824 15.5166C300.83 15.9561 301.602 16.5615 302.139 17.333C302.676 18.1045 302.944 18.9883 302.944 19.9844H298.521C298.521 19.3887 298.335 18.9053 297.964 18.5342C297.603 18.1533 297.021 17.9629 296.221 17.9629C295.791 17.9629 295.415 18.0361 295.093 18.1826C294.771 18.3291 294.521 18.5244 294.346 18.7686C294.18 19.0029 294.097 19.2812 294.097 19.6035C294.097 19.8965 294.189 20.1553 294.375 20.3799C294.561 20.6045 294.863 20.7998 295.283 20.9658C295.703 21.1318 296.265 21.2783 296.968 21.4053C298.091 21.6201 299.106 21.918 300.015 22.2988C300.923 22.6699 301.646 23.1826 302.183 23.8369C302.72 24.4814 302.988 25.3408 302.988 26.415C302.988 27.3525 302.71 28.1924 302.153 28.9346C301.606 29.667 300.825 30.2432 299.81 30.6631C298.804 31.083 297.617 31.293 296.25 31.293C294.756 31.293 293.496 31.0244 292.471 30.4873C291.445 29.9502 290.669 29.2715 290.142 28.4512C289.614 27.6211 289.351 26.7764 289.351 25.917H293.54C293.569 26.4443 293.711 26.874 293.965 27.2061C294.229 27.5381 294.565 27.7822 294.976 27.9385C295.396 28.0947 295.854 28.1729 296.353 28.1729C296.86 28.1729 297.285 28.1094 297.627 27.9824C297.979 27.8457 298.242 27.6602 298.418 27.4258C298.594 27.1816 298.682 26.8984 298.682 26.5762Z" fill="#21243D"/>
</svg>
