<svg width="167" height="21" viewBox="0 0 167 21" fill="none" xmlns="http://www.w3.org/2000/svg">
<path d="M5.64453 6.78125C6.90755 6.78125 8.02409 7.0612 8.99414 7.62109C9.96419 8.18099 10.7161 8.97201 11.25 9.99414C11.7904 11.0163 12.0605 12.2012 12.0605 13.5488V14.2422C12.0605 15.5964 11.7904 16.7845 11.25 17.8066C10.7161 18.8223 9.95768 19.61 8.97461 20.1699C7.99154 20.7233 6.84896 21 5.54688 21H2.53906H1.42578V6.78125H3.95508H5.64453ZM9.52148 13.5293C9.52148 12.0059 9.18945 10.8405 8.52539 10.0332C7.86133 9.22591 6.90104 8.82227 5.64453 8.82227H3.95508V18.9688H5.54688C6.84896 18.9688 7.83529 18.5586 8.50586 17.7383C9.18294 16.9115 9.52148 15.7461 9.52148 14.2422V13.5293ZM13.8281 15.6191C13.8281 14.5905 14.0234 13.6693 14.4141 12.8555C14.8112 12.0417 15.3809 11.4036 16.123 10.9414C16.8652 10.4727 17.7376 10.2383 18.7402 10.2383C19.7559 10.2383 20.6348 10.4727 21.377 10.9414C22.1257 11.4036 22.6953 12.0417 23.0859 12.8555C23.4831 13.6693 23.6816 14.5905 23.6816 15.6191V15.8242C23.6816 16.8529 23.4831 17.7741 23.0859 18.5879C22.6953 19.4017 22.1289 20.0397 21.3867 20.502C20.6445 20.9642 19.7689 21.1953 18.7598 21.1953C17.7507 21.1953 16.8717 20.9642 16.123 20.502C15.3809 20.0397 14.8112 19.4017 14.4141 18.5879C14.0234 17.7741 13.8281 16.8529 13.8281 15.8242V15.6191ZM16.2598 15.8242C16.2598 16.8268 16.4681 17.6471 16.8848 18.2852C17.3014 18.9232 17.9264 19.2422 18.7598 19.2422C19.3132 19.2422 19.7754 19.0924 20.1465 18.793C20.5241 18.487 20.8008 18.0768 20.9766 17.5625C21.1589 17.0482 21.25 16.4688 21.25 15.8242V15.6191C21.25 14.9811 21.1589 14.4049 20.9766 13.8906C20.8008 13.3698 20.5241 12.9564 20.1465 12.6504C19.7689 12.3444 19.3001 12.1914 18.7402 12.1914C18.1868 12.1914 17.7246 12.3444 17.3535 12.6504C16.9824 12.9564 16.7057 13.3698 16.5234 13.8906C16.3477 14.4049 16.2598 14.9811 16.2598 15.6191V15.8242ZM38.9355 10.4336L36.0742 21H34.5312H34.0723L31.8359 13.832L29.6387 21H28.2617H27.6367L24.7754 10.4336H27.1387L28.8086 17.5723L30.9473 10.4336H32.5H32.7637L34.9219 17.6602L36.5723 10.4336H38.9355ZM45.8984 10.2383C46.9727 10.2383 47.7995 10.5508 48.3789 11.1758C48.9648 11.7943 49.2578 12.7969 49.2578 14.1836V21H46.8262V14.1641C46.8262 13.4609 46.6732 12.9629 46.3672 12.6699C46.0677 12.3704 45.6055 12.2207 44.9805 12.2207C44.5247 12.2207 44.1178 12.3314 43.7598 12.5527C43.4017 12.7741 43.1152 13.0833 42.9004 13.4805V21H40.4688V10.4336H42.7539L42.832 11.6543C43.2096 11.1986 43.6589 10.8503 44.1797 10.6094C44.7005 10.362 45.2734 10.2383 45.8984 10.2383ZM51.7871 21V6H54.2188V21H51.7871ZM56.3281 15.6191C56.3281 14.5905 56.5234 13.6693 56.9141 12.8555C57.3112 12.0417 57.8809 11.4036 58.623 10.9414C59.3652 10.4727 60.2376 10.2383 61.2402 10.2383C62.2559 10.2383 63.1348 10.4727 63.877 10.9414C64.6257 11.4036 65.1953 12.0417 65.5859 12.8555C65.9831 13.6693 66.1816 14.5905 66.1816 15.6191V15.8242C66.1816 16.8529 65.9831 17.7741 65.5859 18.5879C65.1953 19.4017 64.6289 20.0397 63.8867 20.502C63.1445 20.9642 62.2689 21.1953 61.2598 21.1953C60.2507 21.1953 59.3717 20.9642 58.623 20.502C57.8809 20.0397 57.3112 19.4017 56.9141 18.5879C56.5234 17.7741 56.3281 16.8529 56.3281 15.8242V15.6191ZM58.7598 15.8242C58.7598 16.8268 58.9681 17.6471 59.3848 18.2852C59.8014 18.9232 60.4264 19.2422 61.2598 19.2422C61.8132 19.2422 62.2754 19.0924 62.6465 18.793C63.0241 18.487 63.3008 18.0768 63.4766 17.5625C63.6589 17.0482 63.75 16.4688 63.75 15.8242V15.6191C63.75 14.9811 63.6589 14.4049 63.4766 13.8906C63.3008 13.3698 63.0241 12.9564 62.6465 12.6504C62.2689 12.3444 61.8001 12.1914 61.2402 12.1914C60.6868 12.1914 60.2246 12.3444 59.8535 12.6504C59.4824 12.9564 59.2057 13.3698 59.0234 13.8906C58.8477 14.4049 58.7598 14.9811 58.7598 15.6191V15.8242ZM76.5234 18.5391C76.5234 19.5026 76.6569 20.2676 76.9238 20.834V21H74.4434C74.3392 20.7721 74.248 20.4434 74.1699 20.0137C73.8379 20.3717 73.4408 20.6582 72.9785 20.873C72.5163 21.0879 71.9922 21.1953 71.4062 21.1953C70.7161 21.1953 70.0977 21.0586 69.5508 20.7852C69.0039 20.5117 68.5775 20.1341 68.2715 19.6523C67.9655 19.1706 67.8125 18.6302 67.8125 18.0312C67.8125 16.9049 68.2292 16.0423 69.0625 15.4434C69.9023 14.8444 71.0905 14.5449 72.627 14.5449H74.0918V13.8613C74.0918 13.3014 73.9388 12.8652 73.6328 12.5527C73.3268 12.2337 72.8743 12.0742 72.2754 12.0742C71.9173 12.0742 71.6016 12.1361 71.3281 12.2598C71.0547 12.3835 70.8431 12.5527 70.6934 12.7676C70.5436 12.9824 70.4688 13.2233 70.4688 13.4902H68.0371C68.0371 12.9238 68.2161 12.3932 68.5742 11.8984C68.9388 11.3971 69.4531 10.9967 70.1172 10.6973C70.7878 10.3913 71.5527 10.2383 72.4121 10.2383C73.2194 10.2383 73.9323 10.375 74.5508 10.6484C75.1693 10.9219 75.651 11.332 75.9961 11.8789C76.3477 12.4258 76.5234 13.0931 76.5234 13.8809V18.5391ZM71.875 19.252C72.3828 19.252 72.832 19.1315 73.2227 18.8906C73.6198 18.6497 73.9095 18.36 74.0918 18.0215V16.0488H72.8223C71.9759 16.0488 71.3346 16.2018 70.8984 16.5078C70.4622 16.8138 70.2441 17.2435 70.2441 17.7969C70.2441 18.2266 70.3874 18.5781 70.6738 18.8516C70.9603 19.1185 71.3607 19.252 71.875 19.252ZM87.8223 6V21H85.625L85.5078 19.8965C84.8047 20.7624 83.8639 21.1953 82.6855 21.1953C81.8522 21.1953 81.1198 20.9642 80.4883 20.502C79.8633 20.0397 79.3815 19.4017 79.043 18.5879C78.7044 17.7741 78.5352 16.8561 78.5352 15.834V15.6289C78.5352 14.5612 78.7012 13.6204 79.0332 12.8066C79.3717 11.9928 79.8535 11.3613 80.4785 10.9121C81.11 10.4629 81.8522 10.2383 82.7051 10.2383C83.8118 10.2383 84.707 10.6257 85.3906 11.4004V6H87.8223ZM83.3008 19.2031C84.2643 19.2031 84.9609 18.7799 85.3906 17.9336V13.4609C84.9674 12.6341 84.2773 12.2207 83.3203 12.2207C82.526 12.2207 81.9336 12.5365 81.543 13.168C81.1589 13.7995 80.9668 14.6198 80.9668 15.6289V15.834C80.9668 16.8366 81.1556 17.6504 81.5332 18.2754C81.9173 18.8939 82.5065 19.2031 83.3008 19.2031ZM106.26 20.873V21H103.545L100.723 15.5508H98.0176V21H95.4883V6.78125H100.527C102.168 6.78125 103.434 7.14909 104.326 7.88477C105.225 8.62044 105.674 9.68164 105.674 11.0684C105.674 12.0059 105.449 12.8001 105 13.4512C104.551 14.1022 103.913 14.6035 103.086 14.9551L106.26 20.873ZM98.0176 13.5195H100.537C101.383 13.5195 102.028 13.3079 102.471 12.8848C102.92 12.4616 103.145 11.8984 103.145 11.1953C103.145 10.4466 102.93 9.86393 102.5 9.44727C102.07 9.0306 101.413 8.82227 100.527 8.82227H98.0176V13.5195ZM116.738 16.4785H109.854C109.899 17.0189 110.039 17.4974 110.273 17.9141C110.508 18.3307 110.824 18.6562 111.221 18.8906C111.624 19.125 112.093 19.2422 112.627 19.2422C113.721 19.2422 114.6 18.8125 115.264 17.9531L116.562 19.2129C116.178 19.7793 115.645 20.2513 114.961 20.6289C114.277 21.0065 113.451 21.1953 112.48 21.1953C111.452 21.1953 110.553 20.974 109.785 20.5312C109.017 20.082 108.428 19.4701 108.018 18.6953C107.607 17.9206 107.402 17.0514 107.402 16.0879V15.6875C107.402 14.6003 107.611 13.6465 108.027 12.8262C108.444 11.9993 109.017 11.3613 109.746 10.9121C110.475 10.4629 111.296 10.2383 112.207 10.2383C113.203 10.2383 114.04 10.4564 114.717 10.8926C115.394 11.3288 115.898 11.9408 116.23 12.7285C116.569 13.5098 116.738 14.418 116.738 15.4531V16.4785ZM114.336 14.5352C114.303 13.8516 114.118 13.2917 113.779 12.8555C113.441 12.4128 112.913 12.1914 112.197 12.1914C111.559 12.1914 111.045 12.4128 110.654 12.8555C110.264 13.2982 110.013 13.9199 109.902 14.7207H114.336V14.5352ZM122.197 16.5859C120.986 16.332 120.052 15.9577 119.395 15.4629C118.737 14.9681 118.408 14.2975 118.408 13.4512C118.408 12.8717 118.574 12.3379 118.906 11.8496C119.245 11.3548 119.723 10.9642 120.342 10.6777C120.967 10.3848 121.686 10.2383 122.5 10.2383C123.366 10.2383 124.118 10.3848 124.756 10.6777C125.4 10.9707 125.895 11.3743 126.24 11.8887C126.585 12.3965 126.758 12.9694 126.758 13.6074H124.326C124.326 13.3275 124.255 13.0703 124.111 12.8359C123.975 12.5951 123.77 12.403 123.496 12.2598C123.223 12.1165 122.891 12.0449 122.5 12.0449C121.947 12.0449 121.52 12.1686 121.221 12.416C120.921 12.6634 120.771 12.9727 120.771 13.3438C120.771 13.5781 120.833 13.7767 120.957 13.9395C121.087 14.1022 121.309 14.2487 121.621 14.3789C121.934 14.5091 122.367 14.6328 122.92 14.75C123.779 14.9323 124.492 15.1536 125.059 15.4141C125.625 15.6745 126.061 16.013 126.367 16.4297C126.673 16.8464 126.826 17.3672 126.826 17.9922C126.826 18.6107 126.647 19.1641 126.289 19.6523C125.938 20.1406 125.436 20.5215 124.785 20.7949C124.134 21.0618 123.382 21.1953 122.529 21.1953C121.605 21.1953 120.804 21.026 120.127 20.6875C119.45 20.349 118.936 19.9095 118.584 19.3691C118.232 18.8288 118.057 18.2591 118.057 17.6602H120.41C120.436 18.2526 120.654 18.6888 121.064 18.9688C121.481 19.2487 121.982 19.3887 122.568 19.3887C123.161 19.3887 123.62 19.2747 123.945 19.0469C124.277 18.8125 124.443 18.5033 124.443 18.1191C124.443 17.8717 124.385 17.6602 124.268 17.4844C124.15 17.3086 123.926 17.1458 123.594 16.9961C123.268 16.8464 122.803 16.7096 122.197 16.5859ZM137.627 10.4336V21H135.332L135.273 19.9551C134.583 20.7819 133.597 21.1953 132.314 21.1953C131.221 21.1953 130.365 20.8763 129.746 20.2383C129.128 19.6003 128.818 18.6074 128.818 17.2598V10.4336H131.25V17.2793C131.25 17.9694 131.4 18.4642 131.699 18.7637C132.005 19.0566 132.406 19.2031 132.9 19.2031C134.027 19.2031 134.788 18.8027 135.186 18.002V10.4336H137.627ZM151.543 10.2383C152.663 10.2383 153.519 10.554 154.111 11.1855C154.704 11.8105 155 12.8034 155 14.1641V21H152.568V14.1543C152.568 13.4316 152.412 12.9303 152.1 12.6504C151.794 12.3639 151.331 12.2207 150.713 12.2207C150.205 12.2207 149.779 12.3574 149.434 12.6309C149.095 12.9043 148.854 13.2721 148.711 13.7344L148.721 13.959V21H146.289V14.1836C146.289 13.474 146.13 12.9694 145.811 12.6699C145.498 12.3704 145.036 12.2207 144.424 12.2207C143.493 12.2207 142.832 12.6016 142.441 13.3633V21H140.01V10.4336H142.295L142.373 11.5469C142.731 11.1237 143.164 10.8014 143.672 10.5801C144.186 10.3522 144.769 10.2383 145.42 10.2383C146.084 10.2383 146.663 10.3717 147.158 10.6387C147.653 10.8991 148.034 11.3027 148.301 11.8496C148.659 11.3418 149.111 10.9479 149.658 10.668C150.205 10.3815 150.833 10.2383 151.543 10.2383ZM166.348 16.4785H159.463C159.508 17.0189 159.648 17.4974 159.883 17.9141C160.117 18.3307 160.433 18.6562 160.83 18.8906C161.234 19.125 161.702 19.2422 162.236 19.2422C163.33 19.2422 164.209 18.8125 164.873 17.9531L166.172 19.2129C165.788 19.7793 165.254 20.2513 164.57 20.6289C163.887 21.0065 163.06 21.1953 162.09 21.1953C161.061 21.1953 160.163 20.974 159.395 20.5312C158.626 20.082 158.037 19.4701 157.627 18.6953C157.217 17.9206 157.012 17.0514 157.012 16.0879V15.6875C157.012 14.6003 157.22 13.6465 157.637 12.8262C158.053 11.9993 158.626 11.3613 159.355 10.9121C160.085 10.4629 160.905 10.2383 161.816 10.2383C162.812 10.2383 163.649 10.4564 164.326 10.8926C165.003 11.3288 165.508 11.9408 165.84 12.7285C166.178 13.5098 166.348 14.418 166.348 15.4531V16.4785ZM163.945 14.5352C163.913 13.8516 163.727 13.2917 163.389 12.8555C163.05 12.4128 162.523 12.1914 161.807 12.1914C161.169 12.1914 160.654 12.4128 160.264 12.8555C159.873 13.2982 159.622 13.9199 159.512 14.7207H163.945V14.5352Z" fill="white"/>
</svg>
