<svg width="152" height="60" viewBox="0 0 152 60" fill="none" xmlns="http://www.w3.org/2000/svg">
<path d="M3.89941 37H1.81543V21.3594H3.89941V37ZM10.4414 30.082H3.44824V28.4062H10.4414V30.082ZM11.5049 23.0459H3.44824V21.3594H11.5049V23.0459ZM18.498 37.2148C17.4167 37.2148 16.4749 36.9749 15.6729 36.4951C14.8779 36.0081 14.2585 35.3421 13.8145 34.4971C13.3776 33.652 13.1592 32.6852 13.1592 31.5967V31.1348C13.1592 29.8743 13.3991 28.8001 13.8789 27.9121C14.3659 27.0169 14.9961 26.3366 15.7695 25.8711C16.5501 25.3984 17.3737 25.1621 18.2402 25.1621C19.3574 25.1621 20.2669 25.4128 20.9688 25.9141C21.6777 26.4082 22.1969 27.085 22.5264 27.9443C22.863 28.7965 23.0312 29.7633 23.0312 30.8447V31.7363H14.3516V30.125H21.0225V29.9746C20.9938 29.459 20.89 28.9577 20.7109 28.4707C20.5319 27.9766 20.2454 27.5719 19.8516 27.2568C19.4577 26.9346 18.9206 26.7734 18.2402 26.7734C17.6387 26.7734 17.1051 26.9453 16.6396 27.2891C16.1813 27.6257 15.8197 28.1198 15.5547 28.7715C15.2969 29.416 15.168 30.2038 15.168 31.1348V31.5967C15.168 32.3343 15.304 33.0075 15.5762 33.6162C15.8483 34.2178 16.2422 34.7012 16.7578 35.0664C17.2734 35.4245 17.8893 35.6035 18.6055 35.6035C19.3073 35.6035 19.9017 35.4603 20.3887 35.1738C20.8757 34.8874 21.3018 34.5042 21.667 34.0244L22.8809 34.9697C22.5085 35.5426 21.9714 36.0618 21.2695 36.5273C20.5749 36.9857 19.651 37.2148 18.498 37.2148ZM32.2051 29.0293C32.2051 28.3346 31.9974 27.7832 31.582 27.375C31.1738 26.9596 30.5687 26.752 29.7666 26.752C29.2725 26.752 28.8356 26.8379 28.4561 27.0098C28.0837 27.1816 27.7936 27.4072 27.5859 27.6865C27.3783 27.9658 27.2744 28.2702 27.2744 28.5996H25.2656C25.2656 28.041 25.4554 27.5003 25.835 26.9775C26.2145 26.4476 26.748 26.0143 27.4355 25.6777C28.1302 25.334 28.9466 25.1621 29.8848 25.1621C30.7298 25.1621 31.4782 25.3053 32.1299 25.5918C32.7816 25.8783 33.29 26.3115 33.6553 26.8916C34.0277 27.4645 34.2139 28.1842 34.2139 29.0508V34.4648C34.2139 34.8516 34.2461 35.2633 34.3105 35.7002C34.3822 36.137 34.486 36.513 34.6221 36.8281V37H32.5273C32.4271 36.7708 32.3483 36.4665 32.291 36.0869C32.2337 35.7002 32.2051 35.3421 32.2051 35.0127V29.0293ZM32.5703 31.3496H30.5723C29.4408 31.3496 28.5671 31.5286 27.9512 31.8867C27.3353 32.2448 27.0273 32.7819 27.0273 33.498C27.0273 34.0566 27.2135 34.5293 27.5859 34.916C27.9655 35.3027 28.5169 35.4961 29.2402 35.4961C29.849 35.4961 30.3861 35.3672 30.8516 35.1094C31.3171 34.8516 31.6859 34.5329 31.958 34.1533C32.2301 33.7738 32.377 33.4085 32.3984 33.0576L33.2578 34.0137C33.2077 34.3145 33.0716 34.6475 32.8496 35.0127C32.6276 35.3779 32.3304 35.7288 31.958 36.0654C31.5928 36.3949 31.1559 36.6706 30.6475 36.8926C30.1462 37.1074 29.5804 37.2148 28.9502 37.2148C28.1624 37.2148 27.4714 37.0645 26.877 36.7637C26.2897 36.4557 25.8314 36.0404 25.502 35.5176C25.1797 34.9948 25.0186 34.4147 25.0186 33.7773C25.0186 32.5241 25.4912 31.5752 26.4365 30.9307C27.3818 30.279 28.653 29.9531 30.25 29.9531H32.5488L32.5703 31.3496ZM42.2275 26.8916H35.9326V25.377H42.2275V26.8916ZM40.0576 22.5518V34.1211C40.0576 34.5221 40.1185 34.8229 40.2402 35.0234C40.362 35.224 40.5195 35.3564 40.7129 35.4209C40.9062 35.4854 41.1139 35.5176 41.3359 35.5176C41.5007 35.5176 41.6725 35.5033 41.8516 35.4746C42.0378 35.446 42.1738 35.4209 42.2598 35.3994L42.2705 37C42.113 37.0501 41.9053 37.0967 41.6475 37.1396C41.3968 37.1898 41.0924 37.2148 40.7344 37.2148C40.2474 37.2148 39.7998 37.1182 39.3916 36.9248C38.9834 36.7314 38.6576 36.4092 38.4141 35.958C38.1706 35.4997 38.0488 34.8838 38.0488 34.1104V22.5518H40.0576ZM51.6484 25.377H53.6572V37H51.7451L51.6484 34.3145V25.377ZM52.8623 31.8438C52.8623 32.875 52.7155 33.7952 52.4219 34.6045C52.1283 35.4137 51.6484 36.0511 50.9824 36.5166C50.3164 36.9821 49.4248 37.2148 48.3076 37.2148C47.1689 37.2148 46.2487 36.8783 45.5469 36.2051C44.8451 35.5319 44.4941 34.4219 44.4941 32.875V25.377H46.5029V32.8965C46.5029 33.5983 46.6032 34.1426 46.8037 34.5293C47.0114 34.9089 47.2764 35.1738 47.5986 35.3242C47.9281 35.4674 48.2718 35.5391 48.6299 35.5391C49.4749 35.5391 50.1445 35.3779 50.6387 35.0557C51.1328 34.7262 51.4873 34.2822 51.7021 33.7236C51.917 33.165 52.0244 32.5456 52.0244 31.8652L52.8623 31.8438ZM58.6846 37H56.6758V25.377H58.6309L58.6846 27.2031V37ZM62.3047 27.1494C62.1328 27.1136 61.9717 27.0921 61.8213 27.085C61.6781 27.0706 61.5133 27.0635 61.3271 27.0635C60.7184 27.0635 60.2028 27.1888 59.7803 27.4395C59.3649 27.6901 59.0426 28.0374 58.8135 28.4814C58.5843 28.9183 58.4411 29.4196 58.3838 29.9854L57.8145 30.3076C57.8145 29.3695 57.9398 28.5137 58.1904 27.7402C58.4411 26.9596 58.8314 26.3366 59.3613 25.8711C59.8984 25.3984 60.5859 25.1621 61.4238 25.1621C61.5599 25.1621 61.721 25.18 61.9072 25.2158C62.1006 25.2445 62.2331 25.2767 62.3047 25.3125V27.1494ZM68.9648 37.2148C67.8835 37.2148 66.9417 36.9749 66.1396 36.4951C65.3447 36.0081 64.7253 35.3421 64.2812 34.4971C63.8444 33.652 63.626 32.6852 63.626 31.5967V31.1348C63.626 29.8743 63.8659 28.8001 64.3457 27.9121C64.8327 27.0169 65.4629 26.3366 66.2363 25.8711C67.0169 25.3984 67.8405 25.1621 68.707 25.1621C69.8242 25.1621 70.7337 25.4128 71.4355 25.9141C72.1445 26.4082 72.6637 27.085 72.9932 27.9443C73.3298 28.7965 73.498 29.7633 73.498 30.8447V31.7363H64.8184V30.125H71.4893V29.9746C71.4606 29.459 71.3568 28.9577 71.1777 28.4707C70.9987 27.9766 70.7122 27.5719 70.3184 27.2568C69.9245 26.9346 69.3874 26.7734 68.707 26.7734C68.1055 26.7734 67.5719 26.9453 67.1064 27.2891C66.6481 27.6257 66.2865 28.1198 66.0215 28.7715C65.7637 29.416 65.6348 30.2038 65.6348 31.1348V31.5967C65.6348 32.3343 65.7708 33.0075 66.043 33.6162C66.3151 34.2178 66.709 34.7012 67.2246 35.0664C67.7402 35.4245 68.3561 35.6035 69.0723 35.6035C69.7741 35.6035 70.3685 35.4603 70.8555 35.1738C71.3424 34.8874 71.7686 34.5042 72.1338 34.0244L73.3477 34.9697C72.9753 35.5426 72.4382 36.0618 71.7363 36.5273C71.0417 36.9857 70.1178 37.2148 68.9648 37.2148ZM83.1445 20.5H85.1533V37H83.3164L83.1445 34.7441V20.5ZM75.335 31.0918C75.335 29.9102 75.5247 28.8753 75.9043 27.9873C76.291 27.0921 76.8281 26.3975 77.5156 25.9033C78.2031 25.4092 79.0088 25.1621 79.9326 25.1621C80.9066 25.1621 81.7194 25.3877 82.3711 25.8389C83.0228 26.2829 83.5312 26.9167 83.8965 27.7402C84.2689 28.5638 84.5088 29.5449 84.6162 30.6836V31.7256C84.5088 32.8499 84.2725 33.8239 83.9072 34.6475C83.542 35.4639 83.0299 36.0977 82.3711 36.5488C81.7194 36.9928 80.8994 37.2148 79.9111 37.2148C79.0016 37.2148 78.2031 36.9606 77.5156 36.4521C76.8281 35.9365 76.291 35.2347 75.9043 34.3467C75.5247 33.4587 75.335 32.4489 75.335 31.3174V31.0918ZM77.3438 31.3174C77.3438 32.0908 77.4476 32.7962 77.6553 33.4336C77.8701 34.071 78.2031 34.583 78.6543 34.9697C79.1055 35.3493 79.6891 35.5391 80.4053 35.5391C81.0641 35.5391 81.6048 35.3994 82.0273 35.1201C82.457 34.8408 82.8008 34.472 83.0586 34.0137C83.3164 33.5553 83.5169 33.0576 83.6602 32.5205V29.9102C83.5742 29.5163 83.4489 29.1367 83.2842 28.7715C83.1266 28.3991 82.9189 28.0697 82.6611 27.7832C82.4105 27.4896 82.099 27.2568 81.7266 27.085C81.3613 26.9131 80.9281 26.8271 80.4268 26.8271C79.7035 26.8271 79.1126 27.0205 78.6543 27.4072C78.2031 27.7939 77.8701 28.3132 77.6553 28.9648C77.4476 29.6094 77.3438 30.3184 77.3438 31.0918V31.3174ZM99.623 25.377H100.944L100.687 27.2891L97.6465 37H96.3682L96.6367 34.916L99.623 25.377ZM97.1953 35.0234L97.3672 37H96.0244L92.6514 25.377H94.6494L97.1953 35.0234ZM106.219 25.377H108.206L104.833 37H103.501L103.791 34.959L106.219 25.377ZM104.167 34.7656L104.489 37H103.211L100.085 27.2676L99.8379 25.377H101.245L104.167 34.7656ZM109.721 31.0703C109.721 29.946 109.936 28.9398 110.365 28.0518C110.795 27.1637 111.404 26.4619 112.191 25.9463C112.979 25.4235 113.914 25.1621 114.995 25.1621C116.091 25.1621 117.036 25.4235 117.831 25.9463C118.626 26.4619 119.235 27.1637 119.657 28.0518C120.087 28.9398 120.302 29.946 120.302 31.0703V31.3174C120.302 32.4346 120.087 33.4408 119.657 34.3359C119.235 35.224 118.626 35.9258 117.831 36.4414C117.043 36.957 116.105 37.2148 115.017 37.2148C113.928 37.2148 112.986 36.957 112.191 36.4414C111.404 35.9258 110.795 35.224 110.365 34.3359C109.936 33.4408 109.721 32.4346 109.721 31.3174V31.0703ZM111.729 31.3174C111.729 32.0837 111.851 32.7926 112.095 33.4443C112.338 34.096 112.7 34.6188 113.18 35.0127C113.667 35.4066 114.279 35.6035 115.017 35.6035C115.747 35.6035 116.352 35.4066 116.832 35.0127C117.319 34.6188 117.684 34.096 117.928 33.4443C118.171 32.7926 118.293 32.0837 118.293 31.3174V31.0703C118.293 30.304 118.171 29.5951 117.928 28.9434C117.684 28.2917 117.319 27.7689 116.832 27.375C116.345 26.974 115.733 26.7734 114.995 26.7734C114.272 26.7734 113.667 26.974 113.18 27.375C112.693 27.7689 112.327 28.2917 112.084 28.9434C111.848 29.5951 111.729 30.304 111.729 31.0703V31.3174ZM124.813 37H122.805V25.377H124.76L124.813 27.2031V37ZM128.434 27.1494C128.262 27.1136 128.101 27.0921 127.95 27.085C127.807 27.0706 127.642 27.0635 127.456 27.0635C126.847 27.0635 126.332 27.1888 125.909 27.4395C125.494 27.6901 125.172 28.0374 124.942 28.4814C124.713 28.9183 124.57 29.4196 124.513 29.9854L123.943 30.3076C123.943 29.3695 124.069 28.5137 124.319 27.7402C124.57 26.9596 124.96 26.3366 125.49 25.8711C126.027 25.3984 126.715 25.1621 127.553 25.1621C127.689 25.1621 127.85 25.18 128.036 25.2158C128.229 25.2445 128.362 25.2767 128.434 25.3125V27.1494ZM132.279 37H130.271V20.5H132.279V37ZM134.32 30.791L131.463 33.7344L131.302 31.6289L133.343 29.2119L136.931 25.377H139.369L134.32 30.791ZM133.407 31.4463L134.449 29.6846L139.906 37H137.543L133.407 31.4463ZM148.199 33.917C148.199 33.6305 148.135 33.3656 148.006 33.1221C147.884 32.8714 147.633 32.6458 147.254 32.4453C146.874 32.2376 146.301 32.055 145.535 31.8975C144.676 31.7184 143.931 31.4928 143.301 31.2207C142.678 30.9414 142.194 30.5869 141.851 30.1572C141.514 29.7275 141.346 29.194 141.346 28.5566C141.346 27.9408 141.521 27.3786 141.872 26.8701C142.23 26.3545 142.731 25.9427 143.376 25.6348C144.028 25.3197 144.787 25.1621 145.653 25.1621C146.584 25.1621 147.379 25.3268 148.038 25.6562C148.704 25.9785 149.213 26.4154 149.563 26.9668C149.914 27.5111 150.09 28.1162 150.09 28.7822H148.081C148.081 28.3024 147.87 27.8477 147.447 27.418C147.032 26.9883 146.434 26.7734 145.653 26.7734C145.109 26.7734 144.665 26.8594 144.321 27.0312C143.985 27.196 143.738 27.4108 143.58 27.6758C143.43 27.9336 143.354 28.2057 143.354 28.4922C143.354 28.7786 143.426 29.0293 143.569 29.2441C143.713 29.4518 143.974 29.638 144.354 29.8027C144.74 29.9674 145.299 30.1322 146.029 30.2969C146.982 30.5117 147.766 30.7695 148.382 31.0703C148.998 31.3711 149.456 31.7399 149.757 32.1768C150.058 32.6136 150.208 33.1471 150.208 33.7773C150.208 34.4505 150.022 35.0485 149.649 35.5713C149.277 36.0869 148.754 36.4915 148.081 36.7852C147.408 37.0716 146.617 37.2148 145.707 37.2148C144.683 37.2148 143.816 37.0322 143.107 36.667C142.398 36.3018 141.861 35.8327 141.496 35.2598C141.131 34.6797 140.948 34.0674 140.948 33.4229H142.957C142.993 33.9671 143.15 34.4004 143.43 34.7227C143.716 35.0378 144.063 35.2633 144.472 35.3994C144.887 35.5355 145.299 35.6035 145.707 35.6035C146.251 35.6035 146.706 35.5319 147.071 35.3887C147.444 35.2383 147.723 35.0378 147.909 34.7871C148.103 34.5293 148.199 34.2393 148.199 33.917Z" fill="#21243D"/>
</svg>
