<svg width="239" height="34" viewBox="0 0 239 34" fill="none" xmlns="http://www.w3.org/2000/svg">
<path d="M3.19043 19H1.48535V6.20312H3.19043V19ZM8.54297 13.3398H2.82129V11.9688H8.54297V13.3398ZM9.41309 7.58301H2.82129V6.20312H9.41309V7.58301ZM12.9639 19H11.3203V9.49023H12.9639V19ZM11.1973 6.95898C11.1973 6.70117 11.2764 6.48145 11.4346 6.2998C11.5986 6.11816 11.8389 6.02734 12.1553 6.02734C12.4717 6.02734 12.7119 6.11816 12.876 6.2998C13.0459 6.48145 13.1309 6.70117 13.1309 6.95898C13.1309 7.21094 13.0459 7.42773 12.876 7.60938C12.7119 7.78516 12.4717 7.87305 12.1553 7.87305C11.8389 7.87305 11.5986 7.78516 11.4346 7.60938C11.2764 7.42773 11.1973 7.21094 11.1973 6.95898ZM23.2119 9.49023V18.7979C23.2119 19.6357 23.0391 20.3506 22.6934 20.9424C22.3535 21.5342 21.8789 21.9824 21.2695 22.2871C20.666 22.5977 19.9688 22.7529 19.1777 22.7529C18.8496 22.7529 18.4629 22.7002 18.0176 22.5947C17.5781 22.4951 17.1445 22.3223 16.7168 22.0762C16.2949 21.8359 15.9404 21.5107 15.6533 21.1006L16.5059 20.1426C16.9043 20.623 17.3203 20.957 17.7539 21.1445C18.1934 21.3379 18.627 21.4346 19.0547 21.4346C19.8223 21.4346 20.4316 21.2148 20.8828 20.7754C21.3398 20.3418 21.5684 19.709 21.5684 18.877V11.582L21.7178 9.49023H23.2119ZM15.1699 14.166C15.1699 13.1992 15.3223 12.3525 15.627 11.626C15.9316 10.8936 16.3652 10.3252 16.9277 9.9209C17.4902 9.5166 18.1582 9.31445 18.9316 9.31445C19.5293 9.31445 20.0508 9.41992 20.4961 9.63086C20.9473 9.83594 21.3281 10.1348 21.6387 10.5273C21.9551 10.9199 22.2041 11.3945 22.3857 11.9512C22.5732 12.5078 22.7021 13.1348 22.7725 13.832V14.6846C22.6846 15.6045 22.4883 16.4014 22.1836 17.0752C21.8848 17.7432 21.4658 18.2617 20.9268 18.6309C20.3877 18.9941 19.7168 19.1758 18.9141 19.1758C18.1523 19.1758 17.4902 18.9678 16.9277 18.5518C16.3711 18.1299 15.9375 17.5557 15.627 16.8291C15.3223 16.1025 15.1699 15.2764 15.1699 14.3506V14.166ZM16.8135 14.3506C16.8135 14.9834 16.8984 15.5605 17.0684 16.082C17.2441 16.6035 17.5166 17.0225 17.8857 17.3389C18.2549 17.6494 18.7324 17.8047 19.3184 17.8047C19.8574 17.8047 20.2998 17.6904 20.6455 17.4619C20.9912 17.2334 21.2695 16.9316 21.4805 16.5566C21.6914 16.1816 21.8555 15.7744 21.9727 15.335V13.1992C21.9023 12.877 21.8027 12.5664 21.6738 12.2676C21.5449 11.9629 21.375 11.6934 21.1641 11.459C20.9531 11.2188 20.6953 11.0283 20.3906 10.8877C20.0918 10.7471 19.7402 10.6768 19.3359 10.6768C18.7441 10.6768 18.2607 10.835 17.8857 11.1514C17.5166 11.4678 17.2441 11.8926 17.0684 12.4258C16.8984 12.9531 16.8135 13.5332 16.8135 14.166V14.3506ZM27.2988 19H25.6553V9.49023H27.2109L27.2988 11.3799V19ZM26.2002 13.8496C26.2061 12.9824 26.3525 12.209 26.6396 11.5293C26.9326 10.8438 27.3633 10.3047 27.9316 9.91211C28.5059 9.51367 29.2178 9.31445 30.0674 9.31445C30.958 9.31445 31.6934 9.5752 32.2734 10.0967C32.8535 10.6182 33.1436 11.4736 33.1436 12.6631V19H31.5V12.7422C31.5 12.2441 31.415 11.8457 31.2451 11.5469C31.0811 11.2422 30.8467 11.0225 30.542 10.8877C30.2373 10.7471 29.8799 10.6768 29.4697 10.6768C28.9951 10.6768 28.5967 10.7617 28.2744 10.9316C27.958 11.1016 27.7031 11.3359 27.5098 11.6348C27.3164 11.9336 27.1758 12.2764 27.0879 12.6631C27.0059 13.0439 26.9648 13.4482 26.9648 13.876L26.2002 13.8496ZM32.0273 13.3135C32.0332 12.6221 32.1797 11.9717 32.4668 11.3623C32.7598 10.7529 33.1875 10.2607 33.75 9.88574C34.3125 9.50488 34.998 9.31445 35.8066 9.31445C36.4863 9.31445 37.0635 9.43457 37.5381 9.6748C38.0127 9.91504 38.373 10.2871 38.6191 10.791C38.8652 11.2949 38.9883 11.9482 38.9883 12.751V19H37.3447V12.7334C37.3447 12.2002 37.2598 11.7842 37.0898 11.4854C36.9258 11.1865 36.6914 10.9785 36.3867 10.8613C36.0879 10.7383 35.7334 10.6768 35.3232 10.6768C34.9658 10.6768 34.6494 10.7383 34.374 10.8613C34.1045 10.9844 33.876 11.1543 33.6885 11.3711C33.5068 11.582 33.3662 11.8252 33.2666 12.1006C33.1729 12.376 33.126 12.6689 33.126 12.9795L32.0273 13.3135ZM47.0566 12.4785C47.0566 11.9102 46.8867 11.459 46.5469 11.125C46.2129 10.7852 45.7178 10.6152 45.0615 10.6152C44.6572 10.6152 44.2998 10.6855 43.9893 10.8262C43.6846 10.9668 43.4473 11.1514 43.2773 11.3799C43.1074 11.6084 43.0225 11.8574 43.0225 12.127H41.3789C41.3789 11.6699 41.5342 11.2275 41.8447 10.7998C42.1553 10.3662 42.5918 10.0117 43.1543 9.73633C43.7227 9.45508 44.3906 9.31445 45.1582 9.31445C45.8496 9.31445 46.4619 9.43164 46.9951 9.66602C47.5283 9.90039 47.9443 10.2549 48.2432 10.7295C48.5479 11.1982 48.7002 11.7871 48.7002 12.4961V16.9258C48.7002 17.2422 48.7266 17.5791 48.7793 17.9365C48.8379 18.2939 48.9229 18.6016 49.0342 18.8594V19H47.3203C47.2383 18.8125 47.1738 18.5635 47.127 18.2529C47.0801 17.9365 47.0566 17.6436 47.0566 17.374V12.4785ZM47.3555 14.377H45.7207C44.7949 14.377 44.0801 14.5234 43.5762 14.8164C43.0723 15.1094 42.8203 15.5488 42.8203 16.1348C42.8203 16.5918 42.9727 16.9785 43.2773 17.2949C43.5879 17.6113 44.0391 17.7695 44.6309 17.7695C45.1289 17.7695 45.5684 17.6641 45.9492 17.4531C46.3301 17.2422 46.6318 16.9814 46.8545 16.6709C47.0771 16.3604 47.1973 16.0615 47.2148 15.7744L47.918 16.5566C47.877 16.8027 47.7656 17.0752 47.584 17.374C47.4023 17.6729 47.1592 17.96 46.8545 18.2354C46.5557 18.5049 46.1982 18.7305 45.7822 18.9121C45.3721 19.0879 44.9092 19.1758 44.3936 19.1758C43.749 19.1758 43.1836 19.0527 42.6973 18.8066C42.2168 18.5547 41.8418 18.2148 41.5723 17.7871C41.3086 17.3594 41.1768 16.8848 41.1768 16.3633C41.1768 15.3379 41.5635 14.5615 42.3369 14.0342C43.1104 13.501 44.1504 13.2344 45.457 13.2344H47.3379L47.3555 14.377ZM52.752 18.376C52.752 18.9092 52.6172 19.4717 52.3477 20.0635C52.0781 20.6553 51.6973 21.1504 51.2051 21.5488L50.2734 20.916C50.4609 20.6582 50.6191 20.3975 50.748 20.1338C50.877 19.8701 50.9736 19.5947 51.0381 19.3076C51.1084 19.0205 51.1436 18.7188 51.1436 18.4023V17.0752H52.752V18.376ZM61.3564 19H59.6514V6.20312H61.3564V19ZM67.9922 17.8574C68.3789 17.8574 68.7363 17.7783 69.0645 17.6201C69.3926 17.4561 69.6621 17.2334 69.873 16.9521C70.084 16.6709 70.2041 16.3516 70.2334 15.9941H71.7891C71.7598 16.5566 71.5693 17.0811 71.2178 17.5674C70.8662 18.0479 70.4092 18.4375 69.8467 18.7363C69.2842 19.0293 68.666 19.1758 67.9922 19.1758C67.0371 19.1758 66.2461 18.959 65.6191 18.5254C64.9922 18.0859 64.5234 17.5059 64.2129 16.7852C63.9082 16.0645 63.7559 15.2793 63.7559 14.4297V14.0605C63.7559 13.2051 63.9111 12.4199 64.2217 11.7051C64.5322 10.9844 65.001 10.4072 65.6279 9.97363C66.2549 9.53418 67.043 9.31445 67.9922 9.31445C68.7363 9.31445 69.3867 9.4668 69.9434 9.77148C70.5059 10.0703 70.9453 10.4805 71.2617 11.002C71.584 11.5176 71.7598 12.1035 71.7891 12.7598H70.2334C70.2041 12.3672 70.0928 12.0098 69.8994 11.6875C69.7119 11.3652 69.4541 11.1104 69.126 10.9229C68.8037 10.7295 68.4258 10.6328 67.9922 10.6328C67.3301 10.6328 66.8086 10.8027 66.4277 11.1426C66.0527 11.4824 65.7861 11.916 65.6279 12.4434C65.4756 12.9648 65.3994 13.5039 65.3994 14.0605V14.4297C65.3994 14.9863 65.4756 15.5283 65.6279 16.0557C65.7803 16.583 66.0439 17.0166 66.4189 17.3564C66.7998 17.6904 67.3242 17.8574 67.9922 17.8574ZM73.1953 14.1484C73.1953 13.2285 73.3711 12.4053 73.7227 11.6787C74.0742 10.9521 74.5723 10.3779 75.2168 9.95605C75.8613 9.52832 76.626 9.31445 77.5107 9.31445C78.4072 9.31445 79.1807 9.52832 79.8311 9.95605C80.4814 10.3779 80.9795 10.9521 81.3252 11.6787C81.6768 12.4053 81.8525 13.2285 81.8525 14.1484V14.3506C81.8525 15.2646 81.6768 16.0879 81.3252 16.8203C80.9795 17.5469 80.4814 18.1211 79.8311 18.543C79.1865 18.9648 78.4189 19.1758 77.5283 19.1758C76.6377 19.1758 75.8672 18.9648 75.2168 18.543C74.5723 18.1211 74.0742 17.5469 73.7227 16.8203C73.3711 16.0879 73.1953 15.2646 73.1953 14.3506V14.1484ZM74.8389 14.3506C74.8389 14.9775 74.9385 15.5576 75.1377 16.0908C75.3369 16.624 75.6328 17.0518 76.0254 17.374C76.4238 17.6963 76.9248 17.8574 77.5283 17.8574C78.126 17.8574 78.6211 17.6963 79.0137 17.374C79.4121 17.0518 79.7109 16.624 79.9102 16.0908C80.1094 15.5576 80.209 14.9775 80.209 14.3506V14.1484C80.209 13.5215 80.1094 12.9414 79.9102 12.4082C79.7109 11.875 79.4121 11.4473 79.0137 11.125C78.6152 10.7969 78.1143 10.6328 77.5107 10.6328C76.9189 10.6328 76.4238 10.7969 76.0254 11.125C75.627 11.4473 75.3281 11.875 75.1289 12.4082C74.9355 12.9414 74.8389 13.5215 74.8389 14.1484V14.3506ZM85.5439 19H83.9004V9.49023H85.4561L85.5439 11.5205V19ZM84.4717 13.8496C84.4834 12.9824 84.6504 12.209 84.9727 11.5293C85.2949 10.8438 85.7432 10.3047 86.3174 9.91211C86.8975 9.51367 87.5713 9.31445 88.3389 9.31445C88.9658 9.31445 89.5049 9.43164 89.9561 9.66602C90.4131 9.89453 90.7646 10.2607 91.0107 10.7646C91.2627 11.2686 91.3887 11.9365 91.3887 12.7686V19H89.7451V12.751C89.7451 12.2529 89.6719 11.8516 89.5254 11.5469C89.3848 11.2422 89.1738 11.0225 88.8926 10.8877C88.6113 10.7471 88.2656 10.6768 87.8555 10.6768C87.4512 10.6768 87.085 10.7617 86.7568 10.9316C86.4287 11.1016 86.1445 11.3359 85.9043 11.6348C85.6641 11.9336 85.4795 12.2764 85.3506 12.6631C85.2217 13.0439 85.1572 13.4482 85.1572 13.876L84.4717 13.8496ZM99.3604 19L99.3779 17.6289H102.032C102.94 17.6289 103.699 17.4385 104.309 17.0576C104.918 16.6709 105.375 16.1318 105.68 15.4404C105.99 14.7432 106.146 13.9258 106.146 12.9883V12.1973C106.146 11.2188 105.99 10.3867 105.68 9.70117C105.375 9.01562 104.927 8.49121 104.335 8.12793C103.743 7.76465 103.025 7.58301 102.182 7.58301H99.3076V6.20312H102.182C103.307 6.20312 104.291 6.44922 105.135 6.94141C105.984 7.42773 106.646 8.12207 107.121 9.02441C107.596 9.9209 107.833 10.9844 107.833 12.2148V12.9883C107.833 14.2246 107.596 15.291 107.121 16.1875C106.646 17.084 105.976 17.7783 105.108 18.2705C104.241 18.7568 103.216 19 102.032 19H99.3604ZM100.274 19H98.5693V6.20312H100.274V19ZM114.082 19.1758C113.197 19.1758 112.427 18.9795 111.771 18.5869C111.12 18.1885 110.613 17.6436 110.25 16.9521C109.893 16.2607 109.714 15.4697 109.714 14.5791V14.2012C109.714 13.1699 109.91 12.291 110.303 11.5645C110.701 10.832 111.217 10.2754 111.85 9.89453C112.488 9.50781 113.162 9.31445 113.871 9.31445C114.785 9.31445 115.529 9.51953 116.104 9.92969C116.684 10.334 117.108 10.8877 117.378 11.5908C117.653 12.2881 117.791 13.0791 117.791 13.9639V14.6934H110.689V13.375H116.147V13.252C116.124 12.8301 116.039 12.4199 115.893 12.0215C115.746 11.6172 115.512 11.2861 115.189 11.0283C114.867 10.7646 114.428 10.6328 113.871 10.6328C113.379 10.6328 112.942 10.7734 112.562 11.0547C112.187 11.3301 111.891 11.7344 111.674 12.2676C111.463 12.7949 111.357 13.4395 111.357 14.2012V14.5791C111.357 15.1826 111.469 15.7334 111.691 16.2314C111.914 16.7236 112.236 17.1191 112.658 17.418C113.08 17.7109 113.584 17.8574 114.17 17.8574C114.744 17.8574 115.23 17.7402 115.629 17.5059C116.027 17.2715 116.376 16.958 116.675 16.5654L117.668 17.3389C117.363 17.8076 116.924 18.2324 116.35 18.6133C115.781 18.9883 115.025 19.1758 114.082 19.1758ZM125.227 16.4775C125.227 16.2432 125.174 16.0264 125.068 15.8271C124.969 15.6221 124.764 15.4375 124.453 15.2734C124.143 15.1035 123.674 14.9541 123.047 14.8252C122.344 14.6787 121.734 14.4941 121.219 14.2715C120.709 14.043 120.313 13.7529 120.032 13.4014C119.757 13.0498 119.619 12.6133 119.619 12.0918C119.619 11.5879 119.763 11.1279 120.05 10.7119C120.343 10.29 120.753 9.95312 121.28 9.70117C121.813 9.44336 122.435 9.31445 123.144 9.31445C123.905 9.31445 124.556 9.44922 125.095 9.71875C125.64 9.98242 126.056 10.3398 126.343 10.791C126.63 11.2363 126.773 11.7314 126.773 12.2764H125.13C125.13 11.8838 124.957 11.5117 124.611 11.1602C124.271 10.8086 123.782 10.6328 123.144 10.6328C122.698 10.6328 122.335 10.7031 122.054 10.8438C121.778 10.9785 121.576 11.1543 121.447 11.3711C121.324 11.582 121.263 11.8047 121.263 12.0391C121.263 12.2734 121.321 12.4785 121.438 12.6543C121.556 12.8242 121.77 12.9766 122.08 13.1113C122.396 13.2461 122.854 13.3809 123.451 13.5156C124.23 13.6914 124.872 13.9023 125.376 14.1484C125.88 14.3945 126.255 14.6963 126.501 15.0537C126.747 15.4111 126.87 15.8477 126.87 16.3633C126.87 16.9141 126.718 17.4033 126.413 17.8311C126.108 18.2529 125.681 18.584 125.13 18.8242C124.579 19.0586 123.932 19.1758 123.188 19.1758C122.35 19.1758 121.641 19.0264 121.061 18.7275C120.48 18.4287 120.041 18.0449 119.742 17.5762C119.443 17.1016 119.294 16.6006 119.294 16.0732H120.938C120.967 16.5186 121.096 16.873 121.324 17.1367C121.559 17.3945 121.843 17.5791 122.177 17.6904C122.517 17.8018 122.854 17.8574 123.188 17.8574C123.633 17.8574 124.005 17.7988 124.304 17.6816C124.608 17.5586 124.837 17.3945 124.989 17.1895C125.147 16.9785 125.227 16.7412 125.227 16.4775ZM130.772 19H129.129V9.49023H130.772V19ZM129.006 6.95898C129.006 6.70117 129.085 6.48145 129.243 6.2998C129.407 6.11816 129.647 6.02734 129.964 6.02734C130.28 6.02734 130.521 6.11816 130.685 6.2998C130.854 6.48145 130.939 6.70117 130.939 6.95898C130.939 7.21094 130.854 7.42773 130.685 7.60938C130.521 7.78516 130.28 7.87305 129.964 7.87305C129.647 7.87305 129.407 7.78516 129.243 7.60938C129.085 7.42773 129.006 7.21094 129.006 6.95898ZM141.021 9.49023V18.7979C141.021 19.6357 140.848 20.3506 140.502 20.9424C140.162 21.5342 139.688 21.9824 139.078 22.2871C138.475 22.5977 137.777 22.7529 136.986 22.7529C136.658 22.7529 136.271 22.7002 135.826 22.5947C135.387 22.4951 134.953 22.3223 134.525 22.0762C134.104 21.8359 133.749 21.5107 133.462 21.1006L134.314 20.1426C134.713 20.623 135.129 20.957 135.562 21.1445C136.002 21.3379 136.436 21.4346 136.863 21.4346C137.631 21.4346 138.24 21.2148 138.691 20.7754C139.148 20.3418 139.377 19.709 139.377 18.877V11.582L139.526 9.49023H141.021ZM132.979 14.166C132.979 13.1992 133.131 12.3525 133.436 11.626C133.74 10.8936 134.174 10.3252 134.736 9.9209C135.299 9.5166 135.967 9.31445 136.74 9.31445C137.338 9.31445 137.859 9.41992 138.305 9.63086C138.756 9.83594 139.137 10.1348 139.447 10.5273C139.764 10.9199 140.013 11.3945 140.194 11.9512C140.382 12.5078 140.511 13.1348 140.581 13.832V14.6846C140.493 15.6045 140.297 16.4014 139.992 17.0752C139.693 17.7432 139.274 18.2617 138.735 18.6309C138.196 18.9941 137.525 19.1758 136.723 19.1758C135.961 19.1758 135.299 18.9678 134.736 18.5518C134.18 18.1299 133.746 17.5557 133.436 16.8291C133.131 16.1025 132.979 15.2764 132.979 14.3506V14.166ZM134.622 14.3506C134.622 14.9834 134.707 15.5605 134.877 16.082C135.053 16.6035 135.325 17.0225 135.694 17.3389C136.063 17.6494 136.541 17.8047 137.127 17.8047C137.666 17.8047 138.108 17.6904 138.454 17.4619C138.8 17.2334 139.078 16.9316 139.289 16.5566C139.5 16.1816 139.664 15.7744 139.781 15.335V13.1992C139.711 12.877 139.611 12.5664 139.482 12.2676C139.354 11.9629 139.184 11.6934 138.973 11.459C138.762 11.2188 138.504 11.0283 138.199 10.8877C137.9 10.7471 137.549 10.6768 137.145 10.6768C136.553 10.6768 136.069 10.835 135.694 11.1514C135.325 11.4678 135.053 11.8926 134.877 12.4258C134.707 12.9531 134.622 13.5332 134.622 14.166V14.3506ZM145.116 19H143.473V9.49023H145.028L145.116 11.5205V19ZM144.044 13.8496C144.056 12.9824 144.223 12.209 144.545 11.5293C144.867 10.8438 145.315 10.3047 145.89 9.91211C146.47 9.51367 147.144 9.31445 147.911 9.31445C148.538 9.31445 149.077 9.43164 149.528 9.66602C149.985 9.89453 150.337 10.2607 150.583 10.7646C150.835 11.2686 150.961 11.9365 150.961 12.7686V19H149.317V12.751C149.317 12.2529 149.244 11.8516 149.098 11.5469C148.957 11.2422 148.746 11.0225 148.465 10.8877C148.184 10.7471 147.838 10.6768 147.428 10.6768C147.023 10.6768 146.657 10.7617 146.329 10.9316C146.001 11.1016 145.717 11.3359 145.477 11.6348C145.236 11.9336 145.052 12.2764 144.923 12.6631C144.794 13.0439 144.729 13.4482 144.729 13.876L144.044 13.8496Z" fill="#21243D"/>
</svg>
