<svg width="506" height="105" viewBox="0 0 506 105" fill="none" xmlns="http://www.w3.org/2000/svg">
<path d="M23.5254 30.7227H7.45508V25.2871H23.5254V30.7227ZM9.45312 44H2.68555V12.7188H9.45312V44ZM28.3594 44H21.6133V12.7188H28.3594V44ZM40.2188 44H33.709V20.7539H40.2188V44ZM33.3223 14.7598C33.3223 13.7858 33.6517 12.9909 34.3105 12.375C34.9694 11.7448 35.8503 11.4297 36.9531 11.4297C38.056 11.4297 38.9297 11.7448 39.5742 12.375C40.2331 12.9909 40.5625 13.7858 40.5625 14.7598C40.5625 15.7194 40.2331 16.5143 39.5742 17.1445C38.9297 17.7747 38.056 18.0898 36.9531 18.0898C35.8503 18.0898 34.9694 17.7747 34.3105 17.1445C33.6517 16.5143 33.3223 15.7194 33.3223 14.7598ZM51.3262 42.9688C51.3262 44.6302 50.918 46.2917 50.1016 47.9531C49.2852 49.6146 48.2539 50.9753 47.0078 52.0352L43.6562 50.3164C44 49.6719 44.3438 49.013 44.6875 48.3398C45.0456 47.681 45.3392 46.9434 45.5684 46.127C45.7975 45.3105 45.9121 44.3796 45.9121 43.334V38.6289H51.3477L51.3262 42.9688ZM74.7441 44H67.998V12.7188H74.7441V44ZM103.619 28.5098C103.619 27.4642 103.361 26.6335 102.846 26.0176C102.33 25.4017 101.507 25.0938 100.375 25.0938C99.7305 25.0938 99.1719 25.2012 98.6992 25.416C98.2266 25.6309 97.8685 25.9388 97.625 26.3398C97.3815 26.7266 97.2598 27.2064 97.2598 27.7793H90.7715C90.7715 26.4043 91.1797 25.1582 91.9961 24.041C92.8125 22.9095 93.9655 22.0072 95.4551 21.334C96.9447 20.6608 98.6992 20.3242 100.719 20.3242C102.523 20.3242 104.135 20.6322 105.553 21.248C106.971 21.8496 108.088 22.7591 108.904 23.9766C109.721 25.194 110.129 26.7194 110.129 28.5527V38.2637C110.129 39.6387 110.208 40.7272 110.365 41.5293C110.537 42.3314 110.773 43.0332 111.074 43.6348V44H104.543C104.228 43.3411 103.992 42.5176 103.834 41.5293C103.691 40.541 103.619 39.5384 103.619 38.5215V28.5098ZM104.5 33.5156H101.191C99.6159 33.5156 98.4772 33.8594 97.7754 34.5469C97.0736 35.2201 96.7227 36.0365 96.7227 36.9961C96.7227 37.7266 96.9805 38.3281 97.4961 38.8008C98.0117 39.2734 98.7064 39.5098 99.5801 39.5098C100.482 39.5098 101.256 39.3379 101.9 38.9941C102.559 38.6361 103.061 38.2135 103.404 37.7266C103.762 37.2253 103.934 36.7669 103.92 36.3516L105.596 39.1445C105.367 39.7174 105.059 40.3118 104.672 40.9277C104.299 41.5436 103.82 42.1165 103.232 42.6465C102.645 43.1764 101.929 43.6061 101.084 43.9355C100.253 44.265 99.2721 44.4297 98.1406 44.4297C96.6797 44.4297 95.3477 44.1361 94.1445 43.5488C92.9414 42.9473 91.9889 42.1237 91.2871 41.0781C90.5853 40.0182 90.2344 38.8079 90.2344 37.4473C90.2344 35.0124 91.1367 33.1289 92.9414 31.7969C94.7461 30.4505 97.4316 29.7773 100.998 29.7773H104.457L104.5 33.5156ZM121.258 44H114.77V20.7539H120.871L121.258 25.6094V44ZM118.572 31.6895C118.572 29.4837 118.916 27.5286 119.604 25.8242C120.291 24.1198 121.308 22.7806 122.654 21.8066C124.015 20.8184 125.698 20.3242 127.703 20.3242C129.766 20.3242 131.449 20.9616 132.752 22.2363C134.055 23.4967 134.707 25.5807 134.707 28.4883V44H128.219V29.2832C128.219 28.2949 128.083 27.5358 127.811 27.0059C127.553 26.4616 127.173 26.0892 126.672 25.8887C126.171 25.6882 125.569 25.5879 124.867 25.5879C124.108 25.5879 123.442 25.7383 122.869 26.0391C122.296 26.3255 121.824 26.7409 121.451 27.2852C121.079 27.8294 120.799 28.474 120.613 29.2188C120.441 29.9492 120.355 30.7441 120.355 31.6035L118.572 31.6895ZM131.807 31.4316C131.792 29.3262 132.115 27.4355 132.773 25.7598C133.447 24.084 134.449 22.7591 135.781 21.7852C137.113 20.8112 138.768 20.3242 140.744 20.3242C142.234 20.3242 143.537 20.6107 144.654 21.1836C145.771 21.7565 146.638 22.6947 147.254 23.998C147.87 25.3014 148.178 27.0488 148.178 29.2402V44H141.646V29.2188C141.646 28.2161 141.51 27.457 141.238 26.9414C140.98 26.4258 140.601 26.0749 140.1 25.8887C139.613 25.6882 139.025 25.5879 138.338 25.5879C137.622 25.5879 136.999 25.724 136.469 25.9961C135.953 26.2682 135.516 26.6621 135.158 27.1777C134.814 27.679 134.549 28.2734 134.363 28.9609C134.191 29.6341 134.105 30.3717 134.105 31.1738L131.807 31.4316ZM176.73 12.7188H183.455V34.3105C183.455 36.4017 182.99 38.2064 182.059 39.7246C181.142 41.2285 179.889 42.3887 178.299 43.2051C176.709 44.0215 174.911 44.4297 172.906 44.4297C170.858 44.4297 169.032 44.0859 167.428 43.3984C165.838 42.6966 164.585 41.6296 163.668 40.1973C162.766 38.7507 162.314 36.9173 162.314 34.6973H169.104C169.104 36.3301 169.44 37.4544 170.113 38.0703C170.801 38.6862 171.732 38.9941 172.906 38.9941C173.68 38.9941 174.353 38.8151 174.926 38.457C175.499 38.0846 175.943 37.5547 176.258 36.8672C176.573 36.1654 176.73 35.3132 176.73 34.3105V12.7188ZM187.451 32.1621C187.451 29.8991 187.881 27.8796 188.74 26.1035C189.6 24.3132 190.853 22.9023 192.5 21.8711C194.147 20.8398 196.145 20.3242 198.494 20.3242C200.872 20.3242 202.884 20.8398 204.531 21.8711C206.193 22.9023 207.446 24.3132 208.291 26.1035C209.15 27.8796 209.58 29.8991 209.58 32.1621V32.6133C209.58 34.862 209.15 36.8815 208.291 38.6719C207.446 40.4622 206.2 41.873 204.553 42.9043C202.906 43.9212 200.9 44.4297 198.537 44.4297C196.174 44.4297 194.161 43.9212 192.5 42.9043C190.853 41.873 189.6 40.4622 188.74 38.6719C187.881 36.8815 187.451 34.862 187.451 32.6133V32.1621ZM193.961 32.6133C193.961 33.8307 194.104 34.9408 194.391 35.9434C194.691 36.946 195.171 37.7409 195.83 38.3281C196.503 38.9154 197.406 39.209 198.537 39.209C199.654 39.209 200.542 38.9154 201.201 38.3281C201.874 37.7409 202.354 36.946 202.641 35.9434C202.941 34.9408 203.092 33.8307 203.092 32.6133V32.1621C203.092 30.9733 202.941 29.8776 202.641 28.875C202.354 27.8581 201.874 27.0488 201.201 26.4473C200.542 25.8457 199.64 25.5449 198.494 25.5449C197.377 25.5449 196.482 25.8457 195.809 26.4473C195.15 27.0488 194.677 27.8581 194.391 28.875C194.104 29.8776 193.961 30.9733 193.961 32.1621V32.6133ZM219.635 44H213.125V11H219.635V44ZM216.971 31.6895C216.971 29.4837 217.329 27.5286 218.045 25.8242C218.775 24.1198 219.799 22.7806 221.117 21.8066C222.435 20.8184 223.975 20.3242 225.736 20.3242C227.269 20.3242 228.608 20.625 229.754 21.2266C230.914 21.8138 231.816 22.7734 232.461 24.1055C233.12 25.4232 233.449 27.1921 233.449 29.4121V44H226.939V29.3691C226.939 28.3952 226.796 27.6361 226.51 27.0918C226.238 26.5332 225.829 26.1465 225.285 25.9316C224.755 25.7025 224.104 25.5879 223.33 25.5879C222.471 25.5879 221.747 25.7383 221.16 26.0391C220.573 26.3255 220.093 26.7409 219.721 27.2852C219.363 27.8294 219.105 28.474 218.947 29.2188C218.79 29.9492 218.711 30.7441 218.711 31.6035L216.971 31.6895ZM244.342 44H237.854V20.7539H243.955L244.342 25.7168V44ZM241.678 31.6895C241.678 29.3405 242.057 27.321 242.816 25.6309C243.576 23.9264 244.643 22.6159 246.018 21.6992C247.393 20.7826 248.99 20.3242 250.809 20.3242C252.27 20.3242 253.544 20.6107 254.633 21.1836C255.736 21.7565 256.595 22.6947 257.211 23.998C257.841 25.2871 258.156 27.0417 258.156 29.2617V44H251.646V29.2188C251.646 28.2591 251.503 27.5215 251.217 27.0059C250.945 26.4759 250.544 26.1107 250.014 25.9102C249.484 25.6953 248.832 25.5879 248.059 25.5879C247.271 25.5879 246.583 25.7383 245.996 26.0391C245.423 26.3255 244.943 26.7409 244.557 27.2852C244.184 27.8294 243.905 28.474 243.719 29.2188C243.533 29.9492 243.439 30.7441 243.439 31.6035L241.678 31.6895ZM268.834 42.9688C268.834 44.6302 268.426 46.2917 267.609 47.9531C266.793 49.6146 265.762 50.9753 264.516 52.0352L261.164 50.3164C261.508 49.6719 261.852 49.013 262.195 48.3398C262.553 47.681 262.847 46.9434 263.076 46.127C263.305 45.3105 263.42 44.3796 263.42 43.334V38.6289H268.855L268.834 42.9688ZM27.457 93.5156C27.3281 95.6354 26.748 97.5189 25.7168 99.166C24.6855 100.813 23.2461 102.102 21.3984 103.033C19.5651 103.964 17.3594 104.43 14.7812 104.43C12.0885 104.43 9.76823 103.821 7.82031 102.604C5.8724 101.372 4.37565 99.6243 3.33008 97.3613C2.28451 95.0983 1.76172 92.4199 1.76172 89.3262V87.4141C1.76172 84.306 2.29883 81.6204 3.37305 79.3574C4.46159 77.0944 5.97982 75.347 7.92773 74.1152C9.87565 72.8835 12.1745 72.2676 14.8242 72.2676C17.4596 72.2676 19.6797 72.7546 21.4844 73.7285C23.3034 74.6882 24.707 76.0059 25.6953 77.6816C26.6979 79.3574 27.2995 81.2695 27.5 83.418H20.7539C20.625 81.5846 20.1237 80.1953 19.25 79.25C18.3906 78.2904 16.9154 77.8105 14.8242 77.8105C13.4349 77.8105 12.2819 78.1471 11.3652 78.8203C10.4486 79.4935 9.76107 80.5391 9.30273 81.957C8.8444 83.3607 8.61523 85.1654 8.61523 87.3711V89.3262C8.61523 91.4889 8.81576 93.2793 9.2168 94.6973C9.63216 96.1152 10.291 97.1751 11.1934 97.877C12.0957 98.5645 13.2917 98.9082 14.7812 98.9082C16.0846 98.9082 17.1589 98.7148 18.0039 98.3281C18.849 97.9271 19.4935 97.3255 19.9375 96.5234C20.3815 95.7214 20.6465 94.7188 20.7324 93.5156H27.457ZM37.6406 104H31.1523V80.7539H37.2539L37.6406 86.1035V104ZM44.4297 86.8555C44.1146 86.8125 43.7422 86.7767 43.3125 86.748C42.8828 86.7051 42.4961 86.6836 42.1523 86.6836C41.0208 86.6836 40.0898 86.8626 39.3594 87.2207C38.6289 87.5645 38.0846 88.0801 37.7266 88.7676C37.3685 89.4551 37.1751 90.3073 37.1465 91.3242L35.8789 90.7656C35.8789 88.7461 36.1367 86.9486 36.6523 85.373C37.168 83.7975 37.9271 82.5658 38.9297 81.6777C39.9323 80.7754 41.1497 80.3242 42.582 80.3242C42.9115 80.3242 43.2552 80.3457 43.6133 80.3887C43.9857 80.4316 44.2865 80.5033 44.5156 80.6035L44.4297 86.8555ZM58.2012 104.43C55.752 104.43 53.6536 103.921 51.9062 102.904C50.1732 101.887 48.8411 100.527 47.9102 98.8223C46.9935 97.1178 46.5352 95.2344 46.5352 93.1719V92.334C46.5352 90.0137 46.972 87.9512 47.8457 86.1465C48.7337 84.3275 49.9941 82.9023 51.627 81.8711C53.2598 80.8398 55.2077 80.3242 57.4707 80.3242C59.7194 80.3242 61.61 80.7969 63.1426 81.7422C64.6751 82.6875 65.8353 84.0195 66.623 85.7383C67.4108 87.4427 67.8047 89.4479 67.8047 91.7539V94.5039H49.2637V90.1426H61.4238V89.627C61.4238 88.8249 61.2806 88.1159 60.9941 87.5C60.7077 86.8841 60.2708 86.4043 59.6836 86.0605C59.1107 85.7168 58.3587 85.5449 57.4277 85.5449C56.3678 85.5449 55.5156 85.8457 54.8711 86.4473C54.2266 87.0488 53.7539 87.8581 53.4531 88.875C53.1667 89.8919 53.0234 91.0449 53.0234 92.334V93.1719C53.0234 94.3607 53.2454 95.4062 53.6895 96.3086C54.1335 97.2109 54.7708 97.9199 55.6016 98.4355C56.4323 98.9368 57.4349 99.1875 58.6094 99.1875C59.7122 99.1875 60.7435 98.987 61.7031 98.5859C62.6628 98.1706 63.4792 97.526 64.1523 96.6523L67.2891 100.24C66.5586 101.286 65.4271 102.245 63.8945 103.119C62.3763 103.993 60.4785 104.43 58.2012 104.43ZM83.6387 88.5098C83.6387 87.4642 83.3809 86.6335 82.8652 86.0176C82.3496 85.4017 81.526 85.0938 80.3945 85.0938C79.75 85.0938 79.1914 85.2012 78.7188 85.416C78.2461 85.6309 77.888 85.9388 77.6445 86.3398C77.401 86.7266 77.2793 87.2064 77.2793 87.7793H70.791C70.791 86.4043 71.1992 85.1582 72.0156 84.041C72.832 82.9095 73.985 82.0072 75.4746 81.334C76.9642 80.6608 78.7188 80.3242 80.7383 80.3242C82.543 80.3242 84.1543 80.6322 85.5723 81.248C86.9902 81.8496 88.1074 82.7591 88.9238 83.9766C89.7402 85.194 90.1484 86.7194 90.1484 88.5527V98.2637C90.1484 99.6387 90.2272 100.727 90.3848 101.529C90.5566 102.331 90.793 103.033 91.0938 103.635V104H84.5625C84.2474 103.341 84.0111 102.518 83.8535 101.529C83.7103 100.541 83.6387 99.5384 83.6387 98.5215V88.5098ZM84.5195 93.5156H81.2109C79.6354 93.5156 78.4967 93.8594 77.7949 94.5469C77.0931 95.2201 76.7422 96.0365 76.7422 96.9961C76.7422 97.7266 77 98.3281 77.5156 98.8008C78.0312 99.2734 78.7259 99.5098 79.5996 99.5098C80.502 99.5098 81.2754 99.3379 81.9199 98.9941C82.5788 98.6361 83.0801 98.2135 83.4238 97.7266C83.7819 97.2253 83.9538 96.7669 83.9395 96.3516L85.6152 99.1445C85.3861 99.7174 85.0781 100.312 84.6914 100.928C84.319 101.544 83.8392 102.117 83.252 102.646C82.6647 103.176 81.9486 103.606 81.1035 103.936C80.2728 104.265 79.2917 104.43 78.1602 104.43C76.6992 104.43 75.3672 104.136 74.1641 103.549C72.9609 102.947 72.0085 102.124 71.3066 101.078C70.6048 100.018 70.2539 98.8079 70.2539 97.4473C70.2539 95.0124 71.1562 93.1289 72.9609 91.7969C74.7656 90.4505 77.4512 89.7773 81.0176 89.7773H84.4766L84.5195 93.5156ZM106.412 85.4805H92.6836V80.7539H106.412V85.4805ZM102.48 75.0176V96.7383C102.48 97.3685 102.559 97.8555 102.717 98.1992C102.889 98.543 103.154 98.7793 103.512 98.9082C103.87 99.0371 104.314 99.1016 104.844 99.1016C105.23 99.1016 105.574 99.0872 105.875 99.0586C106.176 99.0299 106.434 98.9941 106.648 98.9512L106.627 103.85C106.097 104.036 105.517 104.179 104.887 104.279C104.271 104.38 103.576 104.43 102.803 104.43C101.413 104.43 100.203 104.201 99.1719 103.742C98.1549 103.27 97.3672 102.525 96.8086 101.508C96.2643 100.477 95.9922 99.1302 95.9922 97.4688V75.0176H102.48ZM116.574 104H110.064V80.7539H116.574V104ZM109.678 74.7598C109.678 73.7858 110.007 72.9909 110.666 72.375C111.325 71.7448 112.206 71.4297 113.309 71.4297C114.411 71.4297 115.285 71.7448 115.93 72.375C116.589 72.9909 116.918 73.7858 116.918 74.7598C116.918 75.7194 116.589 76.5143 115.93 77.1445C115.285 77.7747 114.411 78.0898 113.309 78.0898C112.206 78.0898 111.325 77.7747 110.666 77.1445C110.007 76.5143 109.678 75.7194 109.678 74.7598ZM134.514 80.7539H141.303L133.525 104H129.422L129.551 99.209L134.514 80.7539ZM131.248 99.2305L131.355 104H127.252L119.453 80.7539H126.285L131.248 99.2305ZM154.795 104.43C152.346 104.43 150.247 103.921 148.5 102.904C146.767 101.887 145.435 100.527 144.504 98.8223C143.587 97.1178 143.129 95.2344 143.129 93.1719V92.334C143.129 90.0137 143.566 87.9512 144.439 86.1465C145.327 84.3275 146.588 82.9023 148.221 81.8711C149.854 80.8398 151.801 80.3242 154.064 80.3242C156.313 80.3242 158.204 80.7969 159.736 81.7422C161.269 82.6875 162.429 84.0195 163.217 85.7383C164.005 87.4427 164.398 89.4479 164.398 91.7539V94.5039H145.857V90.1426H158.018V89.627C158.018 88.8249 157.874 88.1159 157.588 87.5C157.301 86.8841 156.865 86.4043 156.277 86.0605C155.704 85.7168 154.952 85.5449 154.021 85.5449C152.962 85.5449 152.109 85.8457 151.465 86.4473C150.82 87.0488 150.348 87.8581 150.047 88.875C149.76 89.8919 149.617 91.0449 149.617 92.334V93.1719C149.617 94.3607 149.839 95.4062 150.283 96.3086C150.727 97.2109 151.365 97.9199 152.195 98.4355C153.026 98.9368 154.029 99.1875 155.203 99.1875C156.306 99.1875 157.337 98.987 158.297 98.5859C159.257 98.1706 160.073 97.526 160.746 96.6523L163.883 100.24C163.152 101.286 162.021 102.245 160.488 103.119C158.97 103.993 157.072 104.43 154.795 104.43ZM192.672 104H185.926V72.7188H192.672V104ZM202.168 78.1758H176.559V72.7188H202.168V78.1758ZM216.197 104.43C213.748 104.43 211.65 103.921 209.902 102.904C208.169 101.887 206.837 100.527 205.906 98.8223C204.99 97.1178 204.531 95.2344 204.531 93.1719V92.334C204.531 90.0137 204.968 87.9512 205.842 86.1465C206.73 84.3275 207.99 82.9023 209.623 81.8711C211.256 80.8398 213.204 80.3242 215.467 80.3242C217.715 80.3242 219.606 80.7969 221.139 81.7422C222.671 82.6875 223.831 84.0195 224.619 85.7383C225.407 87.4427 225.801 89.4479 225.801 91.7539V94.5039H207.26V90.1426H219.42V89.627C219.42 88.8249 219.277 88.1159 218.99 87.5C218.704 86.8841 218.267 86.4043 217.68 86.0605C217.107 85.7168 216.355 85.5449 215.424 85.5449C214.364 85.5449 213.512 85.8457 212.867 86.4473C212.223 87.0488 211.75 87.8581 211.449 88.875C211.163 89.8919 211.02 91.0449 211.02 92.334V93.1719C211.02 94.3607 211.242 95.4062 211.686 96.3086C212.13 97.2109 212.767 97.9199 213.598 98.4355C214.428 98.9368 215.431 99.1875 216.605 99.1875C217.708 99.1875 218.74 98.987 219.699 98.5859C220.659 98.1706 221.475 97.526 222.148 96.6523L225.285 100.24C224.555 101.286 223.423 102.245 221.891 103.119C220.372 103.993 218.475 104.43 216.197 104.43ZM238.906 99.209C239.637 99.209 240.281 99.0729 240.84 98.8008C241.398 98.5286 241.828 98.1419 242.129 97.6406C242.444 97.1393 242.609 96.5449 242.623 95.8574H248.725C248.71 97.5332 248.273 99.0156 247.414 100.305C246.555 101.594 245.395 102.604 243.934 103.334C242.473 104.064 240.833 104.43 239.014 104.43C236.607 104.43 234.602 103.907 232.998 102.861C231.408 101.816 230.212 100.405 229.41 98.6289C228.622 96.8529 228.229 94.8691 228.229 92.6777V92.0977C228.229 89.8919 228.622 87.901 229.41 86.125C230.212 84.349 231.408 82.9382 232.998 81.8926C234.602 80.847 236.6 80.3242 238.992 80.3242C240.911 80.3242 242.594 80.6966 244.041 81.4414C245.502 82.1719 246.641 83.2246 247.457 84.5996C248.288 85.9603 248.71 87.5931 248.725 89.498H242.623C242.609 88.7676 242.458 88.1087 242.172 87.5215C241.9 86.9199 241.484 86.4401 240.926 86.082C240.367 85.724 239.68 85.5449 238.863 85.5449C237.717 85.5449 236.844 85.8529 236.242 86.4688C235.655 87.0846 235.254 87.8939 235.039 88.8965C234.824 89.8848 234.717 90.9518 234.717 92.0977V92.6777C234.717 93.8379 234.817 94.9193 235.018 95.9219C235.232 96.9102 235.641 97.7051 236.242 98.3066C236.858 98.9082 237.746 99.209 238.906 99.209ZM258.521 104H252.012V71H258.521V104ZM255.857 91.6895C255.857 89.4837 256.215 87.5286 256.932 85.8242C257.662 84.1198 258.686 82.7806 260.004 81.8066C261.322 80.8184 262.861 80.3242 264.623 80.3242C266.156 80.3242 267.495 80.625 268.641 81.2266C269.801 81.8138 270.703 82.7734 271.348 84.1055C272.007 85.4232 272.336 87.1921 272.336 89.4121V104H265.826V89.3691C265.826 88.3952 265.683 87.6361 265.396 87.0918C265.124 86.5332 264.716 86.1465 264.172 85.9316C263.642 85.7025 262.99 85.5879 262.217 85.5879C261.357 85.5879 260.634 85.7383 260.047 86.0391C259.46 86.3255 258.98 86.7409 258.607 87.2852C258.249 87.8294 257.992 88.474 257.834 89.2188C257.676 89.9492 257.598 90.7441 257.598 91.6035L255.857 91.6895ZM283.229 104H276.74V80.7539H282.842L283.229 85.7168V104ZM280.564 91.6895C280.564 89.3405 280.944 87.321 281.703 85.6309C282.462 83.9264 283.529 82.6159 284.904 81.6992C286.279 80.7826 287.876 80.3242 289.695 80.3242C291.156 80.3242 292.431 80.6107 293.52 81.1836C294.622 81.7565 295.482 82.6947 296.098 83.998C296.728 85.2871 297.043 87.0417 297.043 89.2617V104H290.533V89.2188C290.533 88.2591 290.39 87.5215 290.104 87.0059C289.831 86.4759 289.43 86.1107 288.9 85.9102C288.37 85.6953 287.719 85.5879 286.945 85.5879C286.158 85.5879 285.47 85.7383 284.883 86.0391C284.31 86.3255 283.83 86.7409 283.443 87.2852C283.071 87.8294 282.792 88.474 282.605 89.2188C282.419 89.9492 282.326 90.7441 282.326 91.6035L280.564 91.6895ZM300.631 92.1621C300.631 89.8991 301.061 87.8796 301.92 86.1035C302.779 84.3132 304.033 82.9023 305.68 81.8711C307.327 80.8398 309.325 80.3242 311.674 80.3242C314.051 80.3242 316.064 80.8398 317.711 81.8711C319.372 82.9023 320.626 84.3132 321.471 86.1035C322.33 87.8796 322.76 89.8991 322.76 92.1621V92.6133C322.76 94.862 322.33 96.8815 321.471 98.6719C320.626 100.462 319.38 101.873 317.732 102.904C316.085 103.921 314.08 104.43 311.717 104.43C309.354 104.43 307.341 103.921 305.68 102.904C304.033 101.873 302.779 100.462 301.92 98.6719C301.061 96.8815 300.631 94.862 300.631 92.6133V92.1621ZM307.141 92.6133C307.141 93.8307 307.284 94.9408 307.57 95.9434C307.871 96.946 308.351 97.7409 309.01 98.3281C309.683 98.9154 310.585 99.209 311.717 99.209C312.834 99.209 313.722 98.9154 314.381 98.3281C315.054 97.7409 315.534 96.946 315.82 95.9434C316.121 94.9408 316.271 93.8307 316.271 92.6133V92.1621C316.271 90.9733 316.121 89.8776 315.82 88.875C315.534 87.8581 315.054 87.0488 314.381 86.4473C313.722 85.8457 312.82 85.5449 311.674 85.5449C310.557 85.5449 309.661 85.8457 308.988 86.4473C308.329 87.0488 307.857 87.8581 307.57 88.875C307.284 89.8776 307.141 90.9733 307.141 92.1621V92.6133ZM333.309 104H326.799V71H333.309V104ZM337.326 92.1621C337.326 89.8991 337.756 87.8796 338.615 86.1035C339.475 84.3132 340.728 82.9023 342.375 81.8711C344.022 80.8398 346.02 80.3242 348.369 80.3242C350.747 80.3242 352.759 80.8398 354.406 81.8711C356.068 82.9023 357.321 84.3132 358.166 86.1035C359.025 87.8796 359.455 89.8991 359.455 92.1621V92.6133C359.455 94.862 359.025 96.8815 358.166 98.6719C357.321 100.462 356.075 101.873 354.428 102.904C352.781 103.921 350.775 104.43 348.412 104.43C346.049 104.43 344.036 103.921 342.375 102.904C340.728 101.873 339.475 100.462 338.615 98.6719C337.756 96.8815 337.326 94.862 337.326 92.6133V92.1621ZM343.836 92.6133C343.836 93.8307 343.979 94.9408 344.266 95.9434C344.566 96.946 345.046 97.7409 345.705 98.3281C346.378 98.9154 347.281 99.209 348.412 99.209C349.529 99.209 350.417 98.9154 351.076 98.3281C351.749 97.7409 352.229 96.946 352.516 95.9434C352.816 94.9408 352.967 93.8307 352.967 92.6133V92.1621C352.967 90.9733 352.816 89.8776 352.516 88.875C352.229 87.8581 351.749 87.0488 351.076 86.4473C350.417 85.8457 349.515 85.5449 348.369 85.5449C347.252 85.5449 346.357 85.8457 345.684 86.4473C345.025 87.0488 344.552 87.8581 344.266 88.875C343.979 89.8776 343.836 90.9733 343.836 92.1621V92.6133ZM383.732 80.7539V103.162C383.732 105.296 383.253 107.108 382.293 108.598C381.348 110.087 380.023 111.219 378.318 111.992C376.614 112.766 374.637 113.152 372.389 113.152C371.429 113.152 370.405 113.023 369.316 112.766C368.228 112.508 367.182 112.114 366.18 111.584C365.191 111.054 364.368 110.381 363.709 109.564L366.545 105.59C367.232 106.363 368.049 106.972 368.994 107.416C369.939 107.874 370.978 108.104 372.109 108.104C373.728 108.104 374.981 107.674 375.869 106.814C376.771 105.969 377.223 104.752 377.223 103.162V86.1895L377.846 80.7539H383.732ZM362.248 92.2051C362.248 89.8418 362.628 87.7721 363.387 85.9961C364.16 84.2057 365.256 82.8164 366.674 81.8281C368.092 80.8255 369.775 80.3242 371.723 80.3242C373.284 80.3242 374.587 80.625 375.633 81.2266C376.693 81.8138 377.552 82.6445 378.211 83.7188C378.87 84.793 379.385 86.0605 379.758 87.5215C380.13 88.9681 380.431 90.5436 380.66 92.248V92.7852C380.359 94.9479 379.872 96.9102 379.199 98.6719C378.526 100.434 377.581 101.837 376.363 102.883C375.146 103.914 373.585 104.43 371.68 104.43C369.746 104.43 368.07 103.921 366.652 102.904C365.249 101.873 364.16 100.469 363.387 98.6934C362.628 96.9173 362.248 94.9049 362.248 92.6562V92.2051ZM368.758 92.6562C368.758 93.8594 368.923 94.9551 369.252 95.9434C369.581 96.9316 370.083 97.7194 370.756 98.3066C371.429 98.8796 372.288 99.166 373.334 99.166C374.437 99.166 375.325 98.9368 375.998 98.4785C376.686 98.0059 377.201 97.3542 377.545 96.5234C377.903 95.6927 378.104 94.7331 378.146 93.6445V91.4102C378.118 90.4792 378.003 89.6556 377.803 88.9395C377.602 88.209 377.309 87.6003 376.922 87.1133C376.535 86.612 376.048 86.2324 375.461 85.9746C374.888 85.7168 374.193 85.5879 373.377 85.5879C372.346 85.5879 371.486 85.8815 370.799 86.4688C370.111 87.0417 369.596 87.8294 369.252 88.832C368.923 89.8203 368.758 90.9447 368.758 92.2051V92.6562ZM395.184 104H388.674V80.7539H395.184V104ZM388.287 74.7598C388.287 73.7858 388.617 72.9909 389.275 72.375C389.934 71.7448 390.815 71.4297 391.918 71.4297C393.021 71.4297 393.895 71.7448 394.539 72.375C395.198 72.9909 395.527 73.7858 395.527 74.7598C395.527 75.7194 395.198 76.5143 394.539 77.1445C393.895 77.7747 393.021 78.0898 391.918 78.0898C390.815 78.0898 389.934 77.7747 389.275 77.1445C388.617 76.5143 388.287 75.7194 388.287 74.7598ZM412.629 97.5117C412.629 97.082 412.5 96.7096 412.242 96.3945C411.999 96.0794 411.54 95.7858 410.867 95.5137C410.194 95.2415 409.22 94.9694 407.945 94.6973C406.384 94.3535 404.973 93.888 403.713 93.3008C402.467 92.7135 401.486 91.9544 400.77 91.0234C400.053 90.0781 399.695 88.9395 399.695 87.6074C399.695 86.304 400.068 85.1009 400.812 83.998C401.557 82.8952 402.624 82.0072 404.014 81.334C405.417 80.6608 407.093 80.3242 409.041 80.3242C411.075 80.3242 412.829 80.6465 414.305 81.291C415.78 81.9355 416.911 82.8236 417.699 83.9551C418.487 85.0866 418.881 86.3828 418.881 87.8438H412.393C412.393 86.9701 412.12 86.2611 411.576 85.7168C411.046 85.1582 410.194 84.8789 409.02 84.8789C408.389 84.8789 407.838 84.9863 407.365 85.2012C406.893 85.416 406.527 85.7025 406.27 86.0605C406.026 86.4043 405.904 86.8125 405.904 87.2852C405.904 87.7148 406.04 88.0944 406.312 88.4238C406.585 88.7533 407.029 89.0397 407.645 89.2832C408.26 89.5267 409.084 89.7415 410.115 89.9277C411.762 90.2428 413.252 90.6797 414.584 91.2383C415.916 91.7826 416.976 92.5345 417.764 93.4941C418.551 94.4395 418.945 95.6999 418.945 97.2754C418.945 98.6504 418.537 99.8822 417.721 100.971C416.919 102.045 415.773 102.89 414.283 103.506C412.808 104.122 411.068 104.43 409.062 104.43C406.871 104.43 405.023 104.036 403.52 103.248C402.016 102.46 400.877 101.465 400.104 100.262C399.33 99.0443 398.943 97.8053 398.943 96.5449H405.088C405.131 97.3184 405.339 97.9486 405.711 98.4355C406.098 98.9225 406.592 99.2806 407.193 99.5098C407.809 99.7389 408.482 99.8535 409.213 99.8535C409.958 99.8535 410.581 99.7604 411.082 99.5742C411.598 99.3737 411.984 99.1016 412.242 98.7578C412.5 98.3997 412.629 97.9844 412.629 97.5117ZM434.436 85.4805H420.707V80.7539H434.436V85.4805ZM430.504 75.0176V96.7383C430.504 97.3685 430.583 97.8555 430.74 98.1992C430.912 98.543 431.177 98.7793 431.535 98.9082C431.893 99.0371 432.337 99.1016 432.867 99.1016C433.254 99.1016 433.598 99.0872 433.898 99.0586C434.199 99.0299 434.457 98.9941 434.672 98.9512L434.65 103.85C434.12 104.036 433.54 104.179 432.91 104.279C432.294 104.38 431.6 104.43 430.826 104.43C429.437 104.43 428.227 104.201 427.195 103.742C426.178 103.27 425.391 102.525 424.832 101.508C424.288 100.477 424.016 99.1302 424.016 97.4688V75.0176H430.504Z" fill="#21243D"/>
</svg>
