<svg width="374" height="34" viewBox="0 0 374 34" fill="none" xmlns="http://www.w3.org/2000/svg">
<path d="M3.68164 21H1.78711V6.78125H3.68164V21ZM8.79883 21H6.97266V6H8.79883V21ZM13.6621 21H11.8359V6H13.6621V21ZM23.0078 10.4336H24.834V21H23.0957L23.0078 18.5586V10.4336ZM24.1113 16.3125C24.1113 17.25 23.9779 18.0866 23.7109 18.8223C23.444 19.5579 23.0078 20.1374 22.4023 20.5605C21.7969 20.9837 20.9863 21.1953 19.9707 21.1953C18.9355 21.1953 18.099 20.8893 17.4609 20.2773C16.8229 19.6654 16.5039 18.6562 16.5039 17.25V10.4336H18.3301V17.2695C18.3301 17.9076 18.4212 18.4023 18.6035 18.7539C18.7923 19.099 19.0332 19.3398 19.3262 19.4766C19.6257 19.6068 19.9382 19.6719 20.2637 19.6719C21.0319 19.6719 21.6406 19.5254 22.0898 19.2324C22.5391 18.9329 22.8613 18.5293 23.0566 18.0215C23.252 17.5137 23.3496 16.9505 23.3496 16.332L24.1113 16.3125ZM33.7305 18.1973C33.7305 17.9368 33.6719 17.696 33.5547 17.4746C33.444 17.2467 33.2161 17.0417 32.8711 16.8594C32.526 16.6706 32.0052 16.5046 31.3086 16.3613C30.5273 16.1986 29.8503 15.9935 29.2773 15.7461C28.7109 15.4922 28.2715 15.1699 27.959 14.7793C27.653 14.3887 27.5 13.9036 27.5 13.3242C27.5 12.7643 27.6595 12.2533 27.9785 11.791C28.304 11.3223 28.7598 10.9479 29.3457 10.668C29.9382 10.3815 30.6283 10.2383 31.416 10.2383C32.2624 10.2383 32.985 10.388 33.584 10.6875C34.1895 10.9805 34.6517 11.3776 34.9707 11.8789C35.2897 12.3737 35.4492 12.9238 35.4492 13.5293H33.623C33.623 13.0931 33.431 12.6797 33.0469 12.2891C32.6693 11.8984 32.1257 11.7031 31.416 11.7031C30.9212 11.7031 30.5176 11.7812 30.2051 11.9375C29.8991 12.0872 29.6745 12.2826 29.5312 12.5234C29.3945 12.7578 29.3262 13.0052 29.3262 13.2656C29.3262 13.526 29.3913 13.7539 29.5215 13.9492C29.6517 14.138 29.8893 14.3073 30.2344 14.457C30.5859 14.6068 31.0938 14.7565 31.7578 14.9062C32.6237 15.1016 33.3366 15.3359 33.8965 15.6094C34.4564 15.8828 34.873 16.2181 35.1465 16.6152C35.4199 17.0124 35.5566 17.4974 35.5566 18.0703C35.5566 18.6823 35.3874 19.2259 35.0488 19.7012C34.7103 20.1699 34.235 20.5378 33.623 20.8047C33.0111 21.0651 32.2917 21.1953 31.4648 21.1953C30.5339 21.1953 29.7461 21.0293 29.1016 20.6973C28.457 20.3652 27.9688 19.9388 27.6367 19.418C27.3047 18.8906 27.1387 18.334 27.1387 17.748H28.9648C28.9974 18.2428 29.1406 18.6367 29.3945 18.9297C29.6549 19.2161 29.9707 19.4212 30.3418 19.5449C30.7194 19.6686 31.0938 19.7305 31.4648 19.7305C31.9596 19.7305 32.373 19.6654 32.7051 19.5352C33.0436 19.3984 33.2975 19.2161 33.4668 18.9883C33.6426 18.7539 33.7305 18.4902 33.7305 18.1973ZM42.3535 11.8105H36.6309V10.4336H42.3535V11.8105ZM40.3809 7.86523V18.3828C40.3809 18.7474 40.4362 19.0208 40.5469 19.2031C40.6576 19.3854 40.8008 19.5059 40.9766 19.5645C41.1523 19.623 41.3411 19.6523 41.543 19.6523C41.6927 19.6523 41.849 19.6393 42.0117 19.6133C42.181 19.5872 42.3047 19.5645 42.3828 19.5449L42.3926 21C42.2493 21.0456 42.0605 21.0879 41.8262 21.127C41.5983 21.1725 41.3216 21.1953 40.9961 21.1953C40.5534 21.1953 40.1465 21.1074 39.7754 20.9316C39.4043 20.7559 39.1081 20.4629 38.8867 20.0527C38.6654 19.6361 38.5547 19.0762 38.5547 18.373V7.86523H40.3809ZM46.2793 21H44.4531V10.4336H46.2305L46.2793 12.0938V21ZM49.5703 12.0449C49.4141 12.0124 49.2676 11.9928 49.1309 11.9863C49.0007 11.9733 48.8509 11.9668 48.6816 11.9668C48.1283 11.9668 47.6595 12.0807 47.2754 12.3086C46.8978 12.5365 46.6048 12.8522 46.3965 13.2559C46.1882 13.653 46.0579 14.1087 46.0059 14.623L45.4883 14.916C45.4883 14.0632 45.6022 13.2852 45.8301 12.582C46.0579 11.8724 46.4128 11.306 46.8945 10.8828C47.3828 10.4531 48.0078 10.2383 48.7695 10.2383C48.8932 10.2383 49.0397 10.2546 49.209 10.2871C49.3848 10.3132 49.5052 10.3424 49.5703 10.375V12.0449ZM57.1484 13.7539C57.1484 13.1224 56.9596 12.6211 56.582 12.25C56.2109 11.8724 55.6608 11.6836 54.9316 11.6836C54.4824 11.6836 54.0853 11.7617 53.7402 11.918C53.4017 12.0742 53.138 12.2793 52.9492 12.5332C52.7604 12.7871 52.666 13.0638 52.666 13.3633H50.8398C50.8398 12.8555 51.0124 12.3639 51.3574 11.8887C51.7025 11.4069 52.1875 11.013 52.8125 10.707C53.444 10.3945 54.1862 10.2383 55.0391 10.2383C55.8073 10.2383 56.4876 10.3685 57.0801 10.6289C57.6725 10.8893 58.1348 11.2832 58.4668 11.8105C58.8053 12.3314 58.9746 12.9857 58.9746 13.7734V18.6953C58.9746 19.0469 59.0039 19.4212 59.0625 19.8184C59.1276 20.2155 59.222 20.5573 59.3457 20.8438V21H57.4414C57.3503 20.7917 57.2786 20.515 57.2266 20.1699C57.1745 19.8184 57.1484 19.4928 57.1484 19.1934V13.7539ZM57.4805 15.8633H55.6641C54.6354 15.8633 53.8411 16.026 53.2812 16.3516C52.7214 16.6771 52.4414 17.1654 52.4414 17.8164C52.4414 18.3242 52.6107 18.7539 52.9492 19.1055C53.2943 19.457 53.7956 19.6328 54.4531 19.6328C55.0065 19.6328 55.4948 19.5156 55.918 19.2812C56.3411 19.0469 56.6764 18.7572 56.9238 18.4121C57.1712 18.0671 57.3047 17.735 57.3242 17.416L58.1055 18.2852C58.0599 18.5586 57.9362 18.8613 57.7344 19.1934C57.5326 19.5254 57.2624 19.8444 56.9238 20.1504C56.5918 20.4499 56.1947 20.7005 55.7324 20.9023C55.2767 21.0977 54.7624 21.1953 54.1895 21.1953C53.4733 21.1953 52.8451 21.0586 52.3047 20.7852C51.7708 20.5052 51.3542 20.1276 51.0547 19.6523C50.7617 19.1771 50.6152 18.6497 50.6152 18.0703C50.6152 16.931 51.0449 16.0684 51.9043 15.4824C52.7637 14.89 53.9193 14.5938 55.3711 14.5938H57.4609L57.4805 15.8633ZM66.2598 11.8105H60.5371V10.4336H66.2598V11.8105ZM64.2871 7.86523V18.3828C64.2871 18.7474 64.3424 19.0208 64.4531 19.2031C64.5638 19.3854 64.707 19.5059 64.8828 19.5645C65.0586 19.623 65.2474 19.6523 65.4492 19.6523C65.599 19.6523 65.7552 19.6393 65.918 19.6133C66.0872 19.5872 66.2109 19.5645 66.2891 19.5449L66.2988 21C66.1556 21.0456 65.9668 21.0879 65.7324 21.127C65.5046 21.1725 65.2279 21.1953 64.9023 21.1953C64.4596 21.1953 64.0527 21.1074 63.6816 20.9316C63.3105 20.7559 63.0143 20.4629 62.793 20.0527C62.5716 19.6361 62.4609 19.0762 62.4609 18.373V7.86523H64.2871ZM70.3418 21H68.5156V10.4336H70.3418V21ZM68.3789 7.62109C68.3789 7.33464 68.4668 7.09049 68.6426 6.88867C68.8249 6.68685 69.0918 6.58594 69.4434 6.58594C69.7949 6.58594 70.0618 6.68685 70.2441 6.88867C70.4329 7.09049 70.5273 7.33464 70.5273 7.62109C70.5273 7.90104 70.4329 8.14193 70.2441 8.34375C70.0618 8.53906 69.7949 8.63672 69.4434 8.63672C69.0918 8.63672 68.8249 8.53906 68.6426 8.34375C68.4668 8.14193 68.3789 7.90104 68.3789 7.62109ZM72.7539 15.6094C72.7539 14.5872 72.9492 13.6725 73.3398 12.8652C73.7305 12.0579 74.2839 11.4199 75 10.9512C75.7161 10.4759 76.5658 10.2383 77.5488 10.2383C78.5449 10.2383 79.4043 10.4759 80.127 10.9512C80.8496 11.4199 81.403 12.0579 81.7871 12.8652C82.1777 13.6725 82.373 14.5872 82.373 15.6094V15.834C82.373 16.8496 82.1777 17.7643 81.7871 18.5781C81.403 19.3854 80.8496 20.0234 80.127 20.4922C79.4108 20.9609 78.5579 21.1953 77.5684 21.1953C76.5788 21.1953 75.7227 20.9609 75 20.4922C74.2839 20.0234 73.7305 19.3854 73.3398 18.5781C72.9492 17.7643 72.7539 16.8496 72.7539 15.834V15.6094ZM74.5801 15.834C74.5801 16.5306 74.6908 17.1751 74.9121 17.7676C75.1335 18.36 75.4622 18.8353 75.8984 19.1934C76.3411 19.5514 76.8978 19.7305 77.5684 19.7305C78.2324 19.7305 78.7826 19.5514 79.2188 19.1934C79.6615 18.8353 79.9935 18.36 80.2148 17.7676C80.4362 17.1751 80.5469 16.5306 80.5469 15.834V15.6094C80.5469 14.9128 80.4362 14.2682 80.2148 13.6758C79.9935 13.0833 79.6615 12.6081 79.2188 12.25C78.776 11.8854 78.2194 11.7031 77.5488 11.7031C76.8913 11.7031 76.3411 11.8854 75.8984 12.25C75.4557 12.6081 75.1237 13.0833 74.9023 13.6758C74.6875 14.2682 74.5801 14.9128 74.5801 15.6094V15.834ZM86.4746 21H84.6484V10.4336H86.377L86.4746 12.6895V21ZM85.2832 15.2773C85.2962 14.3138 85.4818 13.4544 85.8398 12.6992C86.1979 11.9375 86.696 11.3385 87.334 10.9023C87.9785 10.4596 88.7272 10.2383 89.5801 10.2383C90.2767 10.2383 90.8757 10.3685 91.377 10.6289C91.8848 10.8828 92.2754 11.2897 92.5488 11.8496C92.8288 12.4095 92.9688 13.1517 92.9688 14.0762V21H91.1426V14.0566C91.1426 13.5033 91.0612 13.0573 90.8984 12.7188C90.7422 12.3802 90.5078 12.1361 90.1953 11.9863C89.8828 11.8301 89.4987 11.752 89.043 11.752C88.5938 11.752 88.1868 11.8464 87.8223 12.0352C87.4577 12.224 87.1419 12.4844 86.875 12.8164C86.6081 13.1484 86.403 13.5293 86.2598 13.959C86.1165 14.3822 86.0449 14.8314 86.0449 15.3066L85.2832 15.2773Z" fill="#8695A4"/>
</svg>
