<svg width="374" height="85" viewBox="0 0 374 85" fill="none" xmlns="http://www.w3.org/2000/svg">
<path d="M6.80469 8.51562L11.3877 21.7061L15.958 8.51562H19.3223L12.7334 27H10.0166L3.44043 8.51562H6.80469ZM4.96387 8.51562L5.58594 22.2139V27H1.58691V8.51562H4.96387ZM21.1758 8.51562V27H17.1768V22.2139L17.7861 8.51562H21.1758ZM31.5225 17.8467C31.5225 17.2288 31.3701 16.738 31.0654 16.374C30.7607 16.0101 30.2741 15.8281 29.6055 15.8281C29.2246 15.8281 28.8945 15.8916 28.6152 16.0186C28.3359 16.1455 28.1243 16.3275 27.9805 16.5645C27.8366 16.793 27.7646 17.0765 27.7646 17.415H23.9307C23.9307 16.6025 24.1719 15.8662 24.6543 15.2061C25.1367 14.5374 25.818 14.0042 26.6982 13.6064C27.5785 13.2087 28.6152 13.0098 29.8086 13.0098C30.875 13.0098 31.8271 13.1917 32.665 13.5557C33.5029 13.9111 34.1631 14.4486 34.6455 15.168C35.1279 15.8874 35.3691 16.7887 35.3691 17.8721V23.6104C35.3691 24.4229 35.4157 25.0661 35.5088 25.54C35.6104 26.014 35.75 26.4287 35.9277 26.7842V27H32.0684C31.8822 26.6107 31.7425 26.124 31.6494 25.54C31.5648 24.9561 31.5225 24.3636 31.5225 23.7627V17.8467ZM32.043 20.8047H30.0879C29.1569 20.8047 28.484 21.0078 28.0693 21.4141C27.6546 21.8118 27.4473 22.2943 27.4473 22.8613C27.4473 23.293 27.5996 23.6484 27.9043 23.9277C28.209 24.207 28.6195 24.3467 29.1357 24.3467C29.6689 24.3467 30.126 24.2451 30.5068 24.042C30.8962 23.8304 31.1924 23.5807 31.3955 23.293C31.6071 22.9967 31.7087 22.7259 31.7002 22.4805L32.6904 24.1309C32.555 24.4694 32.373 24.8206 32.1445 25.1846C31.9245 25.5485 31.641 25.887 31.2939 26.2002C30.9469 26.5133 30.5238 26.7673 30.0244 26.9619C29.5335 27.1566 28.9538 27.2539 28.2852 27.2539C27.4219 27.2539 26.6348 27.0804 25.9238 26.7334C25.2129 26.3779 24.6501 25.8913 24.2354 25.2734C23.8206 24.6471 23.6133 23.932 23.6133 23.1279C23.6133 21.6891 24.1465 20.5762 25.2129 19.7891C26.2793 18.9935 27.8662 18.5957 29.9736 18.5957H32.0176L32.043 20.8047ZM41.9453 27H38.1113V7.4873H41.9453V27ZM44.6748 20.1572L41.4248 23.4072L40.0156 20.6523L42.5928 17.3262L45.9951 13.2637H50.6035L44.6748 20.1572ZM42.6816 20.7285L45.3477 18.4561L51.0098 27H46.6045L42.6816 20.7285ZM56.1387 27H52.292V13.2637H56.1387V27ZM52.0635 9.72168C52.0635 9.14616 52.2581 8.67643 52.6475 8.3125C53.0368 7.9401 53.5573 7.75391 54.209 7.75391C54.8607 7.75391 55.377 7.9401 55.7578 8.3125C56.1471 8.67643 56.3418 9.14616 56.3418 9.72168C56.3418 10.2887 56.1471 10.7585 55.7578 11.1309C55.377 11.5033 54.8607 11.6895 54.209 11.6895C53.5573 11.6895 53.0368 11.5033 52.6475 11.1309C52.2581 10.7585 52.0635 10.2887 52.0635 9.72168ZM62.8291 27H58.9951V13.2637H62.6006L62.8291 16.1963V27ZM61.2549 19.7256C61.2549 18.3376 61.4792 17.1442 61.9277 16.1455C62.3763 15.1383 63.0068 14.3639 63.8193 13.8223C64.6318 13.2806 65.5755 13.0098 66.6504 13.0098C67.5137 13.0098 68.2669 13.179 68.9102 13.5176C69.5618 13.8561 70.0697 14.4105 70.4336 15.1807C70.806 15.9424 70.9922 16.9792 70.9922 18.291V27H67.1455V18.2656C67.1455 17.6986 67.0609 17.2627 66.8916 16.958C66.7308 16.6449 66.4938 16.429 66.1807 16.3105C65.8675 16.1836 65.4824 16.1201 65.0254 16.1201C64.5599 16.1201 64.1536 16.209 63.8066 16.3867C63.4681 16.556 63.1846 16.8014 62.9561 17.123C62.736 17.4447 62.571 17.8255 62.4609 18.2656C62.3509 18.6973 62.2959 19.167 62.2959 19.6748L61.2549 19.7256ZM85.833 13.2637V26.5049C85.833 27.766 85.5495 28.8366 84.9824 29.7168C84.4238 30.597 83.641 31.2656 82.6338 31.7227C81.6266 32.1797 80.4587 32.4082 79.1299 32.4082C78.5628 32.4082 77.9577 32.332 77.3145 32.1797C76.6712 32.0273 76.0534 31.7946 75.4609 31.4814C74.877 31.1683 74.3903 30.7705 74.001 30.2881L75.6768 27.9395C76.083 28.3965 76.5654 28.7562 77.124 29.0186C77.6826 29.2894 78.2962 29.4248 78.9648 29.4248C79.9212 29.4248 80.6618 29.1709 81.1865 28.6631C81.7197 28.1637 81.9863 27.4443 81.9863 26.5049V16.4756L82.3545 13.2637H85.833ZM73.1377 20.0303C73.1377 18.6338 73.362 17.4108 73.8105 16.3613C74.2676 15.3034 74.915 14.4824 75.7529 13.8984C76.5908 13.306 77.5853 13.0098 78.7363 13.0098C79.6589 13.0098 80.429 13.1875 81.0469 13.543C81.6732 13.89 82.181 14.3809 82.5703 15.0156C82.9596 15.6504 83.2643 16.3994 83.4844 17.2627C83.7044 18.1175 83.8822 19.0485 84.0176 20.0557V20.373C83.8398 21.651 83.5521 22.8105 83.1543 23.8516C82.7565 24.8926 82.1979 25.722 81.4785 26.3398C80.7591 26.9492 79.8366 27.2539 78.7109 27.2539C77.5684 27.2539 76.5781 26.9535 75.7402 26.3525C74.9108 25.7432 74.2676 24.9137 73.8105 23.8643C73.362 22.8148 73.1377 21.6257 73.1377 20.2969V20.0303ZM76.9844 20.2969C76.9844 21.0078 77.0817 21.6553 77.2764 22.2393C77.471 22.8232 77.7673 23.2887 78.165 23.6357C78.5628 23.9743 79.0706 24.1436 79.6885 24.1436C80.3402 24.1436 80.8649 24.0081 81.2627 23.7373C81.6689 23.458 81.9736 23.0729 82.1768 22.582C82.3883 22.0911 82.5068 21.5241 82.5322 20.8809V19.5605C82.5153 19.0104 82.4476 18.5238 82.3291 18.1006C82.2106 17.6689 82.0371 17.3092 81.8086 17.0215C81.5801 16.7253 81.2923 16.501 80.9453 16.3486C80.6068 16.1963 80.1963 16.1201 79.7139 16.1201C79.1045 16.1201 78.5967 16.2936 78.1904 16.6406C77.7842 16.9792 77.4795 17.4447 77.2764 18.0371C77.0817 18.6211 76.9844 19.2855 76.9844 20.0303V20.2969ZM102.413 17.8467C102.413 17.2288 102.261 16.738 101.956 16.374C101.651 16.0101 101.165 15.8281 100.496 15.8281C100.115 15.8281 99.7852 15.8916 99.5059 16.0186C99.2266 16.1455 99.015 16.3275 98.8711 16.5645C98.7272 16.793 98.6553 17.0765 98.6553 17.415H94.8213C94.8213 16.6025 95.0625 15.8662 95.5449 15.2061C96.0273 14.5374 96.7087 14.0042 97.5889 13.6064C98.4691 13.2087 99.5059 13.0098 100.699 13.0098C101.766 13.0098 102.718 13.1917 103.556 13.5557C104.394 13.9111 105.054 14.4486 105.536 15.168C106.019 15.8874 106.26 16.7887 106.26 17.8721V23.6104C106.26 24.4229 106.306 25.0661 106.399 25.54C106.501 26.014 106.641 26.4287 106.818 26.7842V27H102.959C102.773 26.6107 102.633 26.124 102.54 25.54C102.455 24.9561 102.413 24.3636 102.413 23.7627V17.8467ZM102.934 20.8047H100.979C100.048 20.8047 99.3747 21.0078 98.96 21.4141C98.5452 21.8118 98.3379 22.2943 98.3379 22.8613C98.3379 23.293 98.4902 23.6484 98.7949 23.9277C99.0996 24.207 99.5101 24.3467 100.026 24.3467C100.56 24.3467 101.017 24.2451 101.397 24.042C101.787 23.8304 102.083 23.5807 102.286 23.293C102.498 22.9967 102.599 22.7259 102.591 22.4805L103.581 24.1309C103.446 24.4694 103.264 24.8206 103.035 25.1846C102.815 25.5485 102.532 25.887 102.185 26.2002C101.838 26.5133 101.414 26.7673 100.915 26.9619C100.424 27.1566 99.8444 27.2539 99.1758 27.2539C98.3125 27.2539 97.5254 27.0804 96.8145 26.7334C96.1035 26.3779 95.5407 25.8913 95.126 25.2734C94.7113 24.6471 94.5039 23.932 94.5039 23.1279C94.5039 21.6891 95.0371 20.5762 96.1035 19.7891C97.1699 18.9935 98.7568 18.5957 100.864 18.5957H102.908L102.934 20.8047ZM123.551 7.5H127.41V27H123.944L123.551 23.9404V7.5ZM114.931 20.0303C114.931 18.6338 115.138 17.4108 115.553 16.3613C115.976 15.3034 116.585 14.4824 117.381 13.8984C118.185 13.306 119.162 13.0098 120.313 13.0098C121.388 13.0098 122.285 13.3187 123.005 13.9365C123.733 14.5459 124.304 15.3838 124.719 16.4502C125.142 17.5081 125.434 18.71 125.595 20.0557V20.373C125.434 21.651 125.142 22.8105 124.719 23.8516C124.304 24.8926 123.733 25.722 123.005 26.3398C122.285 26.9492 121.38 27.2539 120.288 27.2539C119.154 27.2539 118.185 26.9535 117.381 26.3525C116.585 25.7432 115.976 24.9137 115.553 23.8643C115.138 22.8148 114.931 21.6257 114.931 20.2969V20.0303ZM118.765 20.2969C118.765 21.0078 118.845 21.6553 119.006 22.2393C119.167 22.8232 119.429 23.2887 119.793 23.6357C120.157 23.9743 120.648 24.1436 121.266 24.1436C121.875 24.1436 122.374 24.0081 122.764 23.7373C123.153 23.458 123.449 23.0729 123.652 22.582C123.855 22.0911 123.974 21.5241 124.008 20.8809V19.5605C123.991 19.0104 123.919 18.5238 123.792 18.1006C123.674 17.6689 123.504 17.3092 123.284 17.0215C123.073 16.7253 122.798 16.501 122.459 16.3486C122.129 16.1963 121.74 16.1201 121.291 16.1201C120.682 16.1201 120.191 16.2936 119.818 16.6406C119.446 16.9792 119.175 17.4447 119.006 18.0371C118.845 18.6211 118.765 19.2855 118.765 20.0303V20.2969ZM136.589 27.2539C135.142 27.2539 133.902 26.9535 132.869 26.3525C131.845 25.7516 131.058 24.9476 130.508 23.9404C129.966 22.9333 129.695 21.8203 129.695 20.6016V20.1064C129.695 18.7354 129.953 17.5166 130.47 16.4502C130.994 15.3753 131.739 14.5332 132.704 13.9238C133.669 13.3145 134.82 13.0098 136.157 13.0098C137.486 13.0098 138.603 13.2891 139.509 13.8477C140.414 14.4062 141.1 15.1934 141.565 16.209C142.031 17.2161 142.264 18.401 142.264 19.7637V21.3887H131.308V18.8115H138.493V18.5068C138.493 18.0329 138.409 17.6139 138.239 17.25C138.07 16.8861 137.812 16.6025 137.465 16.3994C137.126 16.1963 136.682 16.0947 136.132 16.0947C135.506 16.0947 135.002 16.2725 134.621 16.6279C134.24 16.9834 133.961 17.4616 133.783 18.0625C133.614 18.6634 133.529 19.3447 133.529 20.1064V20.6016C133.529 21.304 133.66 21.9219 133.923 22.4551C134.185 22.9883 134.562 23.4072 135.053 23.7119C135.544 24.0081 136.136 24.1562 136.83 24.1562C137.482 24.1562 138.091 24.0378 138.658 23.8008C139.225 23.5553 139.708 23.1745 140.105 22.6582L141.959 24.7783C141.527 25.3962 140.859 25.9632 139.953 26.4795C139.056 26.9958 137.935 27.2539 136.589 27.2539ZM151.633 23.166C151.633 22.9121 151.557 22.6921 151.404 22.5059C151.26 22.3197 150.99 22.1462 150.592 21.9854C150.194 21.8245 149.618 21.6637 148.865 21.5029C147.943 21.2998 147.109 21.0247 146.364 20.6777C145.628 20.3307 145.048 19.8822 144.625 19.332C144.202 18.7734 143.99 18.1006 143.99 17.3135C143.99 16.5433 144.21 15.8324 144.65 15.1807C145.09 14.529 145.721 14.0042 146.542 13.6064C147.371 13.2087 148.362 13.0098 149.513 13.0098C150.715 13.0098 151.751 13.2002 152.623 13.5811C153.495 13.9619 154.163 14.4867 154.629 15.1553C155.094 15.8239 155.327 16.5898 155.327 17.4531H151.493C151.493 16.9368 151.332 16.5179 151.011 16.1963C150.698 15.8662 150.194 15.7012 149.5 15.7012C149.128 15.7012 148.802 15.7646 148.522 15.8916C148.243 16.0186 148.027 16.1878 147.875 16.3994C147.731 16.6025 147.659 16.8438 147.659 17.123C147.659 17.377 147.74 17.6012 147.9 17.7959C148.061 17.9906 148.324 18.1598 148.688 18.3037C149.051 18.4476 149.538 18.5745 150.147 18.6846C151.121 18.8708 152.001 19.1289 152.788 19.459C153.575 19.7806 154.201 20.2249 154.667 20.792C155.132 21.3506 155.365 22.0954 155.365 23.0264C155.365 23.8389 155.124 24.5667 154.642 25.21C154.168 25.8447 153.491 26.3441 152.61 26.708C151.739 27.0719 150.71 27.2539 149.525 27.2539C148.23 27.2539 147.139 27.0212 146.25 26.5557C145.361 26.0902 144.688 25.502 144.231 24.791C143.774 24.0716 143.546 23.3395 143.546 22.5947H147.177C147.202 23.0518 147.325 23.4242 147.545 23.7119C147.773 23.9997 148.065 24.2113 148.421 24.3467C148.785 24.4821 149.183 24.5498 149.614 24.5498C150.054 24.5498 150.423 24.4948 150.719 24.3848C151.023 24.2663 151.252 24.1055 151.404 23.9023C151.557 23.6908 151.633 23.4453 151.633 23.166ZM161.688 27H157.841V13.2637H161.688V27ZM157.612 9.72168C157.612 9.14616 157.807 8.67643 158.196 8.3125C158.586 7.9401 159.106 7.75391 159.758 7.75391C160.41 7.75391 160.926 7.9401 161.307 8.3125C161.696 8.67643 161.891 9.14616 161.891 9.72168C161.891 10.2887 161.696 10.7585 161.307 11.1309C160.926 11.5033 160.41 11.6895 159.758 11.6895C159.106 11.6895 158.586 11.5033 158.196 11.1309C157.807 10.7585 157.612 10.2887 157.612 9.72168ZM176.782 13.2637V26.5049C176.782 27.766 176.499 28.8366 175.932 29.7168C175.373 30.597 174.59 31.2656 173.583 31.7227C172.576 32.1797 171.408 32.4082 170.079 32.4082C169.512 32.4082 168.907 32.332 168.264 32.1797C167.62 32.0273 167.003 31.7946 166.41 31.4814C165.826 31.1683 165.34 30.7705 164.95 30.2881L166.626 27.9395C167.032 28.3965 167.515 28.7562 168.073 29.0186C168.632 29.2894 169.245 29.4248 169.914 29.4248C170.87 29.4248 171.611 29.1709 172.136 28.6631C172.669 28.1637 172.936 27.4443 172.936 26.5049V16.4756L173.304 13.2637H176.782ZM164.087 20.0303C164.087 18.6338 164.311 17.4108 164.76 16.3613C165.217 15.3034 165.864 14.4824 166.702 13.8984C167.54 13.306 168.535 13.0098 169.686 13.0098C170.608 13.0098 171.378 13.1875 171.996 13.543C172.622 13.89 173.13 14.3809 173.52 15.0156C173.909 15.6504 174.214 16.3994 174.434 17.2627C174.654 18.1175 174.831 19.0485 174.967 20.0557V20.373C174.789 21.651 174.501 22.8105 174.104 23.8516C173.706 24.8926 173.147 25.722 172.428 26.3398C171.708 26.9492 170.786 27.2539 169.66 27.2539C168.518 27.2539 167.527 26.9535 166.689 26.3525C165.86 25.7432 165.217 24.9137 164.76 23.8643C164.311 22.8148 164.087 21.6257 164.087 20.2969V20.0303ZM167.934 20.2969C167.934 21.0078 168.031 21.6553 168.226 22.2393C168.42 22.8232 168.716 23.2887 169.114 23.6357C169.512 23.9743 170.02 24.1436 170.638 24.1436C171.289 24.1436 171.814 24.0081 172.212 23.7373C172.618 23.458 172.923 23.0729 173.126 22.582C173.338 22.0911 173.456 21.5241 173.481 20.8809V19.5605C173.465 19.0104 173.397 18.5238 173.278 18.1006C173.16 17.6689 172.986 17.3092 172.758 17.0215C172.529 16.7253 172.242 16.501 171.895 16.3486C171.556 16.1963 171.146 16.1201 170.663 16.1201C170.054 16.1201 169.546 16.2936 169.14 16.6406C168.733 16.9792 168.429 17.4447 168.226 18.0371C168.031 18.6211 167.934 19.2855 167.934 20.0303V20.2969ZM183.257 27H179.423V13.2637H183.028L183.257 16.1963V27ZM181.683 19.7256C181.683 18.3376 181.907 17.1442 182.355 16.1455C182.804 15.1383 183.435 14.3639 184.247 13.8223C185.06 13.2806 186.003 13.0098 187.078 13.0098C187.941 13.0098 188.695 13.179 189.338 13.5176C189.99 13.8561 190.497 14.4105 190.861 15.1807C191.234 15.9424 191.42 16.9792 191.42 18.291V27H187.573V18.2656C187.573 17.6986 187.489 17.2627 187.319 16.958C187.159 16.6449 186.922 16.429 186.608 16.3105C186.295 16.1836 185.91 16.1201 185.453 16.1201C184.988 16.1201 184.581 16.209 184.234 16.3867C183.896 16.556 183.612 16.8014 183.384 17.123C183.164 17.4447 182.999 17.8255 182.889 18.2656C182.779 18.6973 182.724 19.167 182.724 19.6748L181.683 19.7256ZM207.975 23.166C207.975 22.9121 207.898 22.6921 207.746 22.5059C207.602 22.3197 207.331 22.1462 206.934 21.9854C206.536 21.8245 205.96 21.6637 205.207 21.5029C204.285 21.2998 203.451 21.0247 202.706 20.6777C201.97 20.3307 201.39 19.8822 200.967 19.332C200.544 18.7734 200.332 18.1006 200.332 17.3135C200.332 16.5433 200.552 15.8324 200.992 15.1807C201.432 14.529 202.063 14.0042 202.884 13.6064C203.713 13.2087 204.703 13.0098 205.854 13.0098C207.056 13.0098 208.093 13.2002 208.965 13.5811C209.837 13.9619 210.505 14.4867 210.971 15.1553C211.436 15.8239 211.669 16.5898 211.669 17.4531H207.835C207.835 16.9368 207.674 16.5179 207.353 16.1963C207.039 15.8662 206.536 15.7012 205.842 15.7012C205.469 15.7012 205.144 15.7646 204.864 15.8916C204.585 16.0186 204.369 16.1878 204.217 16.3994C204.073 16.6025 204.001 16.8438 204.001 17.123C204.001 17.377 204.081 17.6012 204.242 17.7959C204.403 17.9906 204.665 18.1598 205.029 18.3037C205.393 18.4476 205.88 18.5745 206.489 18.6846C207.463 18.8708 208.343 19.1289 209.13 19.459C209.917 19.7806 210.543 20.2249 211.009 20.792C211.474 21.3506 211.707 22.0954 211.707 23.0264C211.707 23.8389 211.466 24.5667 210.983 25.21C210.509 25.8447 209.832 26.3441 208.952 26.708C208.08 27.0719 207.052 27.2539 205.867 27.2539C204.572 27.2539 203.48 27.0212 202.592 26.5557C201.703 26.0902 201.03 25.502 200.573 24.791C200.116 24.0716 199.888 23.3395 199.888 22.5947H203.519C203.544 23.0518 203.667 23.4242 203.887 23.7119C204.115 23.9997 204.407 24.2113 204.763 24.3467C205.127 24.4821 205.524 24.5498 205.956 24.5498C206.396 24.5498 206.764 24.4948 207.061 24.3848C207.365 24.2663 207.594 24.1055 207.746 23.9023C207.898 23.6908 207.975 23.4453 207.975 23.166ZM221.647 13.2637H225.748L220.264 29.0566C220.145 29.3952 219.984 29.7633 219.781 30.1611C219.578 30.5674 219.307 30.9525 218.969 31.3164C218.639 31.6803 218.215 31.9766 217.699 32.2051C217.191 32.4336 216.569 32.5479 215.833 32.5479C215.596 32.5479 215.389 32.5394 215.211 32.5225C215.042 32.5055 214.877 32.4759 214.716 32.4336C214.555 32.3997 214.373 32.3574 214.17 32.3066V29.4121C214.263 29.4121 214.356 29.4121 214.449 29.4121C214.551 29.4206 214.644 29.4248 214.729 29.4248C215.448 29.4248 215.973 29.3148 216.303 29.0947C216.633 28.8747 216.882 28.5234 217.052 28.041L218.055 25.4131L221.647 13.2637ZM219.616 22.9756L220.137 27.2031L217.547 27.3809L212.634 13.2637H216.76L219.616 22.9756ZM234.508 23.166C234.508 22.9121 234.432 22.6921 234.279 22.5059C234.135 22.3197 233.865 22.1462 233.467 21.9854C233.069 21.8245 232.493 21.6637 231.74 21.5029C230.818 21.2998 229.984 21.0247 229.239 20.6777C228.503 20.3307 227.923 19.8822 227.5 19.332C227.077 18.7734 226.865 18.1006 226.865 17.3135C226.865 16.5433 227.085 15.8324 227.525 15.1807C227.965 14.529 228.596 14.0042 229.417 13.6064C230.246 13.2087 231.237 13.0098 232.388 13.0098C233.59 13.0098 234.626 13.2002 235.498 13.5811C236.37 13.9619 237.038 14.4867 237.504 15.1553C237.969 15.8239 238.202 16.5898 238.202 17.4531H234.368C234.368 16.9368 234.207 16.5179 233.886 16.1963C233.573 15.8662 233.069 15.7012 232.375 15.7012C232.003 15.7012 231.677 15.7646 231.397 15.8916C231.118 16.0186 230.902 16.1878 230.75 16.3994C230.606 16.6025 230.534 16.8438 230.534 17.123C230.534 17.377 230.615 17.6012 230.775 17.7959C230.936 17.9906 231.199 18.1598 231.562 18.3037C231.926 18.4476 232.413 18.5745 233.022 18.6846C233.996 18.8708 234.876 19.1289 235.663 19.459C236.45 19.7806 237.076 20.2249 237.542 20.792C238.007 21.3506 238.24 22.0954 238.24 23.0264C238.24 23.8389 237.999 24.5667 237.517 25.21C237.043 25.8447 236.366 26.3441 235.485 26.708C234.614 27.0719 233.585 27.2539 232.4 27.2539C231.105 27.2539 230.014 27.0212 229.125 26.5557C228.236 26.0902 227.563 25.502 227.106 24.791C226.649 24.0716 226.421 23.3395 226.421 22.5947H230.052C230.077 23.0518 230.2 23.4242 230.42 23.7119C230.648 23.9997 230.94 24.2113 231.296 24.3467C231.66 24.4821 232.058 24.5498 232.489 24.5498C232.929 24.5498 233.298 24.4948 233.594 24.3848C233.898 24.2663 234.127 24.1055 234.279 23.9023C234.432 23.6908 234.508 23.4453 234.508 23.166ZM247.394 16.0566H239.281V13.2637H247.394V16.0566ZM245.07 9.87402V22.709C245.07 23.0814 245.117 23.3691 245.21 23.5723C245.312 23.7754 245.468 23.915 245.68 23.9912C245.891 24.0674 246.154 24.1055 246.467 24.1055C246.695 24.1055 246.898 24.097 247.076 24.0801C247.254 24.0632 247.406 24.042 247.533 24.0166L247.521 26.9111C247.207 27.0212 246.865 27.1058 246.492 27.165C246.128 27.2243 245.718 27.2539 245.261 27.2539C244.44 27.2539 243.725 27.1185 243.115 26.8477C242.514 26.5684 242.049 26.1283 241.719 25.5273C241.397 24.918 241.236 24.1224 241.236 23.1406V9.87402H245.07ZM255.772 27.2539C254.325 27.2539 253.085 26.9535 252.053 26.3525C251.029 25.7516 250.242 24.9476 249.691 23.9404C249.15 22.9333 248.879 21.8203 248.879 20.6016V20.1064C248.879 18.7354 249.137 17.5166 249.653 16.4502C250.178 15.3753 250.923 14.5332 251.888 13.9238C252.853 13.3145 254.004 13.0098 255.341 13.0098C256.67 13.0098 257.787 13.2891 258.692 13.8477C259.598 14.4062 260.284 15.1934 260.749 16.209C261.215 17.2161 261.447 18.401 261.447 19.7637V21.3887H250.491V18.8115H257.677V18.5068C257.677 18.0329 257.592 17.6139 257.423 17.25C257.254 16.8861 256.995 16.6025 256.648 16.3994C256.31 16.1963 255.866 16.0947 255.315 16.0947C254.689 16.0947 254.186 16.2725 253.805 16.6279C253.424 16.9834 253.145 17.4616 252.967 18.0625C252.798 18.6634 252.713 19.3447 252.713 20.1064V20.6016C252.713 21.304 252.844 21.9219 253.106 22.4551C253.369 22.9883 253.745 23.4072 254.236 23.7119C254.727 24.0081 255.32 24.1562 256.014 24.1562C256.665 24.1562 257.275 24.0378 257.842 23.8008C258.409 23.5553 258.891 23.1745 259.289 22.6582L261.143 24.7783C260.711 25.3962 260.042 25.9632 259.137 26.4795C258.24 26.9958 257.118 27.2539 255.772 27.2539ZM267.287 27H263.453V13.2637H267.059L267.287 16.1328V27ZM265.7 19.7256C265.7 18.4222 265.903 17.2669 266.31 16.2598C266.716 15.2526 267.317 14.4613 268.112 13.8857C268.916 13.3018 269.911 13.0098 271.096 13.0098C272.314 13.0098 273.309 13.3864 274.079 14.1396C274.849 14.8844 275.234 16.1159 275.234 17.834V27H271.4V18.3037C271.4 17.7197 271.32 17.2712 271.159 16.958C271.007 16.6364 270.783 16.4163 270.486 16.2979C270.19 16.1794 269.835 16.1201 269.42 16.1201C268.971 16.1201 268.578 16.209 268.239 16.3867C267.901 16.556 267.621 16.8014 267.401 17.123C267.181 17.4447 267.016 17.8255 266.906 18.2656C266.805 18.6973 266.754 19.167 266.754 19.6748L265.7 19.7256ZM273.521 19.5732C273.512 18.3291 273.702 17.2119 274.092 16.2217C274.49 15.2314 275.082 14.4486 275.869 13.873C276.656 13.2975 277.634 13.0098 278.802 13.0098C279.682 13.0098 280.452 13.179 281.112 13.5176C281.772 13.8561 282.285 14.4105 282.648 15.1807C283.012 15.9508 283.194 16.9834 283.194 18.2783V27H279.335V18.2656C279.335 17.6732 279.255 17.2246 279.094 16.9199C278.941 16.6152 278.717 16.4079 278.421 16.2979C278.133 16.1794 277.786 16.1201 277.38 16.1201C276.957 16.1201 276.589 16.2005 276.275 16.3613C275.971 16.5221 275.713 16.7549 275.501 17.0596C275.298 17.3558 275.141 17.707 275.031 18.1133C274.93 18.5111 274.879 18.9469 274.879 19.4209L273.521 19.5732ZM293.401 27V12.0957C293.401 10.5215 293.858 9.31966 294.772 8.49023C295.695 7.65234 296.939 7.2334 298.505 7.2334C298.852 7.2334 299.182 7.25879 299.495 7.30957C299.817 7.35189 300.126 7.41113 300.422 7.4873L300.396 10.4453C300.236 10.4115 300.062 10.3861 299.876 10.3691C299.698 10.3522 299.499 10.3438 299.279 10.3438C298.636 10.3438 298.137 10.4961 297.781 10.8008C297.426 11.097 297.248 11.5286 297.248 12.0957V27H293.401ZM299.952 16.0566H291.383V13.2637H299.952V16.0566ZM305.627 27H301.793V13.2637H305.398L305.627 16.4248V27ZM309.639 16.8691C309.452 16.8438 309.232 16.8226 308.979 16.8057C308.725 16.7803 308.496 16.7676 308.293 16.7676C307.624 16.7676 307.074 16.8734 306.643 17.085C306.211 17.2881 305.889 17.5928 305.678 17.999C305.466 18.4053 305.352 18.9089 305.335 19.5098L304.586 19.1797C304.586 17.9863 304.738 16.9242 305.043 15.9932C305.348 15.0622 305.796 14.3343 306.389 13.8096C306.981 13.2764 307.701 13.0098 308.547 13.0098C308.742 13.0098 308.945 13.0225 309.156 13.0479C309.376 13.0732 309.554 13.1156 309.689 13.1748L309.639 16.8691ZM310.692 20.0049C310.692 18.6676 310.946 17.4743 311.454 16.4248C311.962 15.3669 312.702 14.5332 313.676 13.9238C314.649 13.3145 315.83 13.0098 317.218 13.0098C318.623 13.0098 319.812 13.3145 320.785 13.9238C321.767 14.5332 322.507 15.3669 323.007 16.4248C323.515 17.4743 323.769 18.6676 323.769 20.0049V20.2715C323.769 21.6003 323.515 22.7936 323.007 23.8516C322.507 24.9095 321.771 25.7432 320.798 26.3525C319.825 26.9535 318.64 27.2539 317.243 27.2539C315.847 27.2539 314.658 26.9535 313.676 26.3525C312.702 25.7432 311.962 24.9095 311.454 23.8516C310.946 22.7936 310.692 21.6003 310.692 20.2715V20.0049ZM314.539 20.2715C314.539 20.9909 314.624 21.6468 314.793 22.2393C314.971 22.8317 315.254 23.3014 315.644 23.6484C316.041 23.9954 316.575 24.1689 317.243 24.1689C317.903 24.1689 318.428 23.9954 318.817 23.6484C319.215 23.3014 319.499 22.8317 319.668 22.2393C319.846 21.6468 319.935 20.9909 319.935 20.2715V20.0049C319.935 19.3024 319.846 18.6549 319.668 18.0625C319.499 17.4616 319.215 16.9834 318.817 16.6279C318.428 16.2725 317.895 16.0947 317.218 16.0947C316.558 16.0947 316.029 16.2725 315.631 16.6279C315.242 16.9834 314.962 17.4616 314.793 18.0625C314.624 18.6549 314.539 19.3024 314.539 20.0049V20.2715ZM329.799 27H325.965V13.2637H329.57L329.799 16.1328V27ZM328.212 19.7256C328.212 18.4222 328.415 17.2669 328.821 16.2598C329.228 15.2526 329.828 14.4613 330.624 13.8857C331.428 13.3018 332.423 13.0098 333.607 13.0098C334.826 13.0098 335.821 13.3864 336.591 14.1396C337.361 14.8844 337.746 16.1159 337.746 17.834V27H333.912V18.3037C333.912 17.7197 333.832 17.2712 333.671 16.958C333.519 16.6364 333.294 16.4163 332.998 16.2979C332.702 16.1794 332.346 16.1201 331.932 16.1201C331.483 16.1201 331.09 16.209 330.751 16.3867C330.412 16.556 330.133 16.8014 329.913 17.123C329.693 17.4447 329.528 17.8255 329.418 18.2656C329.316 18.6973 329.266 19.167 329.266 19.6748L328.212 19.7256ZM336.032 19.5732C336.024 18.3291 336.214 17.2119 336.604 16.2217C337.001 15.2314 337.594 14.4486 338.381 13.873C339.168 13.2975 340.146 13.0098 341.313 13.0098C342.194 13.0098 342.964 13.179 343.624 13.5176C344.284 13.8561 344.796 14.4105 345.16 15.1807C345.524 15.9508 345.706 16.9834 345.706 18.2783V27H341.847V18.2656C341.847 17.6732 341.766 17.2246 341.605 16.9199C341.453 16.6152 341.229 16.4079 340.933 16.2979C340.645 16.1794 340.298 16.1201 339.892 16.1201C339.468 16.1201 339.1 16.2005 338.787 16.3613C338.482 16.5221 338.224 16.7549 338.013 17.0596C337.81 17.3558 337.653 17.707 337.543 18.1133C337.441 18.5111 337.391 18.9469 337.391 19.4209L336.032 19.5732ZM8.73438 61.166C8.73438 60.9121 8.6582 60.6921 8.50586 60.5059C8.36198 60.3197 8.09115 60.1462 7.69336 59.9854C7.29557 59.8245 6.72005 59.6637 5.9668 59.5029C5.04427 59.2998 4.21061 59.0247 3.46582 58.6777C2.72949 58.3307 2.14974 57.8822 1.72656 57.332C1.30339 56.7734 1.0918 56.1006 1.0918 55.3135C1.0918 54.5433 1.31185 53.8324 1.75195 53.1807C2.19206 52.529 2.82259 52.0042 3.64355 51.6064C4.47298 51.2087 5.46322 51.0098 6.61426 51.0098C7.81608 51.0098 8.85286 51.2002 9.72461 51.5811C10.5964 51.9619 11.265 52.4867 11.7305 53.1553C12.196 53.8239 12.4287 54.5898 12.4287 55.4531H8.59473C8.59473 54.9368 8.43392 54.5179 8.1123 54.1963C7.79915 53.8662 7.29557 53.7012 6.60156 53.7012C6.22917 53.7012 5.90332 53.7646 5.62402 53.8916C5.34473 54.0186 5.12891 54.1878 4.97656 54.3994C4.83268 54.6025 4.76074 54.8438 4.76074 55.123C4.76074 55.377 4.84115 55.6012 5.00195 55.7959C5.16276 55.9906 5.42513 56.1598 5.78906 56.3037C6.15299 56.4476 6.63965 56.5745 7.24902 56.6846C8.22233 56.8708 9.10254 57.1289 9.88965 57.459C10.6768 57.7806 11.3031 58.2249 11.7686 58.792C12.234 59.3506 12.4668 60.0954 12.4668 61.0264C12.4668 61.8389 12.2256 62.5667 11.7432 63.21C11.2692 63.8447 10.5921 64.3441 9.71191 64.708C8.84017 65.0719 7.81185 65.2539 6.62695 65.2539C5.33203 65.2539 4.24023 65.0212 3.35156 64.5557C2.46289 64.0902 1.79004 63.502 1.33301 62.791C0.875977 62.0716 0.647461 61.3395 0.647461 60.5947H4.27832C4.30371 61.0518 4.42643 61.4242 4.64648 61.7119C4.875 61.9997 5.16699 62.2113 5.52246 62.3467C5.88639 62.4821 6.28418 62.5498 6.71582 62.5498C7.15592 62.5498 7.52409 62.4948 7.82031 62.3848C8.125 62.2663 8.35352 62.1055 8.50586 61.9023C8.6582 61.6908 8.73438 61.4453 8.73438 61.166ZM20.4902 62.1689C20.9219 62.1689 21.3027 62.0885 21.6328 61.9277C21.9629 61.7669 22.2168 61.5384 22.3945 61.2422C22.5807 60.946 22.6781 60.5947 22.6865 60.1885H26.292C26.2835 61.1787 26.0254 62.0547 25.5176 62.8164C25.0098 63.5781 24.3242 64.1748 23.4609 64.6064C22.5977 65.0381 21.6286 65.2539 20.5537 65.2539C19.1318 65.2539 17.9469 64.945 16.999 64.3271C16.0596 63.7093 15.3529 62.8757 14.8789 61.8262C14.4134 60.7767 14.1807 59.6045 14.1807 58.3096V57.9668C14.1807 56.6634 14.4134 55.487 14.8789 54.4375C15.3529 53.388 16.0596 52.5544 16.999 51.9365C17.9469 51.3187 19.1276 51.0098 20.541 51.0098C21.6751 51.0098 22.6696 51.2298 23.5244 51.6699C24.3877 52.1016 25.0605 52.7236 25.543 53.5361C26.0339 54.3402 26.2835 55.305 26.292 56.4307H22.6865C22.6781 55.999 22.5892 55.6097 22.4199 55.2627C22.2591 54.9072 22.0137 54.6237 21.6836 54.4121C21.3535 54.2005 20.9473 54.0947 20.4648 54.0947C19.7878 54.0947 19.2715 54.2767 18.916 54.6406C18.569 55.0046 18.332 55.4827 18.2051 56.0752C18.0781 56.6592 18.0146 57.2897 18.0146 57.9668V58.3096C18.0146 58.9951 18.0739 59.6341 18.1924 60.2266C18.3193 60.8105 18.5605 61.2803 18.916 61.6357C19.2799 61.9912 19.8047 62.1689 20.4902 62.1689ZM32.1699 65H28.3359V51.2637H31.9414L32.1699 54.4248V65ZM36.1816 54.8691C35.9954 54.8438 35.7754 54.8226 35.5215 54.8057C35.2676 54.7803 35.0391 54.7676 34.8359 54.7676C34.1673 54.7676 33.6172 54.8734 33.1855 55.085C32.7539 55.2881 32.4323 55.5928 32.2207 55.999C32.0091 56.4053 31.8949 56.9089 31.8779 57.5098L31.1289 57.1797C31.1289 55.9863 31.2812 54.9242 31.5859 53.9932C31.8906 53.0622 32.3392 52.3343 32.9316 51.8096C33.5241 51.2764 34.2435 51.0098 35.0898 51.0098C35.2845 51.0098 35.4876 51.0225 35.6992 51.0479C35.9193 51.0732 36.097 51.1156 36.2324 51.1748L36.1816 54.8691ZM45.1826 55.8467C45.1826 55.2288 45.0303 54.738 44.7256 54.374C44.4209 54.0101 43.9342 53.8281 43.2656 53.8281C42.8848 53.8281 42.5547 53.8916 42.2754 54.0186C41.9961 54.1455 41.7845 54.3275 41.6406 54.5645C41.4967 54.793 41.4248 55.0765 41.4248 55.415H37.5908C37.5908 54.6025 37.832 53.8662 38.3145 53.2061C38.7969 52.5374 39.4782 52.0042 40.3584 51.6064C41.2386 51.2087 42.2754 51.0098 43.4688 51.0098C44.5352 51.0098 45.4873 51.1917 46.3252 51.5557C47.1631 51.9111 47.8232 52.4486 48.3057 53.168C48.7881 53.8874 49.0293 54.7887 49.0293 55.8721V61.6104C49.0293 62.4229 49.0758 63.0661 49.1689 63.54C49.2705 64.014 49.4102 64.4287 49.5879 64.7842V65H45.7285C45.5423 64.6107 45.4027 64.124 45.3096 63.54C45.2249 62.9561 45.1826 62.3636 45.1826 61.7627V55.8467ZM45.7031 58.8047H43.748C42.8171 58.8047 42.1442 59.0078 41.7295 59.4141C41.3148 59.8118 41.1074 60.2943 41.1074 60.8613C41.1074 61.293 41.2598 61.6484 41.5645 61.9277C41.8691 62.207 42.2796 62.3467 42.7959 62.3467C43.3291 62.3467 43.7861 62.2451 44.167 62.042C44.5563 61.8304 44.8525 61.5807 45.0557 61.293C45.2673 60.9967 45.3688 60.7259 45.3604 60.4805L46.3506 62.1309C46.2152 62.4694 46.0332 62.8206 45.8047 63.1846C45.5846 63.5485 45.3011 63.887 44.9541 64.2002C44.6071 64.5133 44.1839 64.7673 43.6846 64.9619C43.1937 65.1566 42.6139 65.2539 41.9453 65.2539C41.082 65.2539 40.2949 65.0804 39.584 64.7334C38.873 64.3779 38.3102 63.8913 37.8955 63.2734C37.4808 62.6471 37.2734 61.932 37.2734 61.1279C37.2734 59.6891 37.8066 58.5762 38.873 57.7891C39.9395 56.9935 41.5264 56.5957 43.6338 56.5957H45.6777L45.7031 58.8047ZM58.6396 54.0566H50.5273V51.2637H58.6396V54.0566ZM56.3164 47.874V60.709C56.3164 61.0814 56.363 61.3691 56.4561 61.5723C56.5576 61.7754 56.7142 61.915 56.9258 61.9912C57.1374 62.0674 57.3997 62.1055 57.7129 62.1055C57.9414 62.1055 58.1445 62.097 58.3223 62.0801C58.5 62.0632 58.6523 62.042 58.7793 62.0166L58.7666 64.9111C58.4535 65.0212 58.1107 65.1058 57.7383 65.165C57.3743 65.2243 56.9639 65.2539 56.5068 65.2539C55.6859 65.2539 54.9707 65.1185 54.3613 64.8477C53.7604 64.5684 53.2949 64.1283 52.9648 63.5273C52.6432 62.918 52.4824 62.1224 52.4824 61.1406V47.874H56.3164ZM66.3457 62.1689C66.7773 62.1689 67.1582 62.0885 67.4883 61.9277C67.8184 61.7669 68.0723 61.5384 68.25 61.2422C68.4362 60.946 68.5335 60.5947 68.542 60.1885H72.1475C72.139 61.1787 71.8809 62.0547 71.373 62.8164C70.8652 63.5781 70.1797 64.1748 69.3164 64.6064C68.4531 65.0381 67.484 65.2539 66.4092 65.2539C64.9873 65.2539 63.8024 64.945 62.8545 64.3271C61.915 63.7093 61.2083 62.8757 60.7344 61.8262C60.2689 60.7767 60.0361 59.6045 60.0361 58.3096V57.9668C60.0361 56.6634 60.2689 55.487 60.7344 54.4375C61.2083 53.388 61.915 52.5544 62.8545 51.9365C63.8024 51.3187 64.9831 51.0098 66.3965 51.0098C67.5306 51.0098 68.5251 51.2298 69.3799 51.6699C70.2432 52.1016 70.916 52.7236 71.3984 53.5361C71.8893 54.3402 72.139 55.305 72.1475 56.4307H68.542C68.5335 55.999 68.4447 55.6097 68.2754 55.2627C68.1146 54.9072 67.8691 54.6237 67.5391 54.4121C67.209 54.2005 66.8027 54.0947 66.3203 54.0947C65.6432 54.0947 65.127 54.2767 64.7715 54.6406C64.4245 55.0046 64.1875 55.4827 64.0605 56.0752C63.9336 56.6592 63.8701 57.2897 63.8701 57.9668V58.3096C63.8701 58.9951 63.9294 59.6341 64.0479 60.2266C64.1748 60.8105 64.416 61.2803 64.7715 61.6357C65.1354 61.9912 65.6602 62.1689 66.3457 62.1689ZM77.9365 65H74.0898V45.5H77.9365V65ZM76.3623 57.7256C76.3623 56.4222 76.5739 55.2669 76.9971 54.2598C77.4287 53.2526 78.0339 52.4613 78.8125 51.8857C79.5911 51.3018 80.501 51.0098 81.542 51.0098C82.4476 51.0098 83.2389 51.1875 83.916 51.543C84.6016 51.89 85.1348 52.457 85.5156 53.2441C85.9049 54.0228 86.0996 55.068 86.0996 56.3799V65H82.2529V56.3545C82.2529 55.779 82.1683 55.3304 81.999 55.0088C81.8382 54.6787 81.597 54.4502 81.2754 54.3232C80.9622 54.1878 80.5771 54.1201 80.1201 54.1201C79.6123 54.1201 79.1849 54.209 78.8379 54.3867C78.4909 54.556 78.2074 54.8014 77.9873 55.123C77.7757 55.4447 77.6234 55.8255 77.5303 56.2656C77.4372 56.6973 77.3906 57.167 77.3906 57.6748L76.3623 57.7256Z" fill="#21243D"/>
</svg>
