<svg width="129" height="60" viewBox="0 0 129 60" fill="none" xmlns="http://www.w3.org/2000/svg">
<path d="M6.99316 21.3594C8.16764 21.3594 9.16309 21.5384 9.97949 21.8965C10.7959 22.2546 11.4154 22.7845 11.8379 23.4863C12.2676 24.181 12.4824 25.0368 12.4824 26.0537C12.4824 26.7699 12.3356 27.4215 12.042 28.0088C11.7555 28.596 11.3402 29.0973 10.7959 29.5127C10.2516 29.9281 9.60352 30.236 8.85156 30.4365L8.27148 30.6621H3.41602L3.39453 28.9863H7.04688C7.79167 28.9863 8.41113 28.8538 8.90527 28.5889C9.39941 28.3239 9.76823 27.9694 10.0117 27.5254C10.2624 27.0814 10.3877 26.5908 10.3877 26.0537C10.3877 25.1442 10.1191 24.4173 9.58203 23.873C9.04492 23.3216 8.18197 23.0459 6.99316 23.0459H3.89941V37H1.81543V21.3594H6.99316ZM7.14355 29.9102H9.32422L13.1699 36.8711V37H10.9355L7.14355 29.9102ZM19.8945 37.2148C18.8132 37.2148 17.8714 36.9749 17.0693 36.4951C16.2744 36.0081 15.6549 35.3421 15.2109 34.4971C14.7741 33.652 14.5557 32.6852 14.5557 31.5967V31.1348C14.5557 29.8743 14.7956 28.8001 15.2754 27.9121C15.7624 27.0169 16.3926 26.3366 17.166 25.8711C17.9466 25.3984 18.7702 25.1621 19.6367 25.1621C20.7539 25.1621 21.6634 25.4128 22.3652 25.9141C23.0742 26.4082 23.5934 27.085 23.9229 27.9443C24.2594 28.7965 24.4277 29.7633 24.4277 30.8447V31.7363H15.748V30.125H22.4189V29.9746C22.3903 29.459 22.2865 28.9577 22.1074 28.4707C21.9284 27.9766 21.6419 27.5719 21.248 27.2568C20.8542 26.9346 20.3171 26.7734 19.6367 26.7734C19.0352 26.7734 18.5016 26.9453 18.0361 27.2891C17.5778 27.6257 17.2161 28.1198 16.9512 28.7715C16.6934 29.416 16.5645 30.2038 16.5645 31.1348V31.5967C16.5645 32.3343 16.7005 33.0075 16.9727 33.6162C17.2448 34.2178 17.6387 34.7012 18.1543 35.0664C18.6699 35.4245 19.2858 35.6035 20.002 35.6035C20.7038 35.6035 21.2982 35.4603 21.7852 35.1738C22.2721 34.8874 22.6982 34.5042 23.0635 34.0244L24.2773 34.9697C23.9049 35.5426 23.3678 36.0618 22.666 36.5273C21.9714 36.9857 21.0475 37.2148 19.8945 37.2148ZM31.4102 35.6035C31.8828 35.6035 32.3197 35.5068 32.7207 35.3135C33.1217 35.113 33.4512 34.8408 33.709 34.4971C33.9668 34.1533 34.1136 33.763 34.1494 33.3262H36.0508C36.015 34.0137 35.7822 34.6546 35.3525 35.249C34.9229 35.8363 34.3643 36.3125 33.6768 36.6777C32.9893 37.0358 32.2337 37.2148 31.4102 37.2148C30.2428 37.2148 29.276 36.9499 28.5098 36.4199C27.7435 35.8828 27.1706 35.1738 26.791 34.293C26.4186 33.4121 26.2324 32.4525 26.2324 31.4141V30.9629C26.2324 29.9173 26.4222 28.9577 26.8018 28.084C27.1813 27.2031 27.7542 26.4977 28.5205 25.9678C29.2868 25.4307 30.25 25.1621 31.4102 25.1621C32.3197 25.1621 33.1146 25.3483 33.7949 25.7207C34.4824 26.0859 35.0195 26.5872 35.4062 27.2246C35.8001 27.8548 36.015 28.571 36.0508 29.373H34.1494C34.1136 28.8932 33.9775 28.4564 33.7412 28.0625C33.512 27.6686 33.1969 27.3571 32.7959 27.1279C32.402 26.8916 31.9401 26.7734 31.4102 26.7734C30.6009 26.7734 29.9635 26.9811 29.498 27.3965C29.0397 27.8118 28.7139 28.3418 28.5205 28.9863C28.3343 29.6237 28.2412 30.2826 28.2412 30.9629V31.4141C28.2412 32.0944 28.3343 32.7568 28.5205 33.4014C28.7067 34.0459 29.029 34.5758 29.4873 34.9912C29.9528 35.3994 30.5938 35.6035 31.4102 35.6035ZM43.1191 37.2148C42.0378 37.2148 41.096 36.9749 40.2939 36.4951C39.499 36.0081 38.8796 35.3421 38.4355 34.4971C37.9987 33.652 37.7803 32.6852 37.7803 31.5967V31.1348C37.7803 29.8743 38.0202 28.8001 38.5 27.9121C38.987 27.0169 39.6172 26.3366 40.3906 25.8711C41.1712 25.3984 41.9948 25.1621 42.8613 25.1621C43.9785 25.1621 44.888 25.4128 45.5898 25.9141C46.2988 26.4082 46.818 27.085 47.1475 27.9443C47.484 28.7965 47.6523 29.7633 47.6523 30.8447V31.7363H38.9727V30.125H45.6436V29.9746C45.6149 29.459 45.5111 28.9577 45.332 28.4707C45.153 27.9766 44.8665 27.5719 44.4727 27.2568C44.0788 26.9346 43.5417 26.7734 42.8613 26.7734C42.2598 26.7734 41.7262 26.9453 41.2607 27.2891C40.8024 27.6257 40.4408 28.1198 40.1758 28.7715C39.918 29.416 39.7891 30.2038 39.7891 31.1348V31.5967C39.7891 32.3343 39.9251 33.0075 40.1973 33.6162C40.4694 34.2178 40.8633 34.7012 41.3789 35.0664C41.8945 35.4245 42.5104 35.6035 43.2266 35.6035C43.9284 35.6035 44.5228 35.4603 45.0098 35.1738C45.4967 34.8874 45.9229 34.5042 46.2881 34.0244L47.502 34.9697C47.1296 35.5426 46.5924 36.0618 45.8906 36.5273C45.196 36.9857 44.2721 37.2148 43.1191 37.2148ZM51.9814 37H49.9727V25.377H51.874L51.9814 27.8584V37ZM50.6709 30.7051C50.6852 29.6452 50.8893 28.6999 51.2832 27.8691C51.6771 27.0312 52.2249 26.3724 52.9268 25.8926C53.6357 25.4056 54.4593 25.1621 55.3975 25.1621C56.1637 25.1621 56.8226 25.3053 57.374 25.5918C57.9326 25.8711 58.3623 26.3187 58.6631 26.9346C58.971 27.5505 59.125 28.3669 59.125 29.3838V37H57.1162V29.3623C57.1162 28.7536 57.0267 28.263 56.8477 27.8906C56.6758 27.5182 56.418 27.2497 56.0742 27.085C55.7305 26.9131 55.3079 26.8271 54.8066 26.8271C54.3125 26.8271 53.8649 26.931 53.4639 27.1387C53.0628 27.3464 52.7155 27.6328 52.4219 27.998C52.1283 28.3633 51.9027 28.7822 51.7451 29.2549C51.5876 29.7204 51.5088 30.2145 51.5088 30.7373L50.6709 30.7051ZM67.0205 26.8916H60.7256V25.377H67.0205V26.8916ZM64.8506 22.5518V34.1211C64.8506 34.5221 64.9115 34.8229 65.0332 35.0234C65.1549 35.224 65.3125 35.3564 65.5059 35.4209C65.6992 35.4854 65.9069 35.5176 66.1289 35.5176C66.2936 35.5176 66.4655 35.5033 66.6445 35.4746C66.8307 35.446 66.9668 35.4209 67.0527 35.3994L67.0635 37C66.9059 37.0501 66.6982 37.0967 66.4404 37.1396C66.1898 37.1898 65.8854 37.2148 65.5273 37.2148C65.0404 37.2148 64.5928 37.1182 64.1846 36.9248C63.7764 36.7314 63.4505 36.4092 63.207 35.958C62.9635 35.4997 62.8418 34.8838 62.8418 34.1104V22.5518H64.8506ZM76.7959 41.4688H74.7871V25.377H76.6133L76.7959 27.6113V41.4688ZM84.6162 31.3174C84.6162 32.4489 84.4408 33.4587 84.0898 34.3467C83.7389 35.2347 83.2269 35.9365 82.5537 36.4521C81.8877 36.9606 81.0749 37.2148 80.1152 37.2148C79.1198 37.2148 78.2855 37 77.6123 36.5703C76.9391 36.1406 76.4128 35.5319 76.0332 34.7441C75.6536 33.9492 75.4066 33.0111 75.292 31.9297V30.6836C75.4066 29.5449 75.6536 28.5638 76.0332 27.7402C76.4199 26.9167 76.9463 26.2829 77.6123 25.8389C78.2855 25.3877 79.109 25.1621 80.083 25.1621C81.057 25.1621 81.8805 25.4092 82.5537 25.9033C83.2269 26.3975 83.7389 27.0921 84.0898 27.9873C84.4408 28.8753 84.6162 29.9102 84.6162 31.0918V31.3174ZM82.6074 31.0918C82.6074 30.3184 82.4964 29.6094 82.2744 28.9648C82.0596 28.3132 81.7194 27.7939 81.2539 27.4072C80.7956 27.0205 80.2048 26.8271 79.4814 26.8271C78.9873 26.8271 78.5576 26.9131 78.1924 27.085C77.8271 27.2568 77.5156 27.4896 77.2578 27.7832C77 28.0697 76.7887 28.3991 76.624 28.7715C76.4665 29.1367 76.3483 29.5163 76.2695 29.9102V32.7139C76.4128 33.2152 76.6097 33.6878 76.8604 34.1318C77.1182 34.5687 77.4583 34.9232 77.8809 35.1953C78.3105 35.4674 78.8512 35.6035 79.5029 35.6035C80.2191 35.6035 80.8063 35.4066 81.2646 35.0127C81.723 34.6188 82.0596 34.0996 82.2744 33.4551C82.4964 32.8034 82.6074 32.0908 82.6074 31.3174V31.0918ZM86.625 31.0703C86.625 29.946 86.8398 28.9398 87.2695 28.0518C87.6992 27.1637 88.3079 26.4619 89.0957 25.9463C89.8835 25.4235 90.818 25.1621 91.8994 25.1621C92.9951 25.1621 93.9404 25.4235 94.7354 25.9463C95.5303 26.4619 96.139 27.1637 96.5615 28.0518C96.9912 28.9398 97.2061 29.946 97.2061 31.0703V31.3174C97.2061 32.4346 96.9912 33.4408 96.5615 34.3359C96.139 35.224 95.5303 35.9258 94.7354 36.4414C93.9476 36.957 93.0094 37.2148 91.9209 37.2148C90.8324 37.2148 89.8906 36.957 89.0957 36.4414C88.3079 35.9258 87.6992 35.224 87.2695 34.3359C86.8398 33.4408 86.625 32.4346 86.625 31.3174V31.0703ZM88.6338 31.3174C88.6338 32.0837 88.7555 32.7926 88.999 33.4443C89.2425 34.096 89.6042 34.6188 90.084 35.0127C90.571 35.4066 91.1833 35.6035 91.9209 35.6035C92.6514 35.6035 93.2565 35.4066 93.7363 35.0127C94.2233 34.6188 94.5885 34.096 94.832 33.4443C95.0755 32.7926 95.1973 32.0837 95.1973 31.3174V31.0703C95.1973 30.304 95.0755 29.5951 94.832 28.9434C94.5885 28.2917 94.2233 27.7689 93.7363 27.375C93.2493 26.974 92.637 26.7734 91.8994 26.7734C91.1761 26.7734 90.571 26.974 90.084 27.375C89.597 27.7689 89.2318 28.2917 88.9883 28.9434C88.752 29.5951 88.6338 30.304 88.6338 31.0703V31.3174ZM106.477 33.917C106.477 33.6305 106.412 33.3656 106.283 33.1221C106.161 32.8714 105.911 32.6458 105.531 32.4453C105.152 32.2376 104.579 32.055 103.812 31.8975C102.953 31.7184 102.208 31.4928 101.578 31.2207C100.955 30.9414 100.472 30.5869 100.128 30.1572C99.7913 29.7275 99.623 29.194 99.623 28.5566C99.623 27.9408 99.7985 27.3786 100.149 26.8701C100.507 26.3545 101.009 25.9427 101.653 25.6348C102.305 25.3197 103.064 25.1621 103.931 25.1621C104.862 25.1621 105.657 25.3268 106.315 25.6562C106.981 25.9785 107.49 26.4154 107.841 26.9668C108.192 27.5111 108.367 28.1162 108.367 28.7822H106.358C106.358 28.3024 106.147 27.8477 105.725 27.418C105.309 26.9883 104.711 26.7734 103.931 26.7734C103.386 26.7734 102.942 26.8594 102.599 27.0312C102.262 27.196 102.015 27.4108 101.857 27.6758C101.707 27.9336 101.632 28.2057 101.632 28.4922C101.632 28.7786 101.703 29.0293 101.847 29.2441C101.99 29.4518 102.251 29.638 102.631 29.8027C103.018 29.9674 103.576 30.1322 104.307 30.2969C105.259 30.5117 106.043 30.7695 106.659 31.0703C107.275 31.3711 107.733 31.7399 108.034 32.1768C108.335 32.6136 108.485 33.1471 108.485 33.7773C108.485 34.4505 108.299 35.0485 107.927 35.5713C107.554 36.0869 107.032 36.4915 106.358 36.7852C105.685 37.0716 104.894 37.2148 103.984 37.2148C102.96 37.2148 102.094 37.0322 101.385 36.667C100.676 36.3018 100.139 35.8327 99.7734 35.2598C99.4082 34.6797 99.2256 34.0674 99.2256 33.4229H101.234C101.27 33.9671 101.428 34.4004 101.707 34.7227C101.993 35.0378 102.341 35.2633 102.749 35.3994C103.164 35.5355 103.576 35.6035 103.984 35.6035C104.529 35.6035 104.983 35.5319 105.349 35.3887C105.721 35.2383 106 35.0378 106.187 34.7871C106.38 34.5293 106.477 34.2393 106.477 33.917ZM115.962 26.8916H109.667V25.377H115.962V26.8916ZM113.792 22.5518V34.1211C113.792 34.5221 113.853 34.8229 113.975 35.0234C114.096 35.224 114.254 35.3564 114.447 35.4209C114.641 35.4854 114.848 35.5176 115.07 35.5176C115.235 35.5176 115.407 35.5033 115.586 35.4746C115.772 35.446 115.908 35.4209 115.994 35.3994L116.005 37C115.847 37.0501 115.64 37.0967 115.382 37.1396C115.131 37.1898 114.827 37.2148 114.469 37.2148C113.982 37.2148 113.534 37.1182 113.126 36.9248C112.718 36.7314 112.392 36.4092 112.148 35.958C111.905 35.4997 111.783 34.8838 111.783 34.1104V22.5518H113.792ZM125.039 33.917C125.039 33.6305 124.975 33.3656 124.846 33.1221C124.724 32.8714 124.473 32.6458 124.094 32.4453C123.714 32.2376 123.141 32.055 122.375 31.8975C121.516 31.7184 120.771 31.4928 120.141 31.2207C119.518 30.9414 119.034 30.5869 118.69 30.1572C118.354 29.7275 118.186 29.194 118.186 28.5566C118.186 27.9408 118.361 27.3786 118.712 26.8701C119.07 26.3545 119.571 25.9427 120.216 25.6348C120.868 25.3197 121.627 25.1621 122.493 25.1621C123.424 25.1621 124.219 25.3268 124.878 25.6562C125.544 25.9785 126.052 26.4154 126.403 26.9668C126.754 27.5111 126.93 28.1162 126.93 28.7822H124.921C124.921 28.3024 124.71 27.8477 124.287 27.418C123.872 26.9883 123.274 26.7734 122.493 26.7734C121.949 26.7734 121.505 26.8594 121.161 27.0312C120.825 27.196 120.577 27.4108 120.42 27.6758C120.27 27.9336 120.194 28.2057 120.194 28.4922C120.194 28.7786 120.266 29.0293 120.409 29.2441C120.552 29.4518 120.814 29.638 121.193 29.8027C121.58 29.9674 122.139 30.1322 122.869 30.2969C123.822 30.5117 124.606 30.7695 125.222 31.0703C125.838 31.3711 126.296 31.7399 126.597 32.1768C126.897 32.6136 127.048 33.1471 127.048 33.7773C127.048 34.4505 126.862 35.0485 126.489 35.5713C126.117 36.0869 125.594 36.4915 124.921 36.7852C124.248 37.0716 123.456 37.2148 122.547 37.2148C121.523 37.2148 120.656 37.0322 119.947 36.667C119.238 36.3018 118.701 35.8327 118.336 35.2598C117.971 34.6797 117.788 34.0674 117.788 33.4229H119.797C119.833 33.9671 119.99 34.4004 120.27 34.7227C120.556 35.0378 120.903 35.2633 121.312 35.3994C121.727 35.5355 122.139 35.6035 122.547 35.6035C123.091 35.6035 123.546 35.5319 123.911 35.3887C124.284 35.2383 124.563 35.0378 124.749 34.7871C124.942 34.5293 125.039 34.2393 125.039 33.917Z" fill="#21243D"/>
</svg>
