<svg width="374" height="34" viewBox="0 0 374 34" fill="none" xmlns="http://www.w3.org/2000/svg">
<path d="M6.91406 21H5.03906V6.78125H6.91406V21ZM11.4746 8.31445H0.488281V6.78125H11.4746V8.31445ZM19.209 10.4336H21.1523L16.9141 22.6309C16.8164 22.8913 16.6862 23.1712 16.5234 23.4707C16.3672 23.7767 16.1654 24.0664 15.918 24.3398C15.6771 24.6133 15.3809 24.8346 15.0293 25.0039C14.6777 25.1797 14.2611 25.2676 13.7793 25.2676C13.6816 25.2676 13.5645 25.2578 13.4277 25.2383C13.291 25.2188 13.1608 25.196 13.0371 25.1699C12.9134 25.1504 12.819 25.1309 12.7539 25.1113V23.6562C12.806 23.6628 12.8874 23.6725 12.998 23.6855C13.1152 23.6986 13.1966 23.7051 13.2422 23.7051C13.8542 23.7051 14.3327 23.5781 14.6777 23.3242C15.0228 23.0703 15.3027 22.6178 15.5176 21.9668L16.2695 19.9062L19.209 10.4336ZM16.8652 18.6465L17.334 20.5508L16.0254 21.2051L12.1484 10.4336H14.1406L16.8652 18.6465ZM24.5996 25.0625H22.7734V10.4336H24.4336L24.5996 12.4648V25.0625ZM31.709 15.834C31.709 16.8626 31.5495 17.7806 31.2305 18.5879C30.9115 19.3952 30.446 20.0332 29.834 20.502C29.2285 20.9642 28.4896 21.1953 27.6172 21.1953C26.7122 21.1953 25.9538 21 25.3418 20.6094C24.7298 20.2188 24.2513 19.6654 23.9062 18.9492C23.5612 18.2266 23.3366 17.3737 23.2324 16.3906V15.2578C23.3366 14.2227 23.5612 13.3307 23.9062 12.582C24.2578 11.8333 24.7363 11.2572 25.3418 10.8535C25.9538 10.4434 26.7025 10.2383 27.5879 10.2383C28.4733 10.2383 29.222 10.4629 29.834 10.9121C30.446 11.3613 30.9115 11.9928 31.2305 12.8066C31.5495 13.6139 31.709 14.5547 31.709 15.6289V15.834ZM29.8828 15.6289C29.8828 14.9258 29.7819 14.2812 29.5801 13.6953C29.3848 13.1029 29.0755 12.6309 28.6523 12.2793C28.2357 11.9277 27.6986 11.752 27.041 11.752C26.5918 11.752 26.2012 11.8301 25.8691 11.9863C25.5371 12.1426 25.2539 12.3542 25.0195 12.6211C24.7852 12.8815 24.5931 13.181 24.4434 13.5195C24.3001 13.8516 24.1927 14.1966 24.1211 14.5547V17.1035C24.2513 17.5592 24.4303 17.9889 24.6582 18.3926C24.8926 18.7897 25.2018 19.112 25.5859 19.3594C25.9766 19.6068 26.4681 19.7305 27.0605 19.7305C27.7116 19.7305 28.2454 19.5514 28.6621 19.1934C29.0788 18.8353 29.3848 18.3633 29.5801 17.7773C29.7819 17.1849 29.8828 16.5371 29.8828 15.834V15.6289ZM33.5352 15.6094C33.5352 14.5872 33.7305 13.6725 34.1211 12.8652C34.5117 12.0579 35.0651 11.4199 35.7812 10.9512C36.4974 10.4759 37.347 10.2383 38.3301 10.2383C39.3262 10.2383 40.1855 10.4759 40.9082 10.9512C41.6309 11.4199 42.1842 12.0579 42.5684 12.8652C42.959 13.6725 43.1543 14.5872 43.1543 15.6094V15.834C43.1543 16.8496 42.959 17.7643 42.5684 18.5781C42.1842 19.3854 41.6309 20.0234 40.9082 20.4922C40.1921 20.9609 39.3392 21.1953 38.3496 21.1953C37.36 21.1953 36.5039 20.9609 35.7812 20.4922C35.0651 20.0234 34.5117 19.3854 34.1211 18.5781C33.7305 17.7643 33.5352 16.8496 33.5352 15.834V15.6094ZM35.3613 15.834C35.3613 16.5306 35.472 17.1751 35.6934 17.7676C35.9147 18.36 36.2435 18.8353 36.6797 19.1934C37.1224 19.5514 37.679 19.7305 38.3496 19.7305C39.0137 19.7305 39.5638 19.5514 40 19.1934C40.4427 18.8353 40.7747 18.36 40.9961 17.7676C41.2174 17.1751 41.3281 16.5306 41.3281 15.834V15.6094C41.3281 14.9128 41.2174 14.2682 40.9961 13.6758C40.7747 13.0833 40.4427 12.6081 40 12.25C39.5573 11.8854 39.0007 11.7031 38.3301 11.7031C37.6725 11.7031 37.1224 11.8854 36.6797 12.25C36.237 12.6081 35.9049 13.0833 35.6836 13.6758C35.4688 14.2682 35.3613 14.9128 35.3613 15.6094V15.834ZM53.9355 10.4336V20.7754C53.9355 21.7064 53.7435 22.5007 53.3594 23.1582C52.9818 23.8158 52.4544 24.3138 51.7773 24.6523C51.1068 24.9974 50.332 25.1699 49.4531 25.1699C49.0885 25.1699 48.6589 25.1113 48.1641 24.9941C47.6758 24.8835 47.194 24.6914 46.7188 24.418C46.25 24.151 45.8561 23.7897 45.5371 23.334L46.4844 22.2695C46.9271 22.8034 47.3893 23.1745 47.8711 23.3828C48.3594 23.5977 48.8411 23.7051 49.3164 23.7051C50.1693 23.7051 50.8464 23.4609 51.3477 22.9727C51.8555 22.4909 52.1094 21.7878 52.1094 20.8633V12.7578L52.2754 10.4336H53.9355ZM45 15.6289C45 14.5547 45.1693 13.6139 45.5078 12.8066C45.8464 11.9928 46.3281 11.3613 46.9531 10.9121C47.5781 10.4629 48.3203 10.2383 49.1797 10.2383C49.8438 10.2383 50.4232 10.3555 50.918 10.5898C51.4193 10.8177 51.8424 11.1497 52.1875 11.5859C52.5391 12.0221 52.8158 12.5495 53.0176 13.168C53.2259 13.7865 53.3691 14.4831 53.4473 15.2578V16.2051C53.3496 17.2272 53.1315 18.1126 52.793 18.8613C52.4609 19.6035 51.9954 20.1797 51.3965 20.5898C50.7975 20.9935 50.0521 21.1953 49.1602 21.1953C48.3138 21.1953 47.5781 20.9642 46.9531 20.502C46.3346 20.0332 45.8529 19.3952 45.5078 18.5879C45.1693 17.7806 45 16.8626 45 15.834V15.6289ZM46.8262 15.834C46.8262 16.5371 46.9206 17.1784 47.1094 17.7578C47.3047 18.3372 47.6074 18.8027 48.0176 19.1543C48.4277 19.4993 48.9583 19.6719 49.6094 19.6719C50.2083 19.6719 50.6999 19.5449 51.084 19.291C51.4681 19.0371 51.7773 18.7018 52.0117 18.2852C52.2461 17.8685 52.4284 17.416 52.5586 16.9277V14.5547C52.4805 14.1966 52.3698 13.8516 52.2266 13.5195C52.0833 13.181 51.8945 12.8815 51.6602 12.6211C51.4258 12.3542 51.1393 12.1426 50.8008 11.9863C50.4688 11.8301 50.0781 11.752 49.6289 11.752C48.9714 11.752 48.4342 11.9277 48.0176 12.2793C47.6074 12.6309 47.3047 13.1029 47.1094 13.6953C46.9206 14.2812 46.8262 14.9258 46.8262 15.6289V15.834ZM58.4863 21H56.6602V10.4336H58.4375L58.4863 12.0938V21ZM61.7773 12.0449C61.6211 12.0124 61.4746 11.9928 61.3379 11.9863C61.2077 11.9733 61.0579 11.9668 60.8887 11.9668C60.3353 11.9668 59.8665 12.0807 59.4824 12.3086C59.1048 12.5365 58.8118 12.8522 58.6035 13.2559C58.3952 13.653 58.265 14.1087 58.2129 14.623L57.6953 14.916C57.6953 14.0632 57.8092 13.2852 58.0371 12.582C58.265 11.8724 58.6198 11.306 59.1016 10.8828C59.5898 10.4531 60.2148 10.2383 60.9766 10.2383C61.1003 10.2383 61.2467 10.2546 61.416 10.2871C61.5918 10.3132 61.7122 10.3424 61.7773 10.375V12.0449ZM69.3555 13.7539C69.3555 13.1224 69.1667 12.6211 68.7891 12.25C68.418 11.8724 67.8678 11.6836 67.1387 11.6836C66.6895 11.6836 66.2923 11.7617 65.9473 11.918C65.6087 12.0742 65.3451 12.2793 65.1562 12.5332C64.9674 12.7871 64.873 13.0638 64.873 13.3633H63.0469C63.0469 12.8555 63.2194 12.3639 63.5645 11.8887C63.9095 11.4069 64.3945 11.013 65.0195 10.707C65.651 10.3945 66.3932 10.2383 67.2461 10.2383C68.0143 10.2383 68.6947 10.3685 69.2871 10.6289C69.8796 10.8893 70.3418 11.2832 70.6738 11.8105C71.0124 12.3314 71.1816 12.9857 71.1816 13.7734V18.6953C71.1816 19.0469 71.2109 19.4212 71.2695 19.8184C71.3346 20.2155 71.429 20.5573 71.5527 20.8438V21H69.6484C69.5573 20.7917 69.4857 20.515 69.4336 20.1699C69.3815 19.8184 69.3555 19.4928 69.3555 19.1934V13.7539ZM69.6875 15.8633H67.8711C66.8424 15.8633 66.0482 16.026 65.4883 16.3516C64.9284 16.6771 64.6484 17.1654 64.6484 17.8164C64.6484 18.3242 64.8177 18.7539 65.1562 19.1055C65.5013 19.457 66.0026 19.6328 66.6602 19.6328C67.2135 19.6328 67.7018 19.5156 68.125 19.2812C68.5482 19.0469 68.8835 18.7572 69.1309 18.4121C69.3783 18.0671 69.5117 17.735 69.5312 17.416L70.3125 18.2852C70.2669 18.5586 70.1432 18.8613 69.9414 19.1934C69.7396 19.5254 69.4694 19.8444 69.1309 20.1504C68.7988 20.4499 68.4017 20.7005 67.9395 20.9023C67.4837 21.0977 66.9694 21.1953 66.3965 21.1953C65.6803 21.1953 65.0521 21.0586 64.5117 20.7852C63.9779 20.5052 63.5612 20.1276 63.2617 19.6523C62.9688 19.1771 62.8223 18.6497 62.8223 18.0703C62.8223 16.931 63.252 16.0684 64.1113 15.4824C64.9707 14.89 66.1263 14.5938 67.5781 14.5938H69.668L69.6875 15.8633ZM75.8496 25.0625H74.0234V10.4336H75.6836L75.8496 12.4648V25.0625ZM82.959 15.834C82.959 16.8626 82.7995 17.7806 82.4805 18.5879C82.1615 19.3952 81.696 20.0332 81.084 20.502C80.4785 20.9642 79.7396 21.1953 78.8672 21.1953C77.9622 21.1953 77.2038 21 76.5918 20.6094C75.9798 20.2188 75.5013 19.6654 75.1562 18.9492C74.8112 18.2266 74.5866 17.3737 74.4824 16.3906V15.2578C74.5866 14.2227 74.8112 13.3307 75.1562 12.582C75.5078 11.8333 75.9863 11.2572 76.5918 10.8535C77.2038 10.4434 77.9525 10.2383 78.8379 10.2383C79.7233 10.2383 80.472 10.4629 81.084 10.9121C81.696 11.3613 82.1615 11.9928 82.4805 12.8066C82.7995 13.6139 82.959 14.5547 82.959 15.6289V15.834ZM81.1328 15.6289C81.1328 14.9258 81.0319 14.2812 80.8301 13.6953C80.6348 13.1029 80.3255 12.6309 79.9023 12.2793C79.4857 11.9277 78.9486 11.752 78.291 11.752C77.8418 11.752 77.4512 11.8301 77.1191 11.9863C76.7871 12.1426 76.5039 12.3542 76.2695 12.6211C76.0352 12.8815 75.8431 13.181 75.6934 13.5195C75.5501 13.8516 75.4427 14.1966 75.3711 14.5547V17.1035C75.5013 17.5592 75.6803 17.9889 75.9082 18.3926C76.1426 18.7897 76.4518 19.112 76.8359 19.3594C77.2266 19.6068 77.7181 19.7305 78.3105 19.7305C78.9616 19.7305 79.4954 19.5514 79.9121 19.1934C80.3288 18.8353 80.6348 18.3633 80.8301 17.7773C81.0319 17.1849 81.1328 16.5371 81.1328 15.834V15.6289ZM87.0801 21H85.2539V6H87.0801V21ZM85.8887 15.2773C85.9017 14.3138 86.0872 13.4544 86.4453 12.6992C86.8034 11.9375 87.3014 11.3385 87.9395 10.9023C88.584 10.4596 89.3327 10.2383 90.1855 10.2383C90.8822 10.2383 91.4811 10.3685 91.9824 10.6289C92.4902 10.8828 92.8809 11.2897 93.1543 11.8496C93.4342 12.4095 93.5742 13.1517 93.5742 14.0762V21H91.748V14.0566C91.748 13.5033 91.6667 13.0573 91.5039 12.7188C91.3477 12.3802 91.1133 12.1361 90.8008 11.9863C90.4883 11.8301 90.1042 11.752 89.6484 11.752C89.1992 11.752 88.7923 11.8464 88.4277 12.0352C88.0632 12.224 87.7474 12.4844 87.4805 12.8164C87.2135 13.1484 87.0085 13.5293 86.8652 13.959C86.722 14.3822 86.6504 14.8314 86.6504 15.3066L85.8887 15.2773ZM102.178 10.4336H104.121L99.8828 22.6309C99.7852 22.8913 99.6549 23.1712 99.4922 23.4707C99.3359 23.7767 99.1341 24.0664 98.8867 24.3398C98.6458 24.6133 98.3496 24.8346 97.998 25.0039C97.6465 25.1797 97.2298 25.2676 96.748 25.2676C96.6504 25.2676 96.5332 25.2578 96.3965 25.2383C96.2598 25.2188 96.1296 25.196 96.0059 25.1699C95.8822 25.1504 95.7878 25.1309 95.7227 25.1113V23.6562C95.7747 23.6628 95.8561 23.6725 95.9668 23.6855C96.084 23.6986 96.1654 23.7051 96.2109 23.7051C96.8229 23.7051 97.3014 23.5781 97.6465 23.3242C97.9915 23.0703 98.2715 22.6178 98.4863 21.9668L99.2383 19.9062L102.178 10.4336ZM99.834 18.6465L100.303 20.5508L98.9941 21.2051L95.1172 10.4336H97.1094L99.834 18.6465Z" fill="#8695A4"/>
</svg>
