<svg width="337" height="44" viewBox="0 0 337 44" fill="none" xmlns="http://www.w3.org/2000/svg">
<path d="M14.5166 9.67188H19.6289L12.2607 31H8.87695L9.59473 26.2686L14.5166 9.67188ZM10.0635 26.2686L10.8105 31H7.42676L0.0732422 9.67188H5.18555L10.0635 26.2686ZM25.9277 31H21.4893V15.1504H25.9277V31ZM21.2256 11.0635C21.2256 10.3994 21.4502 9.85742 21.8994 9.4375C22.3486 9.00781 22.9492 8.79297 23.7012 8.79297C24.4531 8.79297 25.0488 9.00781 25.4883 9.4375C25.9375 9.85742 26.1621 10.3994 26.1621 11.0635C26.1621 11.7178 25.9375 12.2598 25.4883 12.6895C25.0488 13.1191 24.4531 13.334 23.7012 13.334C22.9492 13.334 22.3486 13.1191 21.8994 12.6895C21.4502 12.2598 21.2256 11.7178 21.2256 11.0635ZM33.75 8.5V27.25L33.2959 31H29.3262V8.5H33.75ZM43.7109 23.207C43.7109 24.7891 43.4863 26.1904 43.0371 27.4111C42.5879 28.6318 41.9092 29.584 41.001 30.2676C40.0928 30.9512 38.9453 31.293 37.5586 31.293C36.25 31.293 35.1807 30.9414 34.3506 30.2383C33.5303 29.5254 32.8906 28.5635 32.4316 27.3525C31.9727 26.1318 31.6455 24.7598 31.4502 23.2363V22.8848C31.6455 21.3711 31.9678 20.0088 32.417 18.7979C32.876 17.5869 33.5156 16.6299 34.3359 15.9268C35.166 15.2139 36.2305 14.8574 37.5293 14.8574C38.9258 14.8574 40.0781 15.2041 40.9863 15.8975C41.9043 16.5908 42.5879 17.543 43.0371 18.7539C43.4863 19.9648 43.7109 21.3467 43.7109 22.8994V23.207ZM39.2871 22.8994C39.2871 22.0986 39.209 21.3613 39.0527 20.6875C38.8965 20.0039 38.6084 19.4619 38.1885 19.0615C37.7783 18.6514 37.1826 18.4463 36.4014 18.4463C35.8545 18.4463 35.3857 18.5342 34.9951 18.71C34.6045 18.8857 34.2822 19.1445 34.0283 19.4863C33.7842 19.8184 33.5986 20.2236 33.4717 20.7021C33.3545 21.1807 33.291 21.7129 33.2812 22.2988V23.8369C33.3008 24.6182 33.418 25.3018 33.6328 25.8877C33.8477 26.4639 34.1797 26.9131 34.6289 27.2354C35.0879 27.5576 35.6885 27.7188 36.4307 27.7188C37.2119 27.7188 37.8076 27.5283 38.2178 27.1475C38.6279 26.7568 38.9062 26.2246 39.0527 25.5508C39.209 24.8672 39.2871 24.0859 39.2871 23.207V22.8994ZM50.6543 31H46.2305V15.1504H50.3906L50.6543 18.7979V31ZM55.2832 19.3105C55.0684 19.2812 54.8145 19.2568 54.5215 19.2373C54.2285 19.208 53.9648 19.1934 53.7305 19.1934C52.959 19.1934 52.3242 19.3154 51.8262 19.5596C51.3281 19.7939 50.957 20.1455 50.7129 20.6143C50.4688 21.083 50.3369 21.6641 50.3174 22.3574L49.4531 21.9766C49.4531 20.5996 49.6289 19.374 49.9805 18.2998C50.332 17.2256 50.8496 16.3857 51.5332 15.7803C52.2168 15.165 53.0469 14.8574 54.0234 14.8574C54.248 14.8574 54.4824 14.8721 54.7266 14.9014C54.9805 14.9307 55.1855 14.9795 55.3418 15.0479L55.2832 19.3105ZM65.6689 20.4385C65.6689 19.7256 65.4932 19.1592 65.1416 18.7393C64.79 18.3193 64.2285 18.1094 63.457 18.1094C63.0176 18.1094 62.6367 18.1826 62.3145 18.3291C61.9922 18.4756 61.748 18.6855 61.582 18.959C61.416 19.2227 61.333 19.5498 61.333 19.9404H56.9092C56.9092 19.0029 57.1875 18.1533 57.7441 17.3916C58.3008 16.6201 59.0869 16.0049 60.1025 15.5459C61.1182 15.0869 62.3145 14.8574 63.6914 14.8574C64.9219 14.8574 66.0205 15.0674 66.9873 15.4873C67.9541 15.8975 68.7158 16.5176 69.2725 17.3477C69.8291 18.1777 70.1074 19.2178 70.1074 20.4678V27.0889C70.1074 28.0264 70.1611 28.7686 70.2686 29.3154C70.3857 29.8623 70.5469 30.3408 70.752 30.751V31H66.2988C66.084 30.5508 65.9229 29.9893 65.8154 29.3154C65.7178 28.6416 65.6689 27.958 65.6689 27.2646V20.4385ZM66.2695 23.8516H64.0137C62.9395 23.8516 62.1631 24.0859 61.6846 24.5547C61.2061 25.0137 60.9668 25.5703 60.9668 26.2246C60.9668 26.7227 61.1426 27.1328 61.4941 27.4551C61.8457 27.7773 62.3193 27.9385 62.915 27.9385C63.5303 27.9385 64.0576 27.8213 64.4971 27.5869C64.9463 27.3428 65.2881 27.0547 65.5225 26.7227C65.7666 26.3809 65.8838 26.0684 65.874 25.7852L67.0166 27.6895C66.8604 28.0801 66.6504 28.4854 66.3867 28.9053C66.1328 29.3252 65.8057 29.7158 65.4053 30.0771C65.0049 30.4385 64.5166 30.7314 63.9404 30.9561C63.374 31.1807 62.7051 31.293 61.9336 31.293C60.9375 31.293 60.0293 31.0928 59.209 30.6924C58.3887 30.2822 57.7393 29.7207 57.2607 29.0078C56.7822 28.2852 56.543 27.46 56.543 26.5322C56.543 24.8721 57.1582 23.5879 58.3887 22.6797C59.6191 21.7617 61.4502 21.3027 63.8818 21.3027H66.2402L66.2695 23.8516ZM77.5928 31H73.1689V15.1504H77.3291L77.5928 18.5342V31ZM75.7764 22.6064C75.7764 21.0049 76.0352 19.6279 76.5527 18.4756C77.0703 17.3135 77.7979 16.4199 78.7354 15.7949C79.6729 15.1699 80.7617 14.8574 82.002 14.8574C82.998 14.8574 83.8672 15.0527 84.6094 15.4434C85.3613 15.834 85.9473 16.4736 86.3672 17.3623C86.7969 18.2412 87.0117 19.4375 87.0117 20.9512V31H82.5732V20.9219C82.5732 20.2676 82.4756 19.7646 82.2803 19.4131C82.0947 19.0518 81.8213 18.8027 81.46 18.666C81.0986 18.5195 80.6543 18.4463 80.127 18.4463C79.5898 18.4463 79.1211 18.5488 78.7207 18.7539C78.3301 18.9492 78.0029 19.2324 77.7393 19.6035C77.4854 19.9746 77.2949 20.4141 77.168 20.9219C77.041 21.4199 76.9775 21.9619 76.9775 22.5479L75.7764 22.6064ZM98.042 18.373H88.6816V15.1504H98.042V18.373ZM95.3613 11.2393V26.0488C95.3613 26.4785 95.415 26.8105 95.5225 27.0449C95.6396 27.2793 95.8203 27.4404 96.0645 27.5283C96.3086 27.6162 96.6113 27.6602 96.9727 27.6602C97.2363 27.6602 97.4707 27.6504 97.6758 27.6309C97.8809 27.6113 98.0566 27.5869 98.2031 27.5576L98.1885 30.8975C97.8271 31.0244 97.4316 31.1221 97.002 31.1904C96.582 31.2588 96.1084 31.293 95.5811 31.293C94.6338 31.293 93.8086 31.1367 93.1055 30.8242C92.4121 30.502 91.875 29.9941 91.4941 29.3008C91.123 28.5977 90.9375 27.6797 90.9375 26.5469V11.2393H95.3613ZM111.094 23.5732V19.8672H116.455C117.266 19.8672 117.92 19.7354 118.418 19.4717C118.926 19.208 119.297 18.8467 119.531 18.3877C119.766 17.9287 119.883 17.4014 119.883 16.8057C119.883 16.21 119.766 15.6533 119.531 15.1357C119.297 14.6084 118.926 14.1885 118.418 13.876C117.92 13.5537 117.266 13.3926 116.455 13.3926H112.676V31H108.062V9.67188H116.455C118.145 9.67188 119.595 9.97949 120.806 10.5947C122.017 11.21 122.944 12.0547 123.589 13.1289C124.233 14.1934 124.556 15.4092 124.556 16.7764C124.556 18.1631 124.233 19.3643 123.589 20.3799C122.944 21.3955 122.017 22.1816 120.806 22.7383C119.595 23.2949 118.145 23.5732 116.455 23.5732H111.094ZM126.343 22.9287C126.343 21.3857 126.636 20.0088 127.222 18.7979C127.808 17.5771 128.662 16.6152 129.785 15.9121C130.908 15.209 132.271 14.8574 133.872 14.8574C135.493 14.8574 136.865 15.209 137.988 15.9121C139.121 16.6152 139.976 17.5771 140.552 18.7979C141.138 20.0088 141.431 21.3857 141.431 22.9287V23.2363C141.431 24.7695 141.138 26.1465 140.552 27.3672C139.976 28.5879 139.126 29.5498 138.003 30.2529C136.88 30.9463 135.513 31.293 133.901 31.293C132.29 31.293 130.918 30.9463 129.785 30.2529C128.662 29.5498 127.808 28.5879 127.222 27.3672C126.636 26.1465 126.343 24.7695 126.343 23.2363V22.9287ZM130.781 23.2363C130.781 24.0664 130.879 24.8232 131.074 25.5068C131.279 26.1904 131.606 26.7324 132.056 27.1328C132.515 27.5332 133.13 27.7334 133.901 27.7334C134.663 27.7334 135.269 27.5332 135.718 27.1328C136.177 26.7324 136.504 26.1904 136.699 25.5068C136.904 24.8232 137.007 24.0664 137.007 23.2363V22.9287C137.007 22.1182 136.904 21.3711 136.699 20.6875C136.504 19.9941 136.177 19.4424 135.718 19.0322C135.269 18.6221 134.653 18.417 133.872 18.417C133.11 18.417 132.5 18.6221 132.041 19.0322C131.592 19.4424 131.27 19.9941 131.074 20.6875C130.879 21.3711 130.781 22.1182 130.781 22.9287V23.2363ZM148.389 31H143.965V15.1504H148.125L148.389 18.7979V31ZM153.018 19.3105C152.803 19.2812 152.549 19.2568 152.256 19.2373C151.963 19.208 151.699 19.1934 151.465 19.1934C150.693 19.1934 150.059 19.3154 149.561 19.5596C149.062 19.7939 148.691 20.1455 148.447 20.6143C148.203 21.083 148.071 21.6641 148.052 22.3574L147.188 21.9766C147.188 20.5996 147.363 19.374 147.715 18.2998C148.066 17.2256 148.584 16.3857 149.268 15.7803C149.951 15.165 150.781 14.8574 151.758 14.8574C151.982 14.8574 152.217 14.8721 152.461 14.9014C152.715 14.9307 152.92 14.9795 153.076 15.0479L153.018 19.3105ZM163.667 18.373H154.307V15.1504H163.667V18.373ZM160.986 11.2393V26.0488C160.986 26.4785 161.04 26.8105 161.147 27.0449C161.265 27.2793 161.445 27.4404 161.689 27.5283C161.934 27.6162 162.236 27.6602 162.598 27.6602C162.861 27.6602 163.096 27.6504 163.301 27.6309C163.506 27.6113 163.682 27.5869 163.828 27.5576L163.813 30.8975C163.452 31.0244 163.057 31.1221 162.627 31.1904C162.207 31.2588 161.733 31.293 161.206 31.293C160.259 31.293 159.434 31.1367 158.73 30.8242C158.037 30.502 157.5 29.9941 157.119 29.3008C156.748 28.5977 156.562 27.6797 156.562 26.5469V11.2393H160.986ZM170.361 31H165.938V15.1504H170.098L170.361 18.7979V31ZM174.99 19.3105C174.775 19.2812 174.521 19.2568 174.229 19.2373C173.936 19.208 173.672 19.1934 173.438 19.1934C172.666 19.1934 172.031 19.3154 171.533 19.5596C171.035 19.7939 170.664 20.1455 170.42 20.6143C170.176 21.083 170.044 21.6641 170.024 22.3574L169.16 21.9766C169.16 20.5996 169.336 19.374 169.688 18.2998C170.039 17.2256 170.557 16.3857 171.24 15.7803C171.924 15.165 172.754 14.8574 173.73 14.8574C173.955 14.8574 174.189 14.8721 174.434 14.9014C174.688 14.9307 174.893 14.9795 175.049 15.0479L174.99 19.3105ZM185.376 20.4385C185.376 19.7256 185.2 19.1592 184.849 18.7393C184.497 18.3193 183.936 18.1094 183.164 18.1094C182.725 18.1094 182.344 18.1826 182.021 18.3291C181.699 18.4756 181.455 18.6855 181.289 18.959C181.123 19.2227 181.04 19.5498 181.04 19.9404H176.616C176.616 19.0029 176.895 18.1533 177.451 17.3916C178.008 16.6201 178.794 16.0049 179.81 15.5459C180.825 15.0869 182.021 14.8574 183.398 14.8574C184.629 14.8574 185.728 15.0674 186.694 15.4873C187.661 15.8975 188.423 16.5176 188.979 17.3477C189.536 18.1777 189.814 19.2178 189.814 20.4678V27.0889C189.814 28.0264 189.868 28.7686 189.976 29.3154C190.093 29.8623 190.254 30.3408 190.459 30.751V31H186.006C185.791 30.5508 185.63 29.9893 185.522 29.3154C185.425 28.6416 185.376 27.958 185.376 27.2646V20.4385ZM185.977 23.8516H183.721C182.646 23.8516 181.87 24.0859 181.392 24.5547C180.913 25.0137 180.674 25.5703 180.674 26.2246C180.674 26.7227 180.85 27.1328 181.201 27.4551C181.553 27.7773 182.026 27.9385 182.622 27.9385C183.237 27.9385 183.765 27.8213 184.204 27.5869C184.653 27.3428 184.995 27.0547 185.229 26.7227C185.474 26.3809 185.591 26.0684 185.581 25.7852L186.724 27.6895C186.567 28.0801 186.357 28.4854 186.094 28.9053C185.84 29.3252 185.513 29.7158 185.112 30.0771C184.712 30.4385 184.224 30.7314 183.647 30.9561C183.081 31.1807 182.412 31.293 181.641 31.293C180.645 31.293 179.736 31.0928 178.916 30.6924C178.096 30.2822 177.446 29.7207 176.968 29.0078C176.489 28.2852 176.25 27.46 176.25 26.5322C176.25 24.8721 176.865 23.5879 178.096 22.6797C179.326 21.7617 181.157 21.3027 183.589 21.3027H185.947L185.977 23.8516ZM197.637 31H193.198V15.1504H197.637V31ZM192.935 11.0635C192.935 10.3994 193.159 9.85742 193.608 9.4375C194.058 9.00781 194.658 8.79297 195.41 8.79297C196.162 8.79297 196.758 9.00781 197.197 9.4375C197.646 9.85742 197.871 10.3994 197.871 11.0635C197.871 11.7178 197.646 12.2598 197.197 12.6895C196.758 13.1191 196.162 13.334 195.41 13.334C194.658 13.334 194.058 13.1191 193.608 12.6895C193.159 12.2598 192.935 11.7178 192.935 11.0635ZM208.96 18.373H199.6V15.1504H208.96V18.373ZM206.279 11.2393V26.0488C206.279 26.4785 206.333 26.8105 206.44 27.0449C206.558 27.2793 206.738 27.4404 206.982 27.5283C207.227 27.6162 207.529 27.6602 207.891 27.6602C208.154 27.6602 208.389 27.6504 208.594 27.6309C208.799 27.6113 208.975 27.5869 209.121 27.5576L209.106 30.8975C208.745 31.0244 208.35 31.1221 207.92 31.1904C207.5 31.2588 207.026 31.293 206.499 31.293C205.552 31.293 204.727 31.1367 204.023 30.8242C203.33 30.502 202.793 29.9941 202.412 29.3008C202.041 28.5977 201.855 27.6797 201.855 26.5469V11.2393H206.279ZM219.727 26.5762C219.727 26.2832 219.639 26.0293 219.463 25.8145C219.297 25.5996 218.984 25.3994 218.525 25.2139C218.066 25.0283 217.402 24.8428 216.533 24.6572C215.469 24.4229 214.507 24.1055 213.647 23.7051C212.798 23.3047 212.129 22.7871 211.641 22.1523C211.152 21.5078 210.908 20.7314 210.908 19.8232C210.908 18.9346 211.162 18.1143 211.67 17.3623C212.178 16.6104 212.905 16.0049 213.853 15.5459C214.81 15.0869 215.952 14.8574 217.28 14.8574C218.667 14.8574 219.863 15.0771 220.869 15.5166C221.875 15.9561 222.646 16.5615 223.184 17.333C223.721 18.1045 223.989 18.9883 223.989 19.9844H219.565C219.565 19.3887 219.38 18.9053 219.009 18.5342C218.647 18.1533 218.066 17.9629 217.266 17.9629C216.836 17.9629 216.46 18.0361 216.138 18.1826C215.815 18.3291 215.566 18.5244 215.391 18.7686C215.225 19.0029 215.142 19.2812 215.142 19.6035C215.142 19.8965 215.234 20.1553 215.42 20.3799C215.605 20.6045 215.908 20.7998 216.328 20.9658C216.748 21.1318 217.31 21.2783 218.013 21.4053C219.136 21.6201 220.151 21.918 221.06 22.2988C221.968 22.6699 222.69 23.1826 223.228 23.8369C223.765 24.4814 224.033 25.3408 224.033 26.415C224.033 27.3525 223.755 28.1924 223.198 28.9346C222.651 29.667 221.87 30.2432 220.854 30.6631C219.849 31.083 218.662 31.293 217.295 31.293C215.801 31.293 214.541 31.0244 213.516 30.4873C212.49 29.9502 211.714 29.2715 211.187 28.4512C210.659 27.6211 210.396 26.7764 210.396 25.917H214.585C214.614 26.4443 214.756 26.874 215.01 27.2061C215.273 27.5381 215.61 27.7822 216.021 27.9385C216.44 28.0947 216.899 28.1729 217.397 28.1729C217.905 28.1729 218.33 28.1094 218.672 27.9824C219.023 27.8457 219.287 27.6602 219.463 27.4258C219.639 27.1816 219.727 26.8984 219.727 26.5762ZM233.511 22.9287C233.511 21.3857 233.804 20.0088 234.39 18.7979C234.976 17.5771 235.83 16.6152 236.953 15.9121C238.076 15.209 239.438 14.8574 241.04 14.8574C242.661 14.8574 244.033 15.209 245.156 15.9121C246.289 16.6152 247.144 17.5771 247.72 18.7979C248.306 20.0088 248.599 21.3857 248.599 22.9287V23.2363C248.599 24.7695 248.306 26.1465 247.72 27.3672C247.144 28.5879 246.294 29.5498 245.171 30.2529C244.048 30.9463 242.681 31.293 241.069 31.293C239.458 31.293 238.086 30.9463 236.953 30.2529C235.83 29.5498 234.976 28.5879 234.39 27.3672C233.804 26.1465 233.511 24.7695 233.511 23.2363V22.9287ZM237.949 23.2363C237.949 24.0664 238.047 24.8232 238.242 25.5068C238.447 26.1904 238.774 26.7324 239.224 27.1328C239.683 27.5332 240.298 27.7334 241.069 27.7334C241.831 27.7334 242.437 27.5332 242.886 27.1328C243.345 26.7324 243.672 26.1904 243.867 25.5068C244.072 24.8232 244.175 24.0664 244.175 23.2363V22.9287C244.175 22.1182 244.072 21.3711 243.867 20.6875C243.672 19.9941 243.345 19.4424 242.886 19.0322C242.437 18.6221 241.821 18.417 241.04 18.417C240.278 18.417 239.668 18.6221 239.209 19.0322C238.76 19.4424 238.438 19.9941 238.242 20.6875C238.047 21.3711 237.949 22.1182 237.949 22.9287V23.2363ZM252.261 31V13.8027C252.261 11.9863 252.788 10.5996 253.843 9.64258C254.907 8.67578 256.343 8.19238 258.149 8.19238C258.55 8.19238 258.931 8.22168 259.292 8.28027C259.663 8.3291 260.02 8.39746 260.361 8.48535L260.332 11.8984C260.146 11.8594 259.946 11.8301 259.731 11.8105C259.526 11.791 259.297 11.7812 259.043 11.7812C258.301 11.7812 257.725 11.957 257.314 12.3086C256.904 12.6504 256.699 13.1484 256.699 13.8027V31H252.261ZM259.819 18.373H249.932V15.1504H259.819V18.373ZM283.975 31H269.282V27.9824L276.167 20.6582C276.851 19.916 277.388 19.2666 277.778 18.71C278.179 18.1436 278.462 17.6309 278.628 17.1719C278.794 16.7129 278.877 16.2832 278.877 15.8828C278.877 14.9551 278.647 14.2324 278.188 13.7148C277.739 13.1875 277.09 12.9238 276.24 12.9238C275.605 12.9238 275.068 13.0801 274.629 13.3926C274.189 13.6953 273.853 14.1104 273.618 14.6377C273.394 15.1553 273.281 15.751 273.281 16.4248H268.857C268.857 15.1357 269.16 13.959 269.766 12.8945C270.371 11.8203 271.23 10.9658 272.344 10.3311C273.467 9.68652 274.795 9.36426 276.328 9.36426C278.604 9.36426 280.337 9.90625 281.528 10.9902C282.72 12.0742 283.315 13.5635 283.315 15.458C283.315 16.4248 283.12 17.3477 282.729 18.2266C282.339 19.1055 281.782 19.9893 281.06 20.8779C280.347 21.7666 279.507 22.7139 278.54 23.7197L274.995 27.4404H283.975V31ZM301.011 22.1963C301.011 24.3154 300.708 26.0439 300.103 27.3818C299.497 28.7197 298.647 29.7061 297.554 30.3408C296.47 30.9756 295.21 31.293 293.774 31.293C292.339 31.293 291.069 30.9756 289.966 30.3408C288.872 29.7061 288.018 28.7197 287.402 27.3818C286.797 26.0439 286.494 24.3154 286.494 22.1963V18.4463C286.494 16.3174 286.797 14.5889 287.402 13.2607C288.008 11.9326 288.857 10.9561 289.951 10.3311C291.045 9.69629 292.31 9.37891 293.745 9.37891C295.181 9.37891 296.44 9.69629 297.524 10.3311C298.618 10.9561 299.473 11.9326 300.088 13.2607C300.703 14.5889 301.011 16.3174 301.011 18.4463V22.1963ZM296.572 17.8311C296.572 16.6104 296.46 15.6484 296.235 14.9453C296.011 14.2324 295.688 13.7246 295.269 13.4219C294.849 13.1094 294.341 12.9531 293.745 12.9531C293.149 12.9531 292.637 13.1094 292.207 13.4219C291.787 13.7246 291.465 14.2324 291.24 14.9453C291.025 15.6484 290.918 16.6104 290.918 17.8311V22.7822C290.918 24.0127 291.03 24.9893 291.255 25.7119C291.479 26.4346 291.807 26.9521 292.236 27.2646C292.666 27.5771 293.179 27.7334 293.774 27.7334C294.37 27.7334 294.873 27.5771 295.283 27.2646C295.703 26.9521 296.021 26.4346 296.235 25.7119C296.46 24.9893 296.572 24.0127 296.572 22.7822V17.8311ZM318.486 31H303.794V27.9824L310.679 20.6582C311.362 19.916 311.899 19.2666 312.29 18.71C312.69 18.1436 312.974 17.6309 313.14 17.1719C313.306 16.7129 313.389 16.2832 313.389 15.8828C313.389 14.9551 313.159 14.2324 312.7 13.7148C312.251 13.1875 311.602 12.9238 310.752 12.9238C310.117 12.9238 309.58 13.0801 309.141 13.3926C308.701 13.6953 308.364 14.1104 308.13 14.6377C307.905 15.1553 307.793 15.751 307.793 16.4248H303.369C303.369 15.1357 303.672 13.959 304.277 12.8945C304.883 11.8203 305.742 10.9658 306.855 10.3311C307.979 9.68652 309.307 9.36426 310.84 9.36426C313.115 9.36426 314.849 9.90625 316.04 10.9902C317.231 12.0742 317.827 13.5635 317.827 15.458C317.827 16.4248 317.632 17.3477 317.241 18.2266C316.851 19.1055 316.294 19.9893 315.571 20.8779C314.858 21.7666 314.019 22.7139 313.052 23.7197L309.507 27.4404H318.486V31ZM335.522 22.1963C335.522 24.3154 335.22 26.0439 334.614 27.3818C334.009 28.7197 333.159 29.7061 332.065 30.3408C330.981 30.9756 329.722 31.293 328.286 31.293C326.851 31.293 325.581 30.9756 324.478 30.3408C323.384 29.7061 322.529 28.7197 321.914 27.3818C321.309 26.0439 321.006 24.3154 321.006 22.1963V18.4463C321.006 16.3174 321.309 14.5889 321.914 13.2607C322.52 11.9326 323.369 10.9561 324.463 10.3311C325.557 9.69629 326.821 9.37891 328.257 9.37891C329.692 9.37891 330.952 9.69629 332.036 10.3311C333.13 10.9561 333.984 11.9326 334.6 13.2607C335.215 14.5889 335.522 16.3174 335.522 18.4463V22.1963ZM331.084 17.8311C331.084 16.6104 330.972 15.6484 330.747 14.9453C330.522 14.2324 330.2 13.7246 329.78 13.4219C329.36 13.1094 328.853 12.9531 328.257 12.9531C327.661 12.9531 327.148 13.1094 326.719 13.4219C326.299 13.7246 325.977 14.2324 325.752 14.9453C325.537 15.6484 325.43 16.6104 325.43 17.8311V22.7822C325.43 24.0127 325.542 24.9893 325.767 25.7119C325.991 26.4346 326.318 26.9521 326.748 27.2646C327.178 27.5771 327.69 27.7334 328.286 27.7334C328.882 27.7334 329.385 27.5771 329.795 27.2646C330.215 26.9521 330.532 26.4346 330.747 25.7119C330.972 24.9893 331.084 24.0127 331.084 22.7822V17.8311Z" fill="#21243D"/>
</svg>
