<svg width="208" height="20" viewBox="0 0 208 20" fill="none" xmlns="http://www.w3.org/2000/svg">
<path d="M162.891 5.625L158.68 17H157.508H157.336L153.133 5.625H154.781L158 15L161.242 5.625H162.891ZM165.07 5.46875C165.341 5.46875 165.552 5.54688 165.703 5.70312C165.859 5.85938 165.938 6.05729 165.938 6.29688C165.938 6.53125 165.859 6.72656 165.703 6.88281C165.552 7.03385 165.341 7.10938 165.07 7.10938C164.799 7.10938 164.589 7.03385 164.438 6.88281C164.292 6.72656 164.219 6.53125 164.219 6.29688C164.219 6.05729 164.292 5.85938 164.438 5.70312C164.589 5.54688 164.799 5.46875 165.07 5.46875ZM164.328 17V8.54688H165.789V17H164.328ZM174.906 13.1719H169.188C169.203 13.6979 169.312 14.1745 169.516 14.6016C169.719 15.0286 170.005 15.3672 170.375 15.6172C170.75 15.862 171.188 15.9844 171.688 15.9844C172.177 15.9844 172.599 15.8854 172.953 15.6875C173.312 15.4896 173.633 15.2057 173.914 14.8359L174.797 15.5234C174.484 16.0026 174.068 16.3958 173.547 16.7031C173.026 17.0052 172.38 17.1562 171.609 17.1562C170.839 17.1562 170.159 16.9818 169.57 16.6328C168.982 16.2839 168.526 15.7995 168.203 15.1797C167.885 14.5599 167.727 13.8568 167.727 13.0703V12.7344C167.727 11.8542 167.898 11.0859 168.242 10.4297C168.586 9.76823 169.039 9.26302 169.602 8.91406C170.169 8.5651 170.776 8.39062 171.422 8.39062C172.208 8.39062 172.859 8.56771 173.375 8.92188C173.896 9.27083 174.281 9.75521 174.531 10.375C174.781 10.9948 174.906 11.7109 174.906 12.5234V13.1719ZM173.445 11.8906C173.404 11.2292 173.224 10.6771 172.906 10.2344C172.594 9.78646 172.099 9.5625 171.422 9.5625C170.839 9.5625 170.352 9.77604 169.961 10.2031C169.576 10.625 169.333 11.224 169.234 12H173.445V11.8906ZM187.148 8.54688L184.695 17H183.727H183.516L181.469 10.6172L179.469 17H178.539H178.289L175.836 8.54688H177.289L178.945 14.8203L180.906 8.54688H181.867H182.086L184.078 14.9609L185.703 8.54688H187.148ZM199.039 15.1562C199.039 15.4531 199.065 15.7604 199.117 16.0781C199.169 16.3906 199.242 16.6562 199.336 16.875V17H197.812C197.724 16.7969 197.656 16.5026 197.609 16.1172C197.318 16.4297 196.966 16.6823 196.555 16.875C196.148 17.0625 195.701 17.1562 195.211 17.1562C194.648 17.1562 194.148 17.0469 193.711 16.8281C193.279 16.6042 192.943 16.3021 192.703 15.9219C192.469 15.5417 192.352 15.1198 192.352 14.6562C192.352 14.0573 192.505 13.5495 192.812 13.1328C193.125 12.7161 193.565 12.4036 194.133 12.1953C194.706 11.9818 195.38 11.875 196.156 11.875H197.578V11.2031C197.578 10.6875 197.424 10.2839 197.117 9.99219C196.815 9.69531 196.378 9.54688 195.805 9.54688C195.456 9.54688 195.143 9.60938 194.867 9.73438C194.591 9.85417 194.375 10.0182 194.219 10.2266C194.068 10.4297 193.992 10.651 193.992 10.8906H192.531C192.531 10.4792 192.672 10.0807 192.953 9.69531C193.234 9.3099 193.63 8.9974 194.141 8.75781C194.651 8.51302 195.234 8.39062 195.891 8.39062C196.516 8.39062 197.062 8.4974 197.531 8.71094C198.005 8.91927 198.375 9.23698 198.641 9.66406C198.906 10.0859 199.039 10.6042 199.039 11.2188V15.1562ZM195.422 15.9062C195.755 15.9062 196.065 15.849 196.352 15.7344C196.643 15.6146 196.893 15.4583 197.102 15.2656C197.31 15.0729 197.469 14.8646 197.578 14.6406V12.8906H196.391C195.557 12.8906 194.919 13.0234 194.477 13.2891C194.034 13.5495 193.812 13.9375 193.812 14.4531C193.812 14.7292 193.875 14.9766 194 15.1953C194.125 15.4141 194.307 15.5885 194.547 15.7188C194.786 15.8438 195.078 15.9062 195.422 15.9062ZM201.438 17V5H202.898V17H201.438ZM205.328 17V5H206.789V17H205.328Z" fill="#00A8CC"/>
</svg>
