<svg width="57" height="43" viewBox="0 0 57 43" fill="none" xmlns="http://www.w3.org/2000/svg">
<path d="M17.7129 6.78125L14.4512 21H12.7617H12L9.35352 10.7168L6.64844 21H5.04688H4.19727L0.935547 6.78125H3.44531L5.62305 17.3867L8.28906 6.78125H9.83203H10.4082L13.0449 17.416L15.1934 6.78125H17.7129ZM18.5039 15.6191C18.5039 14.5905 18.6992 13.6693 19.0898 12.8555C19.487 12.0417 20.0566 11.4036 20.7988 10.9414C21.541 10.4727 22.4134 10.2383 23.416 10.2383C24.4316 10.2383 25.3105 10.4727 26.0527 10.9414C26.8014 11.4036 27.3711 12.0417 27.7617 12.8555C28.1589 13.6693 28.3574 14.5905 28.3574 15.6191V15.8242C28.3574 16.8529 28.1589 17.7741 27.7617 18.5879C27.3711 19.4017 26.8047 20.0397 26.0625 20.502C25.3203 20.9642 24.4447 21.1953 23.4355 21.1953C22.4264 21.1953 21.5475 20.9642 20.7988 20.502C20.0566 20.0397 19.487 19.4017 19.0898 18.5879C18.6992 17.7741 18.5039 16.8529 18.5039 15.8242V15.6191ZM20.9355 15.8242C20.9355 16.8268 21.1439 17.6471 21.5605 18.2852C21.9772 18.9232 22.6022 19.2422 23.4355 19.2422C23.9889 19.2422 24.4512 19.0924 24.8223 18.793C25.1999 18.487 25.4766 18.0768 25.6523 17.5625C25.8346 17.0482 25.9258 16.4688 25.9258 15.8242V15.6191C25.9258 14.9811 25.8346 14.4049 25.6523 13.8906C25.4766 13.3698 25.1999 12.9564 24.8223 12.6504C24.4447 12.3444 23.9759 12.1914 23.416 12.1914C22.8626 12.1914 22.4004 12.3444 22.0293 12.6504C21.6582 12.9564 21.3815 13.3698 21.1992 13.8906C21.0234 14.4049 20.9355 14.9811 20.9355 15.6191V15.8242ZM35.0859 10.2383C35.2227 10.2383 35.3757 10.2513 35.5449 10.2773C35.7207 10.3034 35.8509 10.3327 35.9355 10.3652L35.916 12.6602C35.5905 12.6081 35.2682 12.582 34.9492 12.582C33.862 12.582 33.1328 12.9889 32.7617 13.8027V21H30.3301V10.4336H32.6445L32.7129 11.625C32.9798 11.1823 33.3118 10.8405 33.709 10.5996C34.1061 10.3587 34.5651 10.2383 35.0859 10.2383ZM40.8965 16.4883L39.832 17.5723V21H37.4102V6H39.832V14.6035L40.5547 13.7051L43.4453 10.4336H46.375L42.459 14.8281L46.7852 21H43.9727L40.8965 16.4883ZM51.5215 16.5859C50.3105 16.332 49.3763 15.9577 48.7188 15.4629C48.0612 14.9681 47.7324 14.2975 47.7324 13.4512C47.7324 12.8717 47.8984 12.3379 48.2305 11.8496C48.569 11.3548 49.0475 10.9642 49.666 10.6777C50.291 10.3848 51.0104 10.2383 51.8242 10.2383C52.6901 10.2383 53.4421 10.3848 54.0801 10.6777C54.7246 10.9707 55.2194 11.3743 55.5645 11.8887C55.9095 12.3965 56.082 12.9694 56.082 13.6074H53.6504C53.6504 13.3275 53.5788 13.0703 53.4355 12.8359C53.2988 12.5951 53.0938 12.403 52.8203 12.2598C52.5469 12.1165 52.2148 12.0449 51.8242 12.0449C51.2708 12.0449 50.8444 12.1686 50.5449 12.416C50.2454 12.6634 50.0957 12.9727 50.0957 13.3438C50.0957 13.5781 50.1576 13.7767 50.2812 13.9395C50.4115 14.1022 50.6328 14.2487 50.9453 14.3789C51.2578 14.5091 51.6908 14.6328 52.2441 14.75C53.1035 14.9323 53.8164 15.1536 54.3828 15.4141C54.9492 15.6745 55.3854 16.013 55.6914 16.4297C55.9974 16.8464 56.1504 17.3672 56.1504 17.9922C56.1504 18.6107 55.9714 19.1641 55.6133 19.6523C55.2617 20.1406 54.7604 20.5215 54.1094 20.7949C53.4583 21.0618 52.7064 21.1953 51.8535 21.1953C50.929 21.1953 50.1283 21.026 49.4512 20.6875C48.7741 20.349 48.2598 19.9095 47.9082 19.3691C47.5566 18.8288 47.3809 18.2591 47.3809 17.6602H49.7344C49.7604 18.2526 49.9785 18.6888 50.3887 18.9688C50.8053 19.2487 51.3066 19.3887 51.8926 19.3887C52.485 19.3887 52.944 19.2747 53.2695 19.0469C53.6016 18.8125 53.7676 18.5033 53.7676 18.1191C53.7676 17.8717 53.709 17.6602 53.5918 17.4844C53.4746 17.3086 53.25 17.1458 52.918 16.9961C52.5924 16.8464 52.127 16.7096 51.5215 16.5859Z" fill="black"/>
</svg>
